{
	"asset":{
		"generator":"Khronos glTF Blender I/O v3.6.27",
		"version":"2.0"
	},
	"scene":0,
	"scenes":[
		{
			"name":"Scene",
			"nodes":[
				0,
				1,
				2,
				3,
				4,
				5,
				6,
				7,
				8,
				9,
				10,
				11,
				12,
				13,
				14,
				15,
				16,
				17,
				18,
				19,
				20,
				21,
				22,
				23,
				24,
				25,
				26,
				27,
				28,
				29,
				30,
				31,
				32,
				33,
				34
			]
		}
	],
	"nodes":[
		{
			"mesh":0,
			"name":"Text",
			"translation":[
				0.22084060311317444,
				1.1022878885269165,
				0
			]
		},
		{
			"mesh":1,
			"name":"Text.001",
			"translation":[
				0.04739537090063095,
				0.12273295223712921,
				0
			]
		},
		{
			"name":"Empty",
			"rotation":[
				0.70710688829422,
				0,
				0,
				0.7071066498756409
			],
			"scale":[
				0.7074913382530212,
				0.7074913382530212,
				0.7074913382530212
			],
			"translation":[
				2.404258966445923,
				1.4289461374282837,
				0
			]
		},
		{
			"mesh":2,
			"name":"Cube.002",
			"scale":[
				0.7489088177680969,
				0.808986246585846,
				0.7489088177680969
			],
			"translation":[
				0.012096166610717773,
				1.484710454940796,
				0.00037449266528710723
			]
		},
		{
			"mesh":3,
			"name":"Text.006",
			"rotation":[
				0,
				-1,
				0,
				4.371138828673793e-08
			],
			"translation":[
				0.2873953580856323,
				0.12273295223712921,
				0
			]
		},
		{
			"mesh":4,
			"name":"Cube.001",
			"rotation":[
				0,
				0,
				-0.00017453292093705386,
				1
			],
			"scale":[
				0.7489088177680969,
				0.808986246585846,
				0.7489088177680969
			],
			"translation":[
				2.0389175415039062,
				1.9475830793380737,
				0.00037455486017279327
			]
		},
		{
			"mesh":5,
			"name":"Cube.003",
			"rotation":[
				0,
				0,
				-8.726646046852693e-05,
				1
			],
			"scale":[
				0.7489088177680969,
				0.808986246585846,
				0.7489088177680969
			],
			"translation":[
				-2.0147252082824707,
				1.9405698776245117,
				0.0003745538997463882
			]
		},
		{
			"mesh":6,
			"name":"Cube.004",
			"rotation":[
				-0.03884843736886978,
				3.390176971151959e-06,
				-8.720058394828811e-05,
				0.9992451071739197
			],
			"scale":[
				0.7489088177680969,
				0.808986246585846,
				0.7489088177680969
			],
			"translation":[
				-3.1263206005096436,
				1.9931689500808716,
				0.07342895120382309
			]
		},
		{
			"mesh":7,
			"name":"Cube.005",
			"rotation":[
				-0.036530204117298126,
				3.187873517163098e-06,
				-8.7208223703783e-05,
				0.9993326663970947
			],
			"scale":[
				0.7489088177680969,
				0.808986246585846,
				0.7489088177680969
			],
			"translation":[
				3.150512933731079,
				1.9990133047103882,
				0.07342895120382309
			]
		},
		{
			"mesh":8,
			"name":"Cube.006",
			"rotation":[
				0,
				0,
				-8.726646046852693e-05,
				1
			],
			"scale":[
				0.7489088177680969,
				0.808986246585846,
				0.7489088177680969
			],
			"translation":[
				3.2711334228515625,
				0.5755892992019653,
				0.0003743705165106803
			]
		},
		{
			"mesh":9,
			"name":"Cube.007",
			"rotation":[
				0,
				0,
				-8.726646046852693e-05,
				1
			],
			"scale":[
				0.7489088177680969,
				0.808986246585846,
				0.7489088177680969
			],
			"translation":[
				2.812514305114746,
				2.2964258193969727,
				0.0003746017173398286
			]
		},
		{
			"mesh":10,
			"name":"Cube.008",
			"rotation":[
				0,
				0,
				-8.726646046852693e-05,
				1
			],
			"scale":[
				0.7489088177680969,
				0.808986246585846,
				0.7489088177680969
			],
			"translation":[
				3.3157780170440674,
				2.05696964263916,
				0.0003745695576071739
			]
		},
		{
			"mesh":11,
			"name":"Cube.009",
			"rotation":[
				0,
				0,
				-8.726646046852693e-05,
				1
			],
			"scale":[
				0.7489088177680969,
				0.808986246585846,
				0.7489088177680969
			],
			"translation":[
				-1.663284420967102,
				2.3954551219940186,
				0.00037461501779034734
			]
		},
		{
			"mesh":12,
			"name":"Cube.010",
			"rotation":[
				0,
				0,
				-8.726646046852693e-05,
				1
			],
			"scale":[
				0.7489088177680969,
				0.808986246585846,
				0.7489088177680969
			],
			"translation":[
				-3.237363338470459,
				0.5846804976463318,
				0.0003743717388715595
			]
		},
		{
			"mesh":13,
			"name":"Cube.022",
			"rotation":[
				0,
				0,
				-8.726646046852693e-05,
				1
			],
			"scale":[
				0.7489088177680969,
				0.808986246585846,
				0.7489088177680969
			],
			"translation":[
				-3.18768572807312,
				2.2347354888916016,
				0.0003745934518519789
			]
		},
		{
			"mesh":14,
			"name":"Cube.023",
			"rotation":[
				0,
				0,
				-8.726646774448454e-05,
				1
			],
			"scale":[
				0.7338319420814514,
				0.792699933052063,
				0.7338319420814514
			],
			"translation":[
				-2.7903873920440674,
				2.3010494709014893,
				0.00037460235762409866
			]
		},
		{
			"mesh":15,
			"name":"Cube.024",
			"rotation":[
				0,
				0,
				-8.726646046852693e-05,
				1
			],
			"scale":[
				0.7489088177680969,
				0.808986246585846,
				0.7489088177680969
			],
			"translation":[
				3.3447790145874023,
				1.52510666847229,
				0.0003744980785995722
			]
		},
		{
			"mesh":16,
			"name":"Cube.025",
			"rotation":[
				0,
				0,
				-8.726646046852693e-05,
				1
			],
			"scale":[
				0.7489088177680969,
				0.808986246585846,
				0.7489088177680969
			],
			"translation":[
				3.0519068241119385,
				0.6969854235649109,
				0.0003743868146557361
			]
		},
		{
			"mesh":17,
			"name":"Cube.011"
		},
		{
			"mesh":18,
			"name":"Cube.012",
			"rotation":[
				0,
				0,
				-0.04055127874016762,
				0.9991774559020996
			],
			"translation":[
				3.597721576690674,
				1.7311487197875977,
				0
			]
		},
		{
			"mesh":19,
			"name":"Cube.013",
			"rotation":[
				0,
				0,
				-0.6636765003204346,
				0.748019814491272
			],
			"scale":[
				0.7742576003074646,
				0.7742576003074646,
				0.7742576003074646
			],
			"translation":[
				3.0222063064575195,
				0.7476732134819031,
				0
			]
		},
		{
			"mesh":20,
			"name":"Cube.014",
			"rotation":[
				0,
				0,
				-0.8355532884597778,
				0.5494094491004944
			],
			"scale":[
				0.76984703540802,
				0.76984703540802,
				0.76984703540802
			],
			"translation":[
				1.1863850355148315,
				2.9186043739318848,
				0
			]
		},
		{
			"mesh":21,
			"name":"Cube.015",
			"rotation":[
				0,
				0,
				0.5926922559738159,
				0.8054291605949402
			],
			"scale":[
				0.8511748313903809,
				0.8511748313903809,
				0.8511748313903809
			],
			"translation":[
				3.605006694793701,
				2.57620906829834,
				0
			]
		},
		{
			"mesh":22,
			"name":"Cube.016",
			"rotation":[
				0,
				0,
				-0.16519048810005188,
				0.9862616658210754
			],
			"scale":[
				1.1642506122589111,
				1.1642506122589111,
				1.1642504930496216
			],
			"translation":[
				1.8201804161071777,
				2.2483837604522705,
				0
			]
		},
		{
			"mesh":23,
			"name":"Cube.017",
			"rotation":[
				0,
				0,
				-0.8325337767601013,
				0.5539743304252625
			],
			"scale":[
				1.1642504930496216,
				1.1642504930496216,
				1.1642504930496216
			],
			"translation":[
				1.8205479383468628,
				2.918971538543701,
				0
			]
		},
		{
			"mesh":24,
			"name":"Cube.018",
			"rotation":[
				0,
				0,
				-0.8325338363647461,
				0.5539743900299072
			],
			"scale":[
				0.9035197496414185,
				0.9035197496414185,
				0.9035196304321289
			],
			"translation":[
				2.7089507579803467,
				2.0006935596466064,
				0
			]
		},
		{
			"mesh":25,
			"name":"Cube.019",
			"rotation":[
				0,
				0,
				-0.6809170246124268,
				0.7323606014251709
			],
			"scale":[
				1.7769426107406616,
				1.7769426107406616,
				1.776942491531372
			],
			"translation":[
				2.63832688331604,
				2.6751632690429688,
				0
			]
		},
		{
			"mesh":26,
			"name":"Cube.020",
			"rotation":[
				0,
				0,
				-0.47127485275268555,
				0.8819863796234131
			],
			"scale":[
				0.5522527694702148,
				0.5522527694702148,
				0.5522527694702148
			],
			"translation":[
				2.095745086669922,
				2.595883369445801,
				0
			]
		},
		{
			"mesh":27,
			"name":"Cube.021",
			"rotation":[
				0,
				0,
				0.981469988822937,
				0.19161619246006012
			],
			"scale":[
				1.1792538166046143,
				1.1792538166046143,
				1.1792538166046143
			],
			"translation":[
				3.2840981483459473,
				2.90482497215271,
				0
			]
		},
		{
			"mesh":28,
			"name":"Icosphere.001",
			"scale":[
				0.08860418945550919,
				0.08860418945550919,
				0.08860418945550919
			],
			"translation":[
				3.266254425048828,
				1.3384389877319336,
				-0.0028008713852614164
			]
		},
		{
			"mesh":29,
			"name":"Line.001",
			"translation":[
				0.004706412088125944,
				-0.02353205904364586,
				0
			]
		},
		{
			"mesh":30,
			"name":"Text.002",
			"rotation":[
				0.7071068286895752,
				0,
				0,
				0.7071068286895752
			],
			"scale":[
				0.6078996658325195,
				0.6078996658325195,
				0.6078996658325195
			]
		},
		{
			"mesh":31,
			"name":"Text.003",
			"rotation":[
				0.7071068286895752,
				0,
				0,
				0.7071068286895752
			],
			"scale":[
				0.6318516731262207,
				0.6318516731262207,
				0.6318516731262207
			],
			"translation":[
				-0.051033779978752136,
				-0.025473028421401978,
				0
			]
		},
		{
			"mesh":32,
			"name":"Text.004",
			"translation":[
				0.22084060311317444,
				1.1022878885269165,
				0
			]
		},
		{
			"mesh":33,
			"name":"Text.005",
			"translation":[
				0.04739537090063095,
				0.12273295223712921,
				0
			]
		}
	],
	"animations":[
		{
			"channels":[
				{
					"sampler":0,
					"target":{
						"node":4,
						"path":"translation"
					}
				},
				{
					"sampler":1,
					"target":{
						"node":4,
						"path":"rotation"
					}
				},
				{
					"sampler":2,
					"target":{
						"node":4,
						"path":"scale"
					}
				}
			],
			"name":"Text.006Action",
			"samplers":[
				{
					"input":152,
					"interpolation":"STEP",
					"output":153
				},
				{
					"input":154,
					"interpolation":"LINEAR",
					"output":155
				},
				{
					"input":152,
					"interpolation":"STEP",
					"output":156
				}
			]
		},
		{
			"channels":[
				{
					"sampler":0,
					"target":{
						"node":5,
						"path":"translation"
					}
				},
				{
					"sampler":1,
					"target":{
						"node":5,
						"path":"rotation"
					}
				},
				{
					"sampler":2,
					"target":{
						"node":5,
						"path":"scale"
					}
				}
			],
			"name":"Cube.001Action.001",
			"samplers":[
				{
					"input":157,
					"interpolation":"STEP",
					"output":158
				},
				{
					"input":159,
					"interpolation":"LINEAR",
					"output":160
				},
				{
					"input":157,
					"interpolation":"STEP",
					"output":161
				}
			]
		},
		{
			"channels":[
				{
					"sampler":0,
					"target":{
						"node":6,
						"path":"translation"
					}
				},
				{
					"sampler":1,
					"target":{
						"node":6,
						"path":"rotation"
					}
				},
				{
					"sampler":2,
					"target":{
						"node":6,
						"path":"scale"
					}
				}
			],
			"name":"Cube.003Action",
			"samplers":[
				{
					"input":162,
					"interpolation":"STEP",
					"output":163
				},
				{
					"input":164,
					"interpolation":"LINEAR",
					"output":165
				},
				{
					"input":162,
					"interpolation":"STEP",
					"output":166
				}
			]
		},
		{
			"channels":[
				{
					"sampler":0,
					"target":{
						"node":7,
						"path":"translation"
					}
				},
				{
					"sampler":1,
					"target":{
						"node":7,
						"path":"rotation"
					}
				},
				{
					"sampler":2,
					"target":{
						"node":7,
						"path":"scale"
					}
				}
			],
			"name":"Cube.004Action",
			"samplers":[
				{
					"input":167,
					"interpolation":"STEP",
					"output":168
				},
				{
					"input":169,
					"interpolation":"LINEAR",
					"output":170
				},
				{
					"input":167,
					"interpolation":"STEP",
					"output":171
				}
			]
		},
		{
			"channels":[
				{
					"sampler":0,
					"target":{
						"node":8,
						"path":"translation"
					}
				},
				{
					"sampler":1,
					"target":{
						"node":8,
						"path":"rotation"
					}
				},
				{
					"sampler":2,
					"target":{
						"node":8,
						"path":"scale"
					}
				}
			],
			"name":"Cube.005Action",
			"samplers":[
				{
					"input":157,
					"interpolation":"STEP",
					"output":172
				},
				{
					"input":159,
					"interpolation":"LINEAR",
					"output":173
				},
				{
					"input":157,
					"interpolation":"STEP",
					"output":174
				}
			]
		},
		{
			"channels":[
				{
					"sampler":0,
					"target":{
						"node":10,
						"path":"translation"
					}
				},
				{
					"sampler":1,
					"target":{
						"node":10,
						"path":"rotation"
					}
				},
				{
					"sampler":2,
					"target":{
						"node":10,
						"path":"scale"
					}
				}
			],
			"name":"Cube.007Action",
			"samplers":[
				{
					"input":175,
					"interpolation":"STEP",
					"output":176
				},
				{
					"input":177,
					"interpolation":"LINEAR",
					"output":178
				},
				{
					"input":175,
					"interpolation":"STEP",
					"output":179
				}
			]
		},
		{
			"channels":[
				{
					"sampler":0,
					"target":{
						"node":11,
						"path":"translation"
					}
				},
				{
					"sampler":1,
					"target":{
						"node":11,
						"path":"rotation"
					}
				},
				{
					"sampler":2,
					"target":{
						"node":11,
						"path":"scale"
					}
				}
			],
			"name":"Cube.008Action",
			"samplers":[
				{
					"input":157,
					"interpolation":"STEP",
					"output":180
				},
				{
					"input":159,
					"interpolation":"LINEAR",
					"output":181
				},
				{
					"input":157,
					"interpolation":"STEP",
					"output":182
				}
			]
		},
		{
			"channels":[
				{
					"sampler":0,
					"target":{
						"node":12,
						"path":"translation"
					}
				},
				{
					"sampler":1,
					"target":{
						"node":12,
						"path":"rotation"
					}
				},
				{
					"sampler":2,
					"target":{
						"node":12,
						"path":"scale"
					}
				}
			],
			"name":"Cube.009Action",
			"samplers":[
				{
					"input":175,
					"interpolation":"STEP",
					"output":183
				},
				{
					"input":177,
					"interpolation":"LINEAR",
					"output":184
				},
				{
					"input":175,
					"interpolation":"STEP",
					"output":185
				}
			]
		},
		{
			"channels":[
				{
					"sampler":0,
					"target":{
						"node":13,
						"path":"translation"
					}
				},
				{
					"sampler":1,
					"target":{
						"node":13,
						"path":"rotation"
					}
				},
				{
					"sampler":2,
					"target":{
						"node":13,
						"path":"scale"
					}
				}
			],
			"name":"Cube.010Action",
			"samplers":[
				{
					"input":186,
					"interpolation":"STEP",
					"output":187
				},
				{
					"input":188,
					"interpolation":"LINEAR",
					"output":189
				},
				{
					"input":186,
					"interpolation":"STEP",
					"output":190
				}
			]
		},
		{
			"channels":[
				{
					"sampler":0,
					"target":{
						"node":14,
						"path":"translation"
					}
				},
				{
					"sampler":1,
					"target":{
						"node":14,
						"path":"rotation"
					}
				},
				{
					"sampler":2,
					"target":{
						"node":14,
						"path":"scale"
					}
				}
			],
			"name":"Cube.022Action",
			"samplers":[
				{
					"input":157,
					"interpolation":"STEP",
					"output":191
				},
				{
					"input":159,
					"interpolation":"LINEAR",
					"output":192
				},
				{
					"input":157,
					"interpolation":"STEP",
					"output":193
				}
			]
		},
		{
			"channels":[
				{
					"sampler":0,
					"target":{
						"node":15,
						"path":"translation"
					}
				},
				{
					"sampler":1,
					"target":{
						"node":15,
						"path":"rotation"
					}
				},
				{
					"sampler":2,
					"target":{
						"node":15,
						"path":"scale"
					}
				}
			],
			"name":"Cube.023Action",
			"samplers":[
				{
					"input":175,
					"interpolation":"STEP",
					"output":194
				},
				{
					"input":177,
					"interpolation":"LINEAR",
					"output":195
				},
				{
					"input":177,
					"interpolation":"LINEAR",
					"output":196
				}
			]
		},
		{
			"channels":[
				{
					"sampler":0,
					"target":{
						"node":16,
						"path":"translation"
					}
				},
				{
					"sampler":1,
					"target":{
						"node":16,
						"path":"rotation"
					}
				},
				{
					"sampler":2,
					"target":{
						"node":16,
						"path":"scale"
					}
				}
			],
			"name":"Cube.024Action",
			"samplers":[
				{
					"input":157,
					"interpolation":"STEP",
					"output":197
				},
				{
					"input":159,
					"interpolation":"LINEAR",
					"output":198
				},
				{
					"input":157,
					"interpolation":"STEP",
					"output":199
				}
			]
		},
		{
			"channels":[
				{
					"sampler":0,
					"target":{
						"node":17,
						"path":"translation"
					}
				},
				{
					"sampler":1,
					"target":{
						"node":17,
						"path":"rotation"
					}
				},
				{
					"sampler":2,
					"target":{
						"node":17,
						"path":"scale"
					}
				}
			],
			"name":"Cube.025Action",
			"samplers":[
				{
					"input":175,
					"interpolation":"STEP",
					"output":200
				},
				{
					"input":177,
					"interpolation":"LINEAR",
					"output":201
				},
				{
					"input":175,
					"interpolation":"STEP",
					"output":202
				}
			]
		}
	],
	"materials":[
		{
			"alphaMode":"BLEND",
			"doubleSided":true,
			"name":"turuncu",
			"pbrMetallicRoughness":{
				"baseColorFactor":[
					1,
					0.06759881228208542,
					0,
					0
				],
				"metallicFactor":0,
				"roughnessFactor":0.5
			}
		},
		{
			"doubleSided":true,
			"name":"yaprak",
			"pbrMetallicRoughness":{
				"baseColorTexture":{
					"index":0
				},
				"metallicFactor":0,
				"roughnessFactor":0.5
			}
		},
		{
			"doubleSided":true,
			"name":"Material",
			"pbrMetallicRoughness":{
				"baseColorFactor":[
					0.800000011920929,
					0.800000011920929,
					0.800000011920929,
					1
				],
				"metallicFactor":0,
				"roughnessFactor":0.5
			}
		},
		{
			"alphaMode":"BLEND",
			"doubleSided":true,
			"name":"turkuaz",
			"pbrMetallicRoughness":{
				"baseColorFactor":[
					0.006048521026968956,
					0.11953828483819962,
					0.35153254866600037,
					0
				],
				"metallicFactor":0,
				"roughnessFactor":0.5
			}
		},
		{
			"doubleSided":true,
			"name":"Material.002",
			"pbrMetallicRoughness":{
				"baseColorFactor":[
					0.8000000715255737,
					0.5944965481758118,
					0,
					1
				],
				"metallicFactor":0.33774834871292114,
				"roughnessFactor":0.5
			}
		}
	],
	"meshes":[
		{
			"name":"Text",
			"primitives":[
				{
					"attributes":{
						"POSITION":0,
						"NORMAL":1,
						"TEXCOORD_0":2
					},
					"indices":3,
					"material":0
				}
			]
		},
		{
			"name":"Text.001",
			"primitives":[
				{
					"attributes":{
						"POSITION":4,
						"NORMAL":5,
						"TEXCOORD_0":6
					},
					"indices":7,
					"material":0
				}
			]
		},
		{
			"name":"Cube.012",
			"primitives":[
				{
					"attributes":{
						"COLOR_0":8,
						"POSITION":9,
						"NORMAL":10,
						"TEXCOORD_0":11
					},
					"indices":12,
					"material":1
				},
				{
					"attributes":{
						"COLOR_0":13,
						"POSITION":14,
						"NORMAL":15,
						"TEXCOORD_0":16
					},
					"indices":17,
					"material":2
				}
			]
		},
		{
			"name":"Text.006",
			"primitives":[
				{
					"attributes":{
						"POSITION":18,
						"NORMAL":19,
						"TEXCOORD_0":20
					},
					"indices":21,
					"material":3
				}
			]
		},
		{
			"name":"Cube.001",
			"primitives":[
				{
					"attributes":{
						"COLOR_0":22,
						"POSITION":23,
						"NORMAL":24,
						"TEXCOORD_0":25
					},
					"indices":26,
					"material":1
				}
			]
		},
		{
			"name":"Cube.002",
			"primitives":[
				{
					"attributes":{
						"COLOR_0":27,
						"POSITION":28,
						"NORMAL":29,
						"TEXCOORD_0":30
					},
					"indices":31,
					"material":1
				}
			]
		},
		{
			"name":"Cube.003",
			"primitives":[
				{
					"attributes":{
						"COLOR_0":32,
						"POSITION":33,
						"NORMAL":34,
						"TEXCOORD_0":35
					},
					"indices":36,
					"material":4
				}
			]
		},
		{
			"name":"Cube.004",
			"primitives":[
				{
					"attributes":{
						"COLOR_0":37,
						"POSITION":38,
						"NORMAL":39,
						"TEXCOORD_0":40
					},
					"indices":41,
					"material":4
				}
			]
		},
		{
			"name":"Cube.005",
			"primitives":[
				{
					"attributes":{
						"COLOR_0":42,
						"POSITION":43,
						"NORMAL":44,
						"TEXCOORD_0":45
					},
					"indices":26,
					"material":1
				}
			]
		},
		{
			"name":"Cube.006",
			"primitives":[
				{
					"attributes":{
						"COLOR_0":46,
						"POSITION":47,
						"NORMAL":48,
						"TEXCOORD_0":49
					},
					"indices":26,
					"material":1
				}
			]
		},
		{
			"name":"Cube.007",
			"primitives":[
				{
					"attributes":{
						"COLOR_0":50,
						"POSITION":51,
						"NORMAL":52,
						"TEXCOORD_0":53
					},
					"indices":26,
					"material":1
				}
			]
		},
		{
			"name":"Cube.008",
			"primitives":[
				{
					"attributes":{
						"COLOR_0":54,
						"POSITION":55,
						"NORMAL":56,
						"TEXCOORD_0":57
					},
					"indices":31,
					"material":1
				}
			]
		},
		{
			"name":"Cube.009",
			"primitives":[
				{
					"attributes":{
						"COLOR_0":58,
						"POSITION":59,
						"NORMAL":60,
						"TEXCOORD_0":61
					},
					"indices":31,
					"material":1
				}
			]
		},
		{
			"name":"Cube.010",
			"primitives":[
				{
					"attributes":{
						"COLOR_0":62,
						"POSITION":63,
						"NORMAL":64,
						"TEXCOORD_0":65
					},
					"indices":31,
					"material":1
				}
			]
		},
		{
			"name":"Cube.011",
			"primitives":[
				{
					"attributes":{
						"COLOR_0":66,
						"POSITION":67,
						"NORMAL":68,
						"TEXCOORD_0":69
					},
					"indices":31,
					"material":1
				}
			]
		},
		{
			"name":"Cube.013",
			"primitives":[
				{
					"attributes":{
						"COLOR_0":70,
						"POSITION":71,
						"NORMAL":72,
						"TEXCOORD_0":73
					},
					"indices":26,
					"material":1
				}
			]
		},
		{
			"name":"Cube.014",
			"primitives":[
				{
					"attributes":{
						"COLOR_0":74,
						"POSITION":75,
						"NORMAL":76,
						"TEXCOORD_0":77
					},
					"indices":26,
					"material":1
				}
			]
		},
		{
			"name":"Cube.020",
			"primitives":[
				{
					"attributes":{
						"COLOR_0":78,
						"POSITION":79,
						"NORMAL":80,
						"TEXCOORD_0":81
					},
					"indices":26,
					"material":1
				}
			]
		},
		{
			"name":"Cube.021",
			"primitives":[
				{
					"attributes":{
						"COLOR_0":82,
						"POSITION":83,
						"NORMAL":84,
						"TEXCOORD_0":85
					},
					"indices":26,
					"material":1
				}
			]
		},
		{
			"name":"Cube.022",
			"primitives":[
				{
					"attributes":{
						"COLOR_0":86,
						"POSITION":87,
						"NORMAL":88,
						"TEXCOORD_0":89
					},
					"indices":26,
					"material":1
				}
			]
		},
		{
			"name":"Cube.023",
			"primitives":[
				{
					"attributes":{
						"COLOR_0":90,
						"POSITION":91,
						"NORMAL":92,
						"TEXCOORD_0":93
					},
					"indices":26,
					"material":1
				}
			]
		},
		{
			"name":"Cube.024",
			"primitives":[
				{
					"attributes":{
						"COLOR_0":94,
						"POSITION":95,
						"NORMAL":96,
						"TEXCOORD_0":97
					},
					"indices":26,
					"material":1
				}
			]
		},
		{
			"name":"Cube.025",
			"primitives":[
				{
					"attributes":{
						"COLOR_0":98,
						"POSITION":99,
						"NORMAL":100,
						"TEXCOORD_0":101
					},
					"indices":26,
					"material":1
				}
			]
		},
		{
			"name":"Cube.026",
			"primitives":[
				{
					"attributes":{
						"COLOR_0":102,
						"POSITION":103,
						"NORMAL":104,
						"TEXCOORD_0":105
					},
					"indices":26,
					"material":1
				}
			]
		},
		{
			"name":"Cube.027",
			"primitives":[
				{
					"attributes":{
						"COLOR_0":106,
						"POSITION":107,
						"NORMAL":108,
						"TEXCOORD_0":109
					},
					"indices":26,
					"material":1
				}
			]
		},
		{
			"name":"Cube.028",
			"primitives":[
				{
					"attributes":{
						"COLOR_0":110,
						"POSITION":111,
						"NORMAL":112,
						"TEXCOORD_0":113
					},
					"indices":26,
					"material":1
				}
			]
		},
		{
			"name":"Cube.029",
			"primitives":[
				{
					"attributes":{
						"COLOR_0":114,
						"POSITION":115,
						"NORMAL":116,
						"TEXCOORD_0":117
					},
					"indices":26,
					"material":1
				}
			]
		},
		{
			"name":"Cube.030",
			"primitives":[
				{
					"attributes":{
						"COLOR_0":118,
						"POSITION":119,
						"NORMAL":120,
						"TEXCOORD_0":121
					},
					"indices":26,
					"material":1
				}
			]
		},
		{
			"name":"Icosphere.040",
			"primitives":[
				{
					"attributes":{
						"POSITION":122,
						"NORMAL":123,
						"TEXCOORD_0":124
					},
					"indices":125,
					"material":4
				}
			]
		},
		{
			"name":"Line.001",
			"primitives":[
				{
					"attributes":{
						"POSITION":126,
						"NORMAL":127,
						"TEXCOORD_0":128
					},
					"indices":129,
					"material":2
				}
			]
		},
		{
			"name":"Text.002",
			"primitives":[
				{
					"attributes":{
						"POSITION":130,
						"NORMAL":131,
						"TEXCOORD_0":132
					},
					"indices":133,
					"material":0
				}
			]
		},
		{
			"name":"Text.003",
			"primitives":[
				{
					"attributes":{
						"POSITION":134,
						"NORMAL":135,
						"TEXCOORD_0":136
					},
					"indices":137,
					"material":3
				},
				{
					"attributes":{
						"POSITION":138,
						"NORMAL":139,
						"TEXCOORD_0":140
					},
					"indices":141,
					"material":0
				}
			]
		},
		{
			"name":"Text.004",
			"primitives":[
				{
					"attributes":{
						"POSITION":142,
						"NORMAL":143,
						"TEXCOORD_0":144
					},
					"indices":3,
					"material":0
				}
			]
		},
		{
			"name":"Text.005",
			"primitives":[
				{
					"attributes":{
						"POSITION":145,
						"NORMAL":146,
						"TEXCOORD_0":147
					},
					"indices":148,
					"material":3
				},
				{
					"attributes":{
						"POSITION":149,
						"NORMAL":150,
						"TEXCOORD_0":151
					},
					"indices":7,
					"material":0
				}
			]
		}
	],
	"textures":[
		{
			"sampler":0,
			"source":0
		}
	],
	"images":[
		{
			"mimeType":"image/png",
			"name":"yaprak",
			"uri":"FSM-YaziTextur/yaprak.png"
		}
	],
	"accessors":[
		{
			"bufferView":0,
			"componentType":5126,
			"count":21880,
			"max":[
				2.030550479888916,
				0.7947194576263428,
				0.018237080425024033
			],
			"min":[
				-2.4571261405944824,
				-0.8902093768119812,
				-0.018237024545669556
			],
			"type":"VEC3"
		},
		{
			"bufferView":1,
			"componentType":5126,
			"count":21880,
			"type":"VEC3"
		},
		{
			"bufferView":2,
			"componentType":5126,
			"count":21880,
			"type":"VEC2"
		},
		{
			"bufferView":3,
			"componentType":5123,
			"count":61620,
			"type":"SCALAR"
		},
		{
			"bufferView":4,
			"componentType":5126,
			"count":9915,
			"max":[
				1.3878711462020874,
				0.19296757876873016,
				0.018955552950501442
			],
			"min":[
				-1.3219667673110962,
				-0.16642825305461884,
				-0.01895556040108204
			],
			"type":"VEC3"
		},
		{
			"bufferView":5,
			"componentType":5126,
			"count":9915,
			"type":"VEC3"
		},
		{
			"bufferView":6,
			"componentType":5126,
			"count":9915,
			"type":"VEC2"
		},
		{
			"bufferView":7,
			"componentType":5123,
			"count":29100,
			"type":"SCALAR"
		},
		{
			"bufferView":8,
			"componentType":5123,
			"count":1705,
			"normalized":true,
			"type":"VEC4"
		},
		{
			"bufferView":9,
			"componentType":5126,
			"count":1705,
			"max":[
				4.5398736000061035,
				1.4149214029312134,
				-0.00033595532295294106
			],
			"min":[
				-4.786625862121582,
				-1.2517088651657104,
				-0.0003363136202096939
			],
			"type":"VEC3"
		},
		{
			"bufferView":10,
			"componentType":5126,
			"count":1705,
			"type":"VEC3"
		},
		{
			"bufferView":11,
			"componentType":5126,
			"count":1705,
			"type":"VEC2"
		},
		{
			"bufferView":12,
			"componentType":5123,
			"count":5049,
			"type":"SCALAR"
		},
		{
			"bufferView":13,
			"componentType":5123,
			"count":9170,
			"normalized":true,
			"type":"VEC4"
		},
		{
			"bufferView":14,
			"componentType":5126,
			"count":9170,
			"max":[
				4.649859428405762,
				1.3774632215499878,
				0.004898198880255222
			],
			"min":[
				-4.649853706359863,
				-1.9705201387405396,
				-0.005570224020630121
			],
			"type":"VEC3"
		},
		{
			"bufferView":15,
			"componentType":5126,
			"count":9170,
			"type":"VEC3"
		},
		{
			"bufferView":16,
			"componentType":5126,
			"count":9170,
			"type":"VEC2"
		},
		{
			"bufferView":17,
			"componentType":5123,
			"count":45792,
			"type":"SCALAR"
		},
		{
			"bufferView":18,
			"componentType":5126,
			"count":1318,
			"max":[
				0.12957149744033813,
				0.21523001790046692,
				0.020522208884358406
			],
			"min":[
				-0.14995232224464417,
				-0.15833495557308197,
				-0.020522192120552063
			],
			"type":"VEC3"
		},
		{
			"bufferView":19,
			"componentType":5126,
			"count":1318,
			"type":"VEC3"
		},
		{
			"bufferView":20,
			"componentType":5126,
			"count":1318,
			"type":"VEC2"
		},
		{
			"bufferView":21,
			"componentType":5123,
			"count":3912,
			"type":"SCALAR"
		},
		{
			"bufferView":22,
			"componentType":5123,
			"count":155,
			"normalized":true,
			"type":"VEC4"
		},
		{
			"bufferView":23,
			"componentType":5126,
			"count":155,
			"max":[
				0.35872912406921387,
				0.17371702194213867,
				-0.00033612825791351497
			],
			"min":[
				-0.26873135566711426,
				-0.4171240031719208,
				-0.0003362076240591705
			],
			"type":"VEC3"
		},
		{
			"bufferView":24,
			"componentType":5126,
			"count":155,
			"type":"VEC3"
		},
		{
			"bufferView":25,
			"componentType":5126,
			"count":155,
			"type":"VEC2"
		},
		{
			"bufferView":26,
			"componentType":5123,
			"count":459,
			"type":"SCALAR"
		},
		{
			"bufferView":27,
			"componentType":5123,
			"count":155,
			"normalized":true,
			"type":"VEC4"
		},
		{
			"bufferView":28,
			"componentType":5126,
			"count":155,
			"max":[
				0.2687385082244873,
				0.18238615989685059,
				-0.0003361269773449749
			],
			"min":[
				-0.3587226867675781,
				-0.40845486521720886,
				-0.0003362063434906304
			],
			"type":"VEC3"
		},
		{
			"bufferView":29,
			"componentType":5126,
			"count":155,
			"type":"VEC3"
		},
		{
			"bufferView":30,
			"componentType":5126,
			"count":155,
			"type":"VEC2"
		},
		{
			"bufferView":31,
			"componentType":5123,
			"count":459,
			"type":"SCALAR"
		},
		{
			"bufferView":32,
			"componentType":5123,
			"count":2520,
			"normalized":true,
			"type":"VEC4"
		},
		{
			"bufferView":33,
			"componentType":5126,
			"count":2520,
			"max":[
				0.47715598344802856,
				0.043505989015102386,
				0.07200939208269119
			],
			"min":[
				-0.40588194131851196,
				-1.2940901517868042,
				-0.15602850914001465
			],
			"type":"VEC3"
		},
		{
			"bufferView":34,
			"componentType":5126,
			"count":2520,
			"type":"VEC3"
		},
		{
			"bufferView":35,
			"componentType":5126,
			"count":2520,
			"type":"VEC2"
		},
		{
			"bufferView":36,
			"componentType":5123,
			"count":9600,
			"type":"SCALAR"
		},
		{
			"bufferView":37,
			"componentType":5123,
			"count":2520,
			"normalized":true,
			"type":"VEC4"
		},
		{
			"bufferView":38,
			"componentType":5126,
			"count":2520,
			"max":[
				0.40588903427124023,
				0.03608137369155884,
				0.07458077371120453
			],
			"min":[
				-0.47714877128601074,
				-1.3015146255493164,
				-0.15345704555511475
			],
			"type":"VEC3"
		},
		{
			"bufferView":39,
			"componentType":5126,
			"count":2520,
			"type":"VEC3"
		},
		{
			"bufferView":40,
			"componentType":5126,
			"count":2520,
			"type":"VEC2"
		},
		{
			"bufferView":41,
			"componentType":5123,
			"count":9600,
			"type":"SCALAR"
		},
		{
			"bufferView":42,
			"componentType":5123,
			"count":155,
			"normalized":true,
			"type":"VEC4"
		},
		{
			"bufferView":43,
			"componentType":5126,
			"count":155,
			"max":[
				0.32250499725341797,
				0.17286264896392822,
				-0.0003361100680194795
			],
			"min":[
				-0.2025613784790039,
				-0.3795562982559204,
				-0.0003361842827871442
			],
			"type":"VEC3"
		},
		{
			"bufferView":44,
			"componentType":5126,
			"count":155,
			"type":"VEC3"
		},
		{
			"bufferView":45,
			"componentType":5126,
			"count":155,
			"type":"VEC2"
		},
		{
			"bufferView":46,
			"componentType":5123,
			"count":155,
			"normalized":true,
			"type":"VEC4"
		},
		{
			"bufferView":47,
			"componentType":5126,
			"count":155,
			"max":[
				0.3327209949493408,
				0.3473820686340332,
				-0.0003361095441505313
			],
			"min":[
				-0.6617677211761475,
				-0.5662989616394043,
				-0.0003362323041073978
			],
			"type":"VEC3"
		},
		{
			"bufferView":48,
			"componentType":5126,
			"count":155,
			"type":"VEC3"
		},
		{
			"bufferView":49,
			"componentType":5126,
			"count":155,
			"type":"VEC2"
		},
		{
			"bufferView":50,
			"componentType":5123,
			"count":155,
			"normalized":true,
			"type":"VEC4"
		},
		{
			"bufferView":51,
			"componentType":5126,
			"count":155,
			"max":[
				0.33583974838256836,
				0.27562713623046875,
				-0.0003361160052008927
			],
			"min":[
				-0.09948873519897461,
				-0.1841132640838623,
				-0.00033617779263295233
			],
			"type":"VEC3"
		},
		{
			"bufferView":52,
			"componentType":5126,
			"count":155,
			"type":"VEC3"
		},
		{
			"bufferView":53,
			"componentType":5126,
			"count":155,
			"type":"VEC2"
		},
		{
			"bufferView":54,
			"componentType":5123,
			"count":155,
			"normalized":true,
			"type":"VEC4"
		},
		{
			"bufferView":55,
			"componentType":5126,
			"count":155,
			"max":[
				0.2868950366973877,
				0.18174338340759277,
				-0.00033613311825320125
			],
			"min":[
				-0.09514307975769043,
				-0.229201078414917,
				-0.00033618832821957767
			],
			"type":"VEC3"
		},
		{
			"bufferView":56,
			"componentType":5126,
			"count":155,
			"type":"VEC3"
		},
		{
			"bufferView":57,
			"componentType":5126,
			"count":155,
			"type":"VEC2"
		},
		{
			"bufferView":58,
			"componentType":5123,
			"count":155,
			"normalized":true,
			"type":"VEC4"
		},
		{
			"bufferView":59,
			"componentType":5126,
			"count":155,
			"max":[
				0.18977972865104675,
				0.16162490844726562,
				-0.00033611166873015463
			],
			"min":[
				-0.33528658747673035,
				-0.390794038772583,
				-0.0003361858834978193
			],
			"type":"VEC3"
		},
		{
			"bufferView":60,
			"componentType":5126,
			"count":155,
			"type":"VEC3"
		},
		{
			"bufferView":61,
			"componentType":5126,
			"count":155,
			"type":"VEC2"
		},
		{
			"bufferView":62,
			"componentType":5123,
			"count":155,
			"normalized":true,
			"type":"VEC4"
		},
		{
			"bufferView":63,
			"componentType":5126,
			"count":155,
			"max":[
				0.3643367290496826,
				0.4283890724182129,
				-0.0003360979026183486
			],
			"min":[
				-0.2672734260559082,
				-0.16033935546875,
				-0.00033617700682953
			],
			"type":"VEC3"
		},
		{
			"bufferView":64,
			"componentType":5126,
			"count":155,
			"type":"VEC3"
		},
		{
			"bufferView":65,
			"componentType":5126,
			"count":155,
			"type":"VEC2"
		},
		{
			"bufferView":66,
			"componentType":5123,
			"count":155,
			"normalized":true,
			"type":"VEC4"
		},
		{
			"bufferView":67,
			"componentType":5126,
			"count":155,
			"max":[
				0.6645324230194092,
				0.34166669845581055,
				-0.000336110417265445
			],
			"min":[
				-0.3299565315246582,
				-0.572014331817627,
				-0.0003362331772223115
			],
			"type":"VEC3"
		},
		{
			"bufferView":68,
			"componentType":5126,
			"count":155,
			"type":"VEC3"
		},
		{
			"bufferView":69,
			"componentType":5126,
			"count":155,
			"type":"VEC2"
		},
		{
			"bufferView":70,
			"componentType":5123,
			"count":155,
			"normalized":true,
			"type":"VEC4"
		},
		{
			"bufferView":71,
			"componentType":5126,
			"count":155,
			"max":[
				0.3365802764892578,
				0.1364908516407013,
				-0.0003361276467330754
			],
			"min":[
				-0.19733572006225586,
				-0.40514835715293884,
				-0.0003362004063092172
			],
			"type":"VEC3"
		},
		{
			"bufferView":72,
			"componentType":5126,
			"count":155,
			"type":"VEC3"
		},
		{
			"bufferView":73,
			"componentType":5126,
			"count":155,
			"type":"VEC2"
		},
		{
			"bufferView":74,
			"componentType":5123,
			"count":155,
			"normalized":true,
			"type":"VEC4"
		},
		{
			"bufferView":75,
			"componentType":5126,
			"count":155,
			"max":[
				0.11725521087646484,
				0.11654472351074219,
				-0.0003361192357260734
			],
			"min":[
				-0.3188285827636719,
				-0.27799010276794434,
				-0.00033617226290516555
			],
			"type":"VEC3"
		},
		{
			"bufferView":76,
			"componentType":5126,
			"count":155,
			"type":"VEC3"
		},
		{
			"bufferView":77,
			"componentType":5126,
			"count":155,
			"type":"VEC2"
		},
		{
			"bufferView":78,
			"componentType":5123,
			"count":155,
			"normalized":true,
			"type":"VEC4"
		},
		{
			"bufferView":79,
			"componentType":5126,
			"count":155,
			"max":[
				3.7373759746551514,
				0.8669785857200623,
				1.164862126756816e-07
			],
			"min":[
				3.2123098373413086,
				0.3145596981048584,
				4.2263863520020095e-08
			],
			"type":"VEC3"
		},
		{
			"bufferView":80,
			"componentType":5126,
			"count":155,
			"type":"VEC3"
		},
		{
			"bufferView":81,
			"componentType":5126,
			"count":155,
			"type":"VEC2"
		},
		{
			"bufferView":82,
			"componentType":5123,
			"count":155,
			"normalized":true,
			"type":"VEC4"
		},
		{
			"bufferView":83,
			"componentType":5126,
			"count":155,
			"max":[
				0.2445676326751709,
				0.27716565132141113,
				3.723967267887929e-08
			],
			"min":[
				-0.2804985046386719,
				-0.2752532362937927,
				-3.698267647678222e-08
			],
			"type":"VEC3"
		},
		{
			"bufferView":84,
			"componentType":5126,
			"count":155,
			"type":"VEC3"
		},
		{
			"bufferView":85,
			"componentType":5126,
			"count":155,
			"type":"VEC2"
		},
		{
			"bufferView":86,
			"componentType":5123,
			"count":155,
			"normalized":true,
			"type":"VEC4"
		},
		{
			"bufferView":87,
			"componentType":5126,
			"count":155,
			"max":[
				0.2445676326751709,
				0.27716565132141113,
				3.723967267887929e-08
			],
			"min":[
				-0.2804985046386719,
				-0.2752532362937927,
				-3.698267647678222e-08
			],
			"type":"VEC3"
		},
		{
			"bufferView":88,
			"componentType":5126,
			"count":155,
			"type":"VEC3"
		},
		{
			"bufferView":89,
			"componentType":5126,
			"count":155,
			"type":"VEC2"
		},
		{
			"bufferView":90,
			"componentType":5123,
			"count":155,
			"normalized":true,
			"type":"VEC4"
		},
		{
			"bufferView":91,
			"componentType":5126,
			"count":155,
			"max":[
				0.2445676326751709,
				0.27716565132141113,
				3.723967267887929e-08
			],
			"min":[
				-0.2804985046386719,
				-0.2752532362937927,
				-3.698267647678222e-08
			],
			"type":"VEC3"
		},
		{
			"bufferView":92,
			"componentType":5126,
			"count":155,
			"type":"VEC3"
		},
		{
			"bufferView":93,
			"componentType":5126,
			"count":155,
			"type":"VEC2"
		},
		{
			"bufferView":94,
			"componentType":5123,
			"count":155,
			"normalized":true,
			"type":"VEC4"
		},
		{
			"bufferView":95,
			"componentType":5126,
			"count":155,
			"max":[
				0.2445676326751709,
				0.27716565132141113,
				3.723967267887929e-08
			],
			"min":[
				-0.2804985046386719,
				-0.2752532362937927,
				-3.698267647678222e-08
			],
			"type":"VEC3"
		},
		{
			"bufferView":96,
			"componentType":5126,
			"count":155,
			"type":"VEC3"
		},
		{
			"bufferView":97,
			"componentType":5126,
			"count":155,
			"type":"VEC2"
		},
		{
			"bufferView":98,
			"componentType":5123,
			"count":155,
			"normalized":true,
			"type":"VEC4"
		},
		{
			"bufferView":99,
			"componentType":5126,
			"count":155,
			"max":[
				0.2445676326751709,
				0.27716565132141113,
				3.723967267887929e-08
			],
			"min":[
				-0.2804985046386719,
				-0.2752532362937927,
				-3.698267647678222e-08
			],
			"type":"VEC3"
		},
		{
			"bufferView":100,
			"componentType":5126,
			"count":155,
			"type":"VEC3"
		},
		{
			"bufferView":101,
			"componentType":5126,
			"count":155,
			"type":"VEC2"
		},
		{
			"bufferView":102,
			"componentType":5123,
			"count":155,
			"normalized":true,
			"type":"VEC4"
		},
		{
			"bufferView":103,
			"componentType":5126,
			"count":155,
			"max":[
				0.2445676326751709,
				0.27716565132141113,
				3.723967267887929e-08
			],
			"min":[
				-0.2804985046386719,
				-0.2752532362937927,
				-3.698267647678222e-08
			],
			"type":"VEC3"
		},
		{
			"bufferView":104,
			"componentType":5126,
			"count":155,
			"type":"VEC3"
		},
		{
			"bufferView":105,
			"componentType":5126,
			"count":155,
			"type":"VEC2"
		},
		{
			"bufferView":106,
			"componentType":5123,
			"count":155,
			"normalized":true,
			"type":"VEC4"
		},
		{
			"bufferView":107,
			"componentType":5126,
			"count":155,
			"max":[
				0.2445676326751709,
				0.27716565132141113,
				3.723967267887929e-08
			],
			"min":[
				-0.2804985046386719,
				-0.2752532362937927,
				-3.698267647678222e-08
			],
			"type":"VEC3"
		},
		{
			"bufferView":108,
			"componentType":5126,
			"count":155,
			"type":"VEC3"
		},
		{
			"bufferView":109,
			"componentType":5126,
			"count":155,
			"type":"VEC2"
		},
		{
			"bufferView":110,
			"componentType":5123,
			"count":155,
			"normalized":true,
			"type":"VEC4"
		},
		{
			"bufferView":111,
			"componentType":5126,
			"count":155,
			"max":[
				0.2445676326751709,
				0.27716565132141113,
				3.723967267887929e-08
			],
			"min":[
				-0.2804985046386719,
				-0.2752532362937927,
				-3.698267647678222e-08
			],
			"type":"VEC3"
		},
		{
			"bufferView":112,
			"componentType":5126,
			"count":155,
			"type":"VEC3"
		},
		{
			"bufferView":113,
			"componentType":5126,
			"count":155,
			"type":"VEC2"
		},
		{
			"bufferView":114,
			"componentType":5123,
			"count":155,
			"normalized":true,
			"type":"VEC4"
		},
		{
			"bufferView":115,
			"componentType":5126,
			"count":155,
			"max":[
				0.2445676326751709,
				0.27716565132141113,
				3.723967267887929e-08
			],
			"min":[
				-0.2804985046386719,
				-0.2752532362937927,
				-3.698267647678222e-08
			],
			"type":"VEC3"
		},
		{
			"bufferView":116,
			"componentType":5126,
			"count":155,
			"type":"VEC3"
		},
		{
			"bufferView":117,
			"componentType":5126,
			"count":155,
			"type":"VEC2"
		},
		{
			"bufferView":118,
			"componentType":5123,
			"count":155,
			"normalized":true,
			"type":"VEC4"
		},
		{
			"bufferView":119,
			"componentType":5126,
			"count":155,
			"max":[
				0.2445676326751709,
				0.27716565132141113,
				3.723967267887929e-08
			],
			"min":[
				-0.2804985046386719,
				-0.2752532362937927,
				-3.698267647678222e-08
			],
			"type":"VEC3"
		},
		{
			"bufferView":120,
			"componentType":5126,
			"count":155,
			"type":"VEC3"
		},
		{
			"bufferView":121,
			"componentType":5126,
			"count":155,
			"type":"VEC2"
		},
		{
			"bufferView":122,
			"componentType":5126,
			"count":2636,
			"max":[
				4.440441608428955,
				12.974305152893066,
				1.44302237033844
			],
			"min":[
				-5.525650501251221,
				-2.1220030784606934,
				-1.130645751953125
			],
			"type":"VEC3"
		},
		{
			"bufferView":123,
			"componentType":5126,
			"count":2636,
			"type":"VEC3"
		},
		{
			"bufferView":124,
			"componentType":5126,
			"count":2636,
			"type":"VEC2"
		},
		{
			"bufferView":125,
			"componentType":5123,
			"count":9600,
			"type":"SCALAR"
		},
		{
			"bufferView":126,
			"componentType":5126,
			"count":4585,
			"max":[
				3.708308696746826,
				3.2188899517059326,
				0.0052345916628837585
			],
			"min":[
				1.1252856254577637,
				-0.12909358739852905,
				-0.005233831703662872
			],
			"type":"VEC3"
		},
		{
			"bufferView":127,
			"componentType":5126,
			"count":4585,
			"type":"VEC3"
		},
		{
			"bufferView":128,
			"componentType":5126,
			"count":4585,
			"type":"VEC2"
		},
		{
			"bufferView":129,
			"componentType":5123,
			"count":22896,
			"type":"SCALAR"
		},
		{
			"bufferView":130,
			"componentType":5126,
			"count":21860,
			"max":[
				3.703557252883911,
				0.030000053346157074,
				-0.3488709032535553
			],
			"min":[
				-3.678708076477051,
				-0.030000071972608566,
				-3.1205928325653076
			],
			"type":"VEC3"
		},
		{
			"bufferView":131,
			"componentType":5126,
			"count":21860,
			"type":"VEC3"
		},
		{
			"bufferView":132,
			"componentType":5126,
			"count":21860,
			"type":"VEC2"
		},
		{
			"bufferView":133,
			"componentType":5123,
			"count":61620,
			"type":"SCALAR"
		},
		{
			"bufferView":134,
			"componentType":5126,
			"count":1308,
			"max":[
				0.7021052837371826,
				0.03247953578829765,
				0.03129075467586517
			],
			"min":[
				0.2597169280052185,
				-0.03247939795255661,
				-0.5599318146705627
			],
			"type":"VEC3"
		},
		{
			"bufferView":135,
			"componentType":5126,
			"count":1308,
			"type":"VEC3"
		},
		{
			"bufferView":136,
			"componentType":5126,
			"count":1308,
			"type":"VEC2"
		},
		{
			"bufferView":137,
			"componentType":5123,
			"count":3912,
			"type":"SCALAR"
		},
		{
			"bufferView":138,
			"componentType":5126,
			"count":9738,
			"max":[
				2.352293014526367,
				0.029999999329447746,
				0.02883947268128395
			],
			"min":[
				-1.936431884765625,
				-0.029999999329447746,
				-0.5399582982063293
			],
			"type":"VEC3"
		},
		{
			"bufferView":139,
			"componentType":5126,
			"count":9738,
			"type":"VEC3"
		},
		{
			"bufferView":140,
			"componentType":5126,
			"count":9738,
			"type":"VEC2"
		},
		{
			"bufferView":141,
			"componentType":5123,
			"count":29100,
			"type":"SCALAR"
		},
		{
			"bufferView":142,
			"componentType":5126,
			"count":21880,
			"max":[
				2.030550479888916,
				0.7947194576263428,
				0.018237080425024033
			],
			"min":[
				-2.4571261405944824,
				-0.8902093768119812,
				-0.018237024545669556
			],
			"type":"VEC3"
		},
		{
			"bufferView":143,
			"componentType":5126,
			"count":21880,
			"type":"VEC3"
		},
		{
			"bufferView":144,
			"componentType":5126,
			"count":21880,
			"type":"VEC2"
		},
		{
			"bufferView":145,
			"componentType":5126,
			"count":1322,
			"max":[
				0.34519723057746887,
				0.20558787882328033,
				0.020522240549325943
			],
			"min":[
				0.06567341834306717,
				-0.16797709465026855,
				-0.020522160455584526
			],
			"type":"VEC3"
		},
		{
			"bufferView":146,
			"componentType":5126,
			"count":1322,
			"type":"VEC3"
		},
		{
			"bufferView":147,
			"componentType":5126,
			"count":1322,
			"type":"VEC2"
		},
		{
			"bufferView":148,
			"componentType":5123,
			"count":3912,
			"type":"SCALAR"
		},
		{
			"bufferView":149,
			"componentType":5126,
			"count":9915,
			"max":[
				1.3878711462020874,
				0.19296757876873016,
				0.018955552950501442
			],
			"min":[
				-1.3219667673110962,
				-0.16642825305461884,
				-0.01895556040108204
			],
			"type":"VEC3"
		},
		{
			"bufferView":150,
			"componentType":5126,
			"count":9915,
			"type":"VEC3"
		},
		{
			"bufferView":151,
			"componentType":5126,
			"count":9915,
			"type":"VEC2"
		},
		{
			"bufferView":152,
			"componentType":5126,
			"count":2,
			"max":[
				6.666666666666667
			],
			"min":[
				0
			],
			"type":"SCALAR"
		},
		{
			"bufferView":153,
			"componentType":5126,
			"count":2,
			"type":"VEC3"
		},
		{
			"bufferView":154,
			"componentType":5126,
			"count":161,
			"max":[
				6.666666666666667
			],
			"min":[
				0
			],
			"type":"SCALAR"
		},
		{
			"bufferView":155,
			"componentType":5126,
			"count":161,
			"type":"VEC4"
		},
		{
			"bufferView":156,
			"componentType":5126,
			"count":2,
			"type":"VEC3"
		},
		{
			"bufferView":157,
			"componentType":5126,
			"count":2,
			"max":[
				8.333333333333334
			],
			"min":[
				0.041666666666666664
			],
			"type":"SCALAR"
		},
		{
			"bufferView":158,
			"componentType":5126,
			"count":2,
			"type":"VEC3"
		},
		{
			"bufferView":159,
			"componentType":5126,
			"count":200,
			"max":[
				8.333333333333334
			],
			"min":[
				0.041666666666666664
			],
			"type":"SCALAR"
		},
		{
			"bufferView":160,
			"componentType":5126,
			"count":200,
			"type":"VEC4"
		},
		{
			"bufferView":161,
			"componentType":5126,
			"count":2,
			"type":"VEC3"
		},
		{
			"bufferView":162,
			"componentType":5126,
			"count":2,
			"max":[
				8.375
			],
			"min":[
				0
			],
			"type":"SCALAR"
		},
		{
			"bufferView":163,
			"componentType":5126,
			"count":2,
			"type":"VEC3"
		},
		{
			"bufferView":164,
			"componentType":5126,
			"count":202,
			"max":[
				8.375
			],
			"min":[
				0
			],
			"type":"SCALAR"
		},
		{
			"bufferView":165,
			"componentType":5126,
			"count":202,
			"type":"VEC4"
		},
		{
			"bufferView":166,
			"componentType":5126,
			"count":2,
			"type":"VEC3"
		},
		{
			"bufferView":167,
			"componentType":5126,
			"count":2,
			"max":[
				6.666666666666667
			],
			"min":[
				0.041666666666666664
			],
			"type":"SCALAR"
		},
		{
			"bufferView":168,
			"componentType":5126,
			"count":2,
			"type":"VEC3"
		},
		{
			"bufferView":169,
			"componentType":5126,
			"count":160,
			"max":[
				6.666666666666667
			],
			"min":[
				0.041666666666666664
			],
			"type":"SCALAR"
		},
		{
			"bufferView":170,
			"componentType":5126,
			"count":160,
			"type":"VEC4"
		},
		{
			"bufferView":171,
			"componentType":5126,
			"count":2,
			"type":"VEC3"
		},
		{
			"bufferView":172,
			"componentType":5126,
			"count":2,
			"type":"VEC3"
		},
		{
			"bufferView":173,
			"componentType":5126,
			"count":200,
			"type":"VEC4"
		},
		{
			"bufferView":174,
			"componentType":5126,
			"count":2,
			"type":"VEC3"
		},
		{
			"bufferView":175,
			"componentType":5126,
			"count":2,
			"max":[
				8.333333333333334
			],
			"min":[
				0
			],
			"type":"SCALAR"
		},
		{
			"bufferView":176,
			"componentType":5126,
			"count":2,
			"type":"VEC3"
		},
		{
			"bufferView":177,
			"componentType":5126,
			"count":201,
			"max":[
				8.333333333333334
			],
			"min":[
				0
			],
			"type":"SCALAR"
		},
		{
			"bufferView":178,
			"componentType":5126,
			"count":201,
			"type":"VEC4"
		},
		{
			"bufferView":179,
			"componentType":5126,
			"count":2,
			"type":"VEC3"
		},
		{
			"bufferView":180,
			"componentType":5126,
			"count":2,
			"type":"VEC3"
		},
		{
			"bufferView":181,
			"componentType":5126,
			"count":200,
			"type":"VEC4"
		},
		{
			"bufferView":182,
			"componentType":5126,
			"count":2,
			"type":"VEC3"
		},
		{
			"bufferView":183,
			"componentType":5126,
			"count":2,
			"type":"VEC3"
		},
		{
			"bufferView":184,
			"componentType":5126,
			"count":201,
			"type":"VEC4"
		},
		{
			"bufferView":185,
			"componentType":5126,
			"count":2,
			"type":"VEC3"
		},
		{
			"bufferView":186,
			"componentType":5126,
			"count":2,
			"max":[
				9.166666666666666
			],
			"min":[
				0.041666666666666664
			],
			"type":"SCALAR"
		},
		{
			"bufferView":187,
			"componentType":5126,
			"count":2,
			"type":"VEC3"
		},
		{
			"bufferView":188,
			"componentType":5126,
			"count":220,
			"max":[
				9.166666666666666
			],
			"min":[
				0.041666666666666664
			],
			"type":"SCALAR"
		},
		{
			"bufferView":189,
			"componentType":5126,
			"count":220,
			"type":"VEC4"
		},
		{
			"bufferView":190,
			"componentType":5126,
			"count":2,
			"type":"VEC3"
		},
		{
			"bufferView":191,
			"componentType":5126,
			"count":2,
			"type":"VEC3"
		},
		{
			"bufferView":192,
			"componentType":5126,
			"count":200,
			"type":"VEC4"
		},
		{
			"bufferView":193,
			"componentType":5126,
			"count":2,
			"type":"VEC3"
		},
		{
			"bufferView":194,
			"componentType":5126,
			"count":2,
			"type":"VEC3"
		},
		{
			"bufferView":195,
			"componentType":5126,
			"count":201,
			"type":"VEC4"
		},
		{
			"bufferView":196,
			"componentType":5126,
			"count":201,
			"type":"VEC3"
		},
		{
			"bufferView":197,
			"componentType":5126,
			"count":2,
			"type":"VEC3"
		},
		{
			"bufferView":198,
			"componentType":5126,
			"count":200,
			"type":"VEC4"
		},
		{
			"bufferView":199,
			"componentType":5126,
			"count":2,
			"type":"VEC3"
		},
		{
			"bufferView":200,
			"componentType":5126,
			"count":2,
			"type":"VEC3"
		},
		{
			"bufferView":201,
			"componentType":5126,
			"count":201,
			"type":"VEC4"
		},
		{
			"bufferView":202,
			"componentType":5126,
			"count":2,
			"type":"VEC3"
		}
	],
	"bufferViews":[
		{
			"buffer":0,
			"byteLength":262560,
			"byteOffset":0,
			"target":34962
		},
		{
			"buffer":0,
			"byteLength":262560,
			"byteOffset":262560,
			"target":34962
		},
		{
			"buffer":0,
			"byteLength":175040,
			"byteOffset":525120,
			"target":34962
		},
		{
			"buffer":0,
			"byteLength":123240,
			"byteOffset":700160,
			"target":34963
		},
		{
			"buffer":0,
			"byteLength":118980,
			"byteOffset":823400,
			"target":34962
		},
		{
			"buffer":0,
			"byteLength":118980,
			"byteOffset":942380,
			"target":34962
		},
		{
			"buffer":0,
			"byteLength":79320,
			"byteOffset":1061360,
			"target":34962
		},
		{
			"buffer":0,
			"byteLength":58200,
			"byteOffset":1140680,
			"target":34963
		},
		{
			"buffer":0,
			"byteLength":13640,
			"byteOffset":1198880,
			"target":34962
		},
		{
			"buffer":0,
			"byteLength":20460,
			"byteOffset":1212520,
			"target":34962
		},
		{
			"buffer":0,
			"byteLength":20460,
			"byteOffset":1232980,
			"target":34962
		},
		{
			"buffer":0,
			"byteLength":13640,
			"byteOffset":1253440,
			"target":34962
		},
		{
			"buffer":0,
			"byteLength":10098,
			"byteOffset":1267080,
			"target":34963
		},
		{
			"buffer":0,
			"byteLength":73360,
			"byteOffset":1277180,
			"target":34962
		},
		{
			"buffer":0,
			"byteLength":110040,
			"byteOffset":1350540,
			"target":34962
		},
		{
			"buffer":0,
			"byteLength":110040,
			"byteOffset":1460580,
			"target":34962
		},
		{
			"buffer":0,
			"byteLength":73360,
			"byteOffset":1570620,
			"target":34962
		},
		{
			"buffer":0,
			"byteLength":91584,
			"byteOffset":1643980,
			"target":34963
		},
		{
			"buffer":0,
			"byteLength":15816,
			"byteOffset":1735564,
			"target":34962
		},
		{
			"buffer":0,
			"byteLength":15816,
			"byteOffset":1751380,
			"target":34962
		},
		{
			"buffer":0,
			"byteLength":10544,
			"byteOffset":1767196,
			"target":34962
		},
		{
			"buffer":0,
			"byteLength":7824,
			"byteOffset":1777740,
			"target":34963
		},
		{
			"buffer":0,
			"byteLength":1240,
			"byteOffset":1785564,
			"target":34962
		},
		{
			"buffer":0,
			"byteLength":1860,
			"byteOffset":1786804,
			"target":34962
		},
		{
			"buffer":0,
			"byteLength":1860,
			"byteOffset":1788664,
			"target":34962
		},
		{
			"buffer":0,
			"byteLength":1240,
			"byteOffset":1790524,
			"target":34962
		},
		{
			"buffer":0,
			"byteLength":918,
			"byteOffset":1791764,
			"target":34963
		},
		{
			"buffer":0,
			"byteLength":1240,
			"byteOffset":1792684,
			"target":34962
		},
		{
			"buffer":0,
			"byteLength":1860,
			"byteOffset":1793924,
			"target":34962
		},
		{
			"buffer":0,
			"byteLength":1860,
			"byteOffset":1795784,
			"target":34962
		},
		{
			"buffer":0,
			"byteLength":1240,
			"byteOffset":1797644,
			"target":34962
		},
		{
			"buffer":0,
			"byteLength":918,
			"byteOffset":1798884,
			"target":34963
		},
		{
			"buffer":0,
			"byteLength":20160,
			"byteOffset":1799804,
			"target":34962
		},
		{
			"buffer":0,
			"byteLength":30240,
			"byteOffset":1819964,
			"target":34962
		},
		{
			"buffer":0,
			"byteLength":30240,
			"byteOffset":1850204,
			"target":34962
		},
		{
			"buffer":0,
			"byteLength":20160,
			"byteOffset":1880444,
			"target":34962
		},
		{
			"buffer":0,
			"byteLength":19200,
			"byteOffset":1900604,
			"target":34963
		},
		{
			"buffer":0,
			"byteLength":20160,
			"byteOffset":1919804,
			"target":34962
		},
		{
			"buffer":0,
			"byteLength":30240,
			"byteOffset":1939964,
			"target":34962
		},
		{
			"buffer":0,
			"byteLength":30240,
			"byteOffset":1970204,
			"target":34962
		},
		{
			"buffer":0,
			"byteLength":20160,
			"byteOffset":2000444,
			"target":34962
		},
		{
			"buffer":0,
			"byteLength":19200,
			"byteOffset":2020604,
			"target":34963
		},
		{
			"buffer":0,
			"byteLength":1240,
			"byteOffset":2039804,
			"target":34962
		},
		{
			"buffer":0,
			"byteLength":1860,
			"byteOffset":2041044,
			"target":34962
		},
		{
			"buffer":0,
			"byteLength":1860,
			"byteOffset":2042904,
			"target":34962
		},
		{
			"buffer":0,
			"byteLength":1240,
			"byteOffset":2044764,
			"target":34962
		},
		{
			"buffer":0,
			"byteLength":1240,
			"byteOffset":2046004,
			"target":34962
		},
		{
			"buffer":0,
			"byteLength":1860,
			"byteOffset":2047244,
			"target":34962
		},
		{
			"buffer":0,
			"byteLength":1860,
			"byteOffset":2049104,
			"target":34962
		},
		{
			"buffer":0,
			"byteLength":1240,
			"byteOffset":2050964,
			"target":34962
		},
		{
			"buffer":0,
			"byteLength":1240,
			"byteOffset":2052204,
			"target":34962
		},
		{
			"buffer":0,
			"byteLength":1860,
			"byteOffset":2053444,
			"target":34962
		},
		{
			"buffer":0,
			"byteLength":1860,
			"byteOffset":2055304,
			"target":34962
		},
		{
			"buffer":0,
			"byteLength":1240,
			"byteOffset":2057164,
			"target":34962
		},
		{
			"buffer":0,
			"byteLength":1240,
			"byteOffset":2058404,
			"target":34962
		},
		{
			"buffer":0,
			"byteLength":1860,
			"byteOffset":2059644,
			"target":34962
		},
		{
			"buffer":0,
			"byteLength":1860,
			"byteOffset":2061504,
			"target":34962
		},
		{
			"buffer":0,
			"byteLength":1240,
			"byteOffset":2063364,
			"target":34962
		},
		{
			"buffer":0,
			"byteLength":1240,
			"byteOffset":2064604,
			"target":34962
		},
		{
			"buffer":0,
			"byteLength":1860,
			"byteOffset":2065844,
			"target":34962
		},
		{
			"buffer":0,
			"byteLength":1860,
			"byteOffset":2067704,
			"target":34962
		},
		{
			"buffer":0,
			"byteLength":1240,
			"byteOffset":2069564,
			"target":34962
		},
		{
			"buffer":0,
			"byteLength":1240,
			"byteOffset":2070804,
			"target":34962
		},
		{
			"buffer":0,
			"byteLength":1860,
			"byteOffset":2072044,
			"target":34962
		},
		{
			"buffer":0,
			"byteLength":1860,
			"byteOffset":2073904,
			"target":34962
		},
		{
			"buffer":0,
			"byteLength":1240,
			"byteOffset":2075764,
			"target":34962
		},
		{
			"buffer":0,
			"byteLength":1240,
			"byteOffset":2077004,
			"target":34962
		},
		{
			"buffer":0,
			"byteLength":1860,
			"byteOffset":2078244,
			"target":34962
		},
		{
			"buffer":0,
			"byteLength":1860,
			"byteOffset":2080104,
			"target":34962
		},
		{
			"buffer":0,
			"byteLength":1240,
			"byteOffset":2081964,
			"target":34962
		},
		{
			"buffer":0,
			"byteLength":1240,
			"byteOffset":2083204,
			"target":34962
		},
		{
			"buffer":0,
			"byteLength":1860,
			"byteOffset":2084444,
			"target":34962
		},
		{
			"buffer":0,
			"byteLength":1860,
			"byteOffset":2086304,
			"target":34962
		},
		{
			"buffer":0,
			"byteLength":1240,
			"byteOffset":2088164,
			"target":34962
		},
		{
			"buffer":0,
			"byteLength":1240,
			"byteOffset":2089404,
			"target":34962
		},
		{
			"buffer":0,
			"byteLength":1860,
			"byteOffset":2090644,
			"target":34962
		},
		{
			"buffer":0,
			"byteLength":1860,
			"byteOffset":2092504,
			"target":34962
		},
		{
			"buffer":0,
			"byteLength":1240,
			"byteOffset":2094364,
			"target":34962
		},
		{
			"buffer":0,
			"byteLength":1240,
			"byteOffset":2095604,
			"target":34962
		},
		{
			"buffer":0,
			"byteLength":1860,
			"byteOffset":2096844,
			"target":34962
		},
		{
			"buffer":0,
			"byteLength":1860,
			"byteOffset":2098704,
			"target":34962
		},
		{
			"buffer":0,
			"byteLength":1240,
			"byteOffset":2100564,
			"target":34962
		},
		{
			"buffer":0,
			"byteLength":1240,
			"byteOffset":2101804,
			"target":34962
		},
		{
			"buffer":0,
			"byteLength":1860,
			"byteOffset":2103044,
			"target":34962
		},
		{
			"buffer":0,
			"byteLength":1860,
			"byteOffset":2104904,
			"target":34962
		},
		{
			"buffer":0,
			"byteLength":1240,
			"byteOffset":2106764,
			"target":34962
		},
		{
			"buffer":0,
			"byteLength":1240,
			"byteOffset":2108004,
			"target":34962
		},
		{
			"buffer":0,
			"byteLength":1860,
			"byteOffset":2109244,
			"target":34962
		},
		{
			"buffer":0,
			"byteLength":1860,
			"byteOffset":2111104,
			"target":34962
		},
		{
			"buffer":0,
			"byteLength":1240,
			"byteOffset":2112964,
			"target":34962
		},
		{
			"buffer":0,
			"byteLength":1240,
			"byteOffset":2114204,
			"target":34962
		},
		{
			"buffer":0,
			"byteLength":1860,
			"byteOffset":2115444,
			"target":34962
		},
		{
			"buffer":0,
			"byteLength":1860,
			"byteOffset":2117304,
			"target":34962
		},
		{
			"buffer":0,
			"byteLength":1240,
			"byteOffset":2119164,
			"target":34962
		},
		{
			"buffer":0,
			"byteLength":1240,
			"byteOffset":2120404,
			"target":34962
		},
		{
			"buffer":0,
			"byteLength":1860,
			"byteOffset":2121644,
			"target":34962
		},
		{
			"buffer":0,
			"byteLength":1860,
			"byteOffset":2123504,
			"target":34962
		},
		{
			"buffer":0,
			"byteLength":1240,
			"byteOffset":2125364,
			"target":34962
		},
		{
			"buffer":0,
			"byteLength":1240,
			"byteOffset":2126604,
			"target":34962
		},
		{
			"buffer":0,
			"byteLength":1860,
			"byteOffset":2127844,
			"target":34962
		},
		{
			"buffer":0,
			"byteLength":1860,
			"byteOffset":2129704,
			"target":34962
		},
		{
			"buffer":0,
			"byteLength":1240,
			"byteOffset":2131564,
			"target":34962
		},
		{
			"buffer":0,
			"byteLength":1240,
			"byteOffset":2132804,
			"target":34962
		},
		{
			"buffer":0,
			"byteLength":1860,
			"byteOffset":2134044,
			"target":34962
		},
		{
			"buffer":0,
			"byteLength":1860,
			"byteOffset":2135904,
			"target":34962
		},
		{
			"buffer":0,
			"byteLength":1240,
			"byteOffset":2137764,
			"target":34962
		},
		{
			"buffer":0,
			"byteLength":1240,
			"byteOffset":2139004,
			"target":34962
		},
		{
			"buffer":0,
			"byteLength":1860,
			"byteOffset":2140244,
			"target":34962
		},
		{
			"buffer":0,
			"byteLength":1860,
			"byteOffset":2142104,
			"target":34962
		},
		{
			"buffer":0,
			"byteLength":1240,
			"byteOffset":2143964,
			"target":34962
		},
		{
			"buffer":0,
			"byteLength":1240,
			"byteOffset":2145204,
			"target":34962
		},
		{
			"buffer":0,
			"byteLength":1860,
			"byteOffset":2146444,
			"target":34962
		},
		{
			"buffer":0,
			"byteLength":1860,
			"byteOffset":2148304,
			"target":34962
		},
		{
			"buffer":0,
			"byteLength":1240,
			"byteOffset":2150164,
			"target":34962
		},
		{
			"buffer":0,
			"byteLength":1240,
			"byteOffset":2151404,
			"target":34962
		},
		{
			"buffer":0,
			"byteLength":1860,
			"byteOffset":2152644,
			"target":34962
		},
		{
			"buffer":0,
			"byteLength":1860,
			"byteOffset":2154504,
			"target":34962
		},
		{
			"buffer":0,
			"byteLength":1240,
			"byteOffset":2156364,
			"target":34962
		},
		{
			"buffer":0,
			"byteLength":1240,
			"byteOffset":2157604,
			"target":34962
		},
		{
			"buffer":0,
			"byteLength":1860,
			"byteOffset":2158844,
			"target":34962
		},
		{
			"buffer":0,
			"byteLength":1860,
			"byteOffset":2160704,
			"target":34962
		},
		{
			"buffer":0,
			"byteLength":1240,
			"byteOffset":2162564,
			"target":34962
		},
		{
			"buffer":0,
			"byteLength":31632,
			"byteOffset":2163804,
			"target":34962
		},
		{
			"buffer":0,
			"byteLength":31632,
			"byteOffset":2195436,
			"target":34962
		},
		{
			"buffer":0,
			"byteLength":21088,
			"byteOffset":2227068,
			"target":34962
		},
		{
			"buffer":0,
			"byteLength":19200,
			"byteOffset":2248156,
			"target":34963
		},
		{
			"buffer":0,
			"byteLength":55020,
			"byteOffset":2267356,
			"target":34962
		},
		{
			"buffer":0,
			"byteLength":55020,
			"byteOffset":2322376,
			"target":34962
		},
		{
			"buffer":0,
			"byteLength":36680,
			"byteOffset":2377396,
			"target":34962
		},
		{
			"buffer":0,
			"byteLength":45792,
			"byteOffset":2414076,
			"target":34963
		},
		{
			"buffer":0,
			"byteLength":262320,
			"byteOffset":2459868,
			"target":34962
		},
		{
			"buffer":0,
			"byteLength":262320,
			"byteOffset":2722188,
			"target":34962
		},
		{
			"buffer":0,
			"byteLength":174880,
			"byteOffset":2984508,
			"target":34962
		},
		{
			"buffer":0,
			"byteLength":123240,
			"byteOffset":3159388,
			"target":34963
		},
		{
			"buffer":0,
			"byteLength":15696,
			"byteOffset":3282628,
			"target":34962
		},
		{
			"buffer":0,
			"byteLength":15696,
			"byteOffset":3298324,
			"target":34962
		},
		{
			"buffer":0,
			"byteLength":10464,
			"byteOffset":3314020,
			"target":34962
		},
		{
			"buffer":0,
			"byteLength":7824,
			"byteOffset":3324484,
			"target":34963
		},
		{
			"buffer":0,
			"byteLength":116856,
			"byteOffset":3332308,
			"target":34962
		},
		{
			"buffer":0,
			"byteLength":116856,
			"byteOffset":3449164,
			"target":34962
		},
		{
			"buffer":0,
			"byteLength":77904,
			"byteOffset":3566020,
			"target":34962
		},
		{
			"buffer":0,
			"byteLength":58200,
			"byteOffset":3643924,
			"target":34963
		},
		{
			"buffer":0,
			"byteLength":262560,
			"byteOffset":3702124,
			"target":34962
		},
		{
			"buffer":0,
			"byteLength":262560,
			"byteOffset":3964684,
			"target":34962
		},
		{
			"buffer":0,
			"byteLength":175040,
			"byteOffset":4227244,
			"target":34962
		},
		{
			"buffer":0,
			"byteLength":15864,
			"byteOffset":4402284,
			"target":34962
		},
		{
			"buffer":0,
			"byteLength":15864,
			"byteOffset":4418148,
			"target":34962
		},
		{
			"buffer":0,
			"byteLength":10576,
			"byteOffset":4434012,
			"target":34962
		},
		{
			"buffer":0,
			"byteLength":7824,
			"byteOffset":4444588,
			"target":34963
		},
		{
			"buffer":0,
			"byteLength":118980,
			"byteOffset":4452412,
			"target":34962
		},
		{
			"buffer":0,
			"byteLength":118980,
			"byteOffset":4571392,
			"target":34962
		},
		{
			"buffer":0,
			"byteLength":79320,
			"byteOffset":4690372,
			"target":34962
		},
		{
			"buffer":0,
			"byteLength":8,
			"byteOffset":4769692
		},
		{
			"buffer":0,
			"byteLength":24,
			"byteOffset":4769700
		},
		{
			"buffer":0,
			"byteLength":644,
			"byteOffset":4769724
		},
		{
			"buffer":0,
			"byteLength":2576,
			"byteOffset":4770368
		},
		{
			"buffer":0,
			"byteLength":24,
			"byteOffset":4772944
		},
		{
			"buffer":0,
			"byteLength":8,
			"byteOffset":4772968
		},
		{
			"buffer":0,
			"byteLength":24,
			"byteOffset":4772976
		},
		{
			"buffer":0,
			"byteLength":800,
			"byteOffset":4773000
		},
		{
			"buffer":0,
			"byteLength":3200,
			"byteOffset":4773800
		},
		{
			"buffer":0,
			"byteLength":24,
			"byteOffset":4777000
		},
		{
			"buffer":0,
			"byteLength":8,
			"byteOffset":4777024
		},
		{
			"buffer":0,
			"byteLength":24,
			"byteOffset":4777032
		},
		{
			"buffer":0,
			"byteLength":808,
			"byteOffset":4777056
		},
		{
			"buffer":0,
			"byteLength":3232,
			"byteOffset":4777864
		},
		{
			"buffer":0,
			"byteLength":24,
			"byteOffset":4781096
		},
		{
			"buffer":0,
			"byteLength":8,
			"byteOffset":4781120
		},
		{
			"buffer":0,
			"byteLength":24,
			"byteOffset":4781128
		},
		{
			"buffer":0,
			"byteLength":640,
			"byteOffset":4781152
		},
		{
			"buffer":0,
			"byteLength":2560,
			"byteOffset":4781792
		},
		{
			"buffer":0,
			"byteLength":24,
			"byteOffset":4784352
		},
		{
			"buffer":0,
			"byteLength":24,
			"byteOffset":4784376
		},
		{
			"buffer":0,
			"byteLength":3200,
			"byteOffset":4784400
		},
		{
			"buffer":0,
			"byteLength":24,
			"byteOffset":4787600
		},
		{
			"buffer":0,
			"byteLength":8,
			"byteOffset":4787624
		},
		{
			"buffer":0,
			"byteLength":24,
			"byteOffset":4787632
		},
		{
			"buffer":0,
			"byteLength":804,
			"byteOffset":4787656
		},
		{
			"buffer":0,
			"byteLength":3216,
			"byteOffset":4788460
		},
		{
			"buffer":0,
			"byteLength":24,
			"byteOffset":4791676
		},
		{
			"buffer":0,
			"byteLength":24,
			"byteOffset":4791700
		},
		{
			"buffer":0,
			"byteLength":3200,
			"byteOffset":4791724
		},
		{
			"buffer":0,
			"byteLength":24,
			"byteOffset":4794924
		},
		{
			"buffer":0,
			"byteLength":24,
			"byteOffset":4794948
		},
		{
			"buffer":0,
			"byteLength":3216,
			"byteOffset":4794972
		},
		{
			"buffer":0,
			"byteLength":24,
			"byteOffset":4798188
		},
		{
			"buffer":0,
			"byteLength":8,
			"byteOffset":4798212
		},
		{
			"buffer":0,
			"byteLength":24,
			"byteOffset":4798220
		},
		{
			"buffer":0,
			"byteLength":880,
			"byteOffset":4798244
		},
		{
			"buffer":0,
			"byteLength":3520,
			"byteOffset":4799124
		},
		{
			"buffer":0,
			"byteLength":24,
			"byteOffset":4802644
		},
		{
			"buffer":0,
			"byteLength":24,
			"byteOffset":4802668
		},
		{
			"buffer":0,
			"byteLength":3200,
			"byteOffset":4802692
		},
		{
			"buffer":0,
			"byteLength":24,
			"byteOffset":4805892
		},
		{
			"buffer":0,
			"byteLength":24,
			"byteOffset":4805916
		},
		{
			"buffer":0,
			"byteLength":3216,
			"byteOffset":4805940
		},
		{
			"buffer":0,
			"byteLength":2412,
			"byteOffset":4809156
		},
		{
			"buffer":0,
			"byteLength":24,
			"byteOffset":4811568
		},
		{
			"buffer":0,
			"byteLength":3200,
			"byteOffset":4811592
		},
		{
			"buffer":0,
			"byteLength":24,
			"byteOffset":4814792
		},
		{
			"buffer":0,
			"byteLength":24,
			"byteOffset":4814816
		},
		{
			"buffer":0,
			"byteLength":3216,
			"byteOffset":4814840
		},
		{
			"buffer":0,
			"byteLength":24,
			"byteOffset":4818056
		}
	],
	"samplers":[
		{
			"magFilter":9729,
			"minFilter":9987
		}
	],
	"buffers":[
		{
			"byteLength":4818080,
			"uri":"FSM-SekilYazi.bin"
		}
	]
}
