{
	"asset":{
		"generator":"Khronos glTF Blender I/O v3.6.27",
		"version":"2.0"
	},
	"scene":0,
	"scenes":[
		{
			"name":"Scene",
			"nodes":[
				0,
				1,
				2,
				3,
				4,
				5,
				6,
				7,
				8,
				9,
				10,
				11,
				12,
				13,
				14
			]
		}
	],
	"nodes":[
		{
			"mesh":0,
			"name":"Wolf3D_Teeth.002",
			"translation":[
				-0.002500328002497554,
				1.662368893623352,
				0.10009659826755524
			]
		},
		{
			"mesh":1,
			"name":"Wolf3D_Teeth.001",
			"translation":[
				-0.0006846870528534055,
				1.6454960107803345,
				0.0978313758969307
			]
		},
		{
			"mesh":2,
			"name":"Wolf3D_Teeth",
			"translation":[
				0,
				1.6558759212493896,
				0.07973264157772064
			]
		},
		{
			"mesh":3,
			"name":"Wolf3D_Outfit_Top.001",
			"translation":[
				-0.001143657136708498,
				1.5214731693267822,
				0.005031377077102661
			]
		},
		{
			"mesh":4,
			"name":"Wolf3D_Outfit_Top",
			"translation":[
				-0.02036910131573677,
				0.9868271350860596,
				0.03588177263736725
			]
		},
		{
			"mesh":5,
			"name":"Wolf3D_Outfit_Footwear",
			"translation":[
				0,
				0.0664224624633789,
				0.0368126817047596
			]
		},
		{
			"mesh":6,
			"name":"Wolf3D_Outfit_Bottom.001",
			"translation":[
				0.0009418728295713663,
				1.0816798210144043,
				0.06589136272668839
			]
		},
		{
			"mesh":7,
			"name":"Wolf3D_Outfit_Bottom",
			"translation":[
				-0.024019023403525352,
				0.4554552435874939,
				-0.04881911724805832
			]
		},
		{
			"mesh":8,
			"name":"Wolf3D_Head",
			"translation":[
				-0.0002675201103556901,
				1.6848291158676147,
				0.08686909824609756
			]
		},
		{
			"mesh":9,
			"name":"Wolf3D_Hair",
			"translation":[
				-0.00045486344606615603,
				1.7779489755630493,
				0.03838633745908737
			]
		},
		{
			"mesh":10,
			"name":"Wolf3D_Beard",
			"translation":[
				6.451284571085125e-05,
				1.6476532220840454,
				0.0834430605173111
			]
		},
		{
			"mesh":11,
			"name":"TwistedTorus",
			"translation":[
				0.004366557113826275,
				1.8642405271530151,
				0.02387559786438942
			]
		},
		{
			"mesh":12,
			"name":"EyeRight",
			"translation":[
				-0.03131861984729767,
				1.724286437034607,
				0.10436337441205978
			]
		},
		{
			"mesh":13,
			"name":"EyeLeft",
			"translation":[
				0.0324830636382103,
				1.7243081331253052,
				0.10403270274400711
			]
		},
		{
			"mesh":14,
			"name":"Kama",
			"translation":[
				0.008089709095656872,
				1.1222549676895142,
				0.15389560163021088
			]
		}
	],
	"materials":[
		{
			"alphaMode":"BLEND",
			"doubleSided":true,
			"name":"Wolf3D_Teeth",
			"pbrMetallicRoughness":{
				"baseColorTexture":{
					"index":0
				},
				"metallicFactor":0
			}
		},
		{
			"alphaMode":"BLEND",
			"doubleSided":true,
			"name":"kurk",
			"pbrMetallicRoughness":{
				"baseColorTexture":{
					"index":1
				},
				"metallicFactor":0,
				"roughnessFactor":0.5
			}
		},
		{
			"alphaMode":"BLEND",
			"doubleSided":true,
			"name":"k\u0131yafet",
			"pbrMetallicRoughness":{
				"baseColorFactor":[
					0.0049837552942335606,
					0.12369350343942642,
					0.17877286672592163,
					1
				],
				"metallicFactor":0,
				"roughnessFactor":0.5
			}
		},
		{
			"alphaMode":"BLEND",
			"name":"Wolf3D_Skin",
			"pbrMetallicRoughness":{
				"baseColorTexture":{
					"index":2
				},
				"metallicFactor":0,
				"roughnessFactor":0.699999988079071
			}
		},
		{
			"alphaMode":"BLEND",
			"doubleSided":true,
			"name":"kavuk",
			"pbrMetallicRoughness":{
				"baseColorFactor":[
					0.5983940958976746,
					0.5983940958976746,
					0.5983940958976746,
					1
				],
				"metallicFactor":0,
				"roughnessFactor":0.5
			}
		},
		{
			"alphaMode":"BLEND",
			"doubleSided":true,
			"name":"k\u0131yafet2",
			"pbrMetallicRoughness":{
				"baseColorFactor":[
					0.2585437297821045,
					0.009154771454632282,
					0.005873478017747402,
					1
				],
				"metallicFactor":0,
				"roughnessFactor":0.5
			}
		},
		{
			"alphaMode":"BLEND",
			"doubleSided":true,
			"name":"kaftandesen",
			"pbrMetallicRoughness":{
				"baseColorTexture":{
					"index":3
				},
				"metallicFactor":0,
				"roughnessFactor":0.5
			}
		},
		{
			"alphaMode":"BLEND",
			"doubleSided":true,
			"name":"kaftandesencicek",
			"pbrMetallicRoughness":{
				"metallicFactor":0,
				"roughnessFactor":0.5
			}
		},
		{
			"alphaMode":"BLEND",
			"doubleSided":true,
			"name":"k\u0131yafetdesenli",
			"pbrMetallicRoughness":{
				"baseColorTexture":{
					"index":4
				},
				"metallicFactor":0,
				"roughnessFactor":0.5
			}
		},
		{
			"alphaMode":"BLEND",
			"doubleSided":true,
			"name":"kaftanSade",
			"pbrMetallicRoughness":{
				"baseColorTexture":{
					"index":5
				},
				"metallicFactor":0,
				"roughnessFactor":0.7201834917068481
			}
		},
		{
			"doubleSided":true,
			"name":"turra",
			"pbrMetallicRoughness":{
				"baseColorTexture":{
					"index":6
				},
				"metallicFactor":0,
				"roughnessFactor":0.5
			}
		},
		{
			"doubleSided":true,
			"name":"gumus.001",
			"pbrMetallicRoughness":{
				"baseColorFactor":[
					0.4675385653972626,
					0.4675385653972626,
					0.4675385653972626,
					1
				],
				"metallicFactor":0.5800203680992126,
				"roughnessFactor":0.5
			}
		},
		{
			"doubleSided":true,
			"name":"siyah",
			"pbrMetallicRoughness":{
				"baseColorFactor":[
					0.010272634215652943,
					0.010272634215652943,
					0.010272634215652943,
					1
				],
				"metallicFactor":0,
				"roughnessFactor":0.5
			}
		},
		{
			"alphaMode":"BLEND",
			"name":"Wolf3D_Outfit_Footwear",
			"normalTexture":{
				"index":7
			},
			"pbrMetallicRoughness":{
				"baseColorTexture":{
					"index":8
				},
				"metallicFactor":0,
				"metallicRoughnessTexture":{
					"index":9
				}
			}
		},
		{
			"alphaMode":"BLEND",
			"doubleSided":true,
			"name":"arma",
			"pbrMetallicRoughness":{
				"baseColorTexture":{
					"index":10
				},
				"metallicFactor":0,
				"roughnessFactor":0.5
			}
		},
		{
			"alphaMode":"BLEND",
			"doubleSided":true,
			"name":"gumus",
			"pbrMetallicRoughness":{
				"baseColorFactor":[
					0.2929508686065674,
					0.2929508686065674,
					0.2929508686065674,
					1
				],
				"metallicFactor":0.7614678740501404,
				"roughnessFactor":0.5275229215621948
			}
		},
		{
			"alphaMode":"BLEND",
			"name":"Wolf3D_Outfit_Bottom",
			"normalTexture":{
				"index":11
			},
			"pbrMetallicRoughness":{
				"baseColorTexture":{
					"index":12
				},
				"metallicRoughnessTexture":{
					"index":13
				}
			}
		},
		{
			"alphaMode":"BLEND",
			"doubleSided":true,
			"name":"yuz9",
			"pbrMetallicRoughness":{
				"baseColorTexture":{
					"index":14
				},
				"metallicFactor":0,
				"roughnessFactor":0.5
			}
		},
		{
			"alphaMode":"BLEND",
			"name":"Wolf3D_Beard",
			"normalTexture":{
				"index":15
			},
			"pbrMetallicRoughness":{
				"baseColorTexture":{
					"index":16
				},
				"metallicFactor":0.2110091596841812,
				"roughnessFactor":0.742827296257019
			}
		},
		{
			"alphaMode":"BLEND",
			"doubleSided":true,
			"name":"Material.003",
			"pbrMetallicRoughness":{
				"baseColorFactor":[
					0.15319086611270905,
					0.004374898038804531,
					0.005494073033332825,
					1
				],
				"metallicFactor":0,
				"roughnessFactor":0.5
			}
		},
		{
			"alphaMode":"BLEND",
			"name":"Wolf3D_Eye",
			"pbrMetallicRoughness":{
				"baseColorTexture":{
					"index":17
				},
				"metallicFactor":0
			}
		},
		{
			"alphaMode":"BLEND",
			"doubleSided":true,
			"name":"Material.009",
			"pbrMetallicRoughness":{
				"baseColorTexture":{
					"index":18
				},
				"metallicFactor":0.7339449524879456,
				"roughnessFactor":0.5
			}
		},
		{
			"alphaMode":"BLEND",
			"doubleSided":true,
			"name":"gri.001",
			"pbrMetallicRoughness":{
				"baseColorFactor":[
					0.31110212206840515,
					0.31110212206840515,
					0.31110212206840515,
					1
				],
				"metallicFactor":0.8165137767791748,
				"roughnessFactor":0.5
			}
		},
		{
			"alphaMode":"BLEND",
			"doubleSided":true,
			"name":"Material.008",
			"pbrMetallicRoughness":{
				"baseColorFactor":[
					0.26410481333732605,
					0.19428278505802155,
					0.2177240252494812,
					1
				],
				"metallicFactor":0.9449541568756104,
				"roughnessFactor":0.49082568287849426
			}
		},
		{
			"alphaMode":"BLEND",
			"doubleSided":true,
			"name":"sar\u0131",
			"pbrMetallicRoughness":{
				"baseColorFactor":[
					0.5894144773483276,
					0.5583676695823669,
					0.12833578884601593,
					1
				],
				"metallicFactor":0.7798165082931519,
				"roughnessFactor":0.5183486342430115
			}
		}
	],
	"meshes":[
		{
			"extras":{
				"targetNames":[
					"mouthOpen",
					"mouthSmile"
				]
			},
			"name":"Wolf3D_Teeth.002",
			"primitives":[
				{
					"attributes":{
						"POSITION":0,
						"NORMAL":1,
						"TEXCOORD_0":2
					},
					"indices":3,
					"material":0,
					"targets":[
						{
							"POSITION":4,
							"NORMAL":5
						},
						{
							"POSITION":6,
							"NORMAL":7
						}
					]
				}
			],
			"weights":[
				0,
				0
			]
		},
		{
			"extras":{
				"targetNames":[
					"mouthOpen",
					"mouthSmile"
				]
			},
			"name":"Wolf3D_Teeth.001",
			"primitives":[
				{
					"attributes":{
						"POSITION":8,
						"NORMAL":9,
						"TEXCOORD_0":10
					},
					"indices":11,
					"material":0,
					"targets":[
						{
							"POSITION":12,
							"NORMAL":13
						},
						{
							"POSITION":14,
							"NORMAL":15
						}
					]
				}
			],
			"weights":[
				0,
				0
			]
		},
		{
			"extras":{
				"targetNames":[
					"mouthOpen",
					"mouthSmile"
				]
			},
			"name":"Wolf3D_Teeth",
			"primitives":[
				{
					"attributes":{
						"POSITION":16,
						"NORMAL":17,
						"TEXCOORD_0":18
					},
					"indices":19,
					"material":0,
					"targets":[
						{
							"POSITION":20,
							"NORMAL":21
						},
						{
							"POSITION":22,
							"NORMAL":23
						}
					]
				}
			],
			"weights":[
				0,
				0
			]
		},
		{
			"name":"Wolf3D_Outfit_Top.001",
			"primitives":[
				{
					"attributes":{
						"POSITION":24,
						"NORMAL":25,
						"TEXCOORD_0":26
					},
					"indices":27,
					"material":1
				}
			]
		},
		{
			"name":"Wolf3D_Outfit_Top",
			"primitives":[
				{
					"attributes":{
						"POSITION":28,
						"NORMAL":29,
						"TEXCOORD_0":30
					},
					"indices":31,
					"material":2
				},
				{
					"attributes":{
						"POSITION":32,
						"NORMAL":33,
						"TEXCOORD_0":34
					},
					"indices":35,
					"material":3
				},
				{
					"attributes":{
						"POSITION":36,
						"NORMAL":37,
						"TEXCOORD_0":38
					},
					"indices":39,
					"material":4
				},
				{
					"attributes":{
						"POSITION":40,
						"NORMAL":41,
						"TEXCOORD_0":42
					},
					"indices":43,
					"material":5
				},
				{
					"attributes":{
						"POSITION":44,
						"NORMAL":45,
						"TEXCOORD_0":46
					},
					"indices":47,
					"material":6
				},
				{
					"attributes":{
						"POSITION":48,
						"NORMAL":49,
						"TEXCOORD_0":50
					},
					"indices":51,
					"material":7
				},
				{
					"attributes":{
						"POSITION":52,
						"NORMAL":53,
						"TEXCOORD_0":54
					},
					"indices":55,
					"material":8
				},
				{
					"attributes":{
						"POSITION":56,
						"NORMAL":57,
						"TEXCOORD_0":58
					},
					"indices":59,
					"material":9
				},
				{
					"attributes":{
						"POSITION":60,
						"NORMAL":61,
						"TEXCOORD_0":62
					},
					"indices":63,
					"material":10
				},
				{
					"attributes":{
						"POSITION":64,
						"NORMAL":65,
						"TEXCOORD_0":66
					},
					"indices":67,
					"material":11
				},
				{
					"attributes":{
						"POSITION":68,
						"NORMAL":69,
						"TEXCOORD_0":70
					},
					"indices":71,
					"material":12
				}
			]
		},
		{
			"name":"Wolf3D_Outfit_Footwear",
			"primitives":[
				{
					"attributes":{
						"POSITION":72,
						"NORMAL":73,
						"TEXCOORD_0":74
					},
					"indices":75,
					"material":13
				}
			]
		},
		{
			"name":"Wolf3D_Outfit_Bottom.001",
			"primitives":[
				{
					"attributes":{
						"POSITION":76,
						"NORMAL":77,
						"TEXCOORD_0":78
					},
					"indices":79,
					"material":6
				},
				{
					"attributes":{
						"POSITION":80,
						"NORMAL":81,
						"TEXCOORD_0":82
					},
					"indices":83,
					"material":14
				},
				{
					"attributes":{
						"POSITION":84,
						"NORMAL":85,
						"TEXCOORD_0":86
					},
					"indices":87,
					"material":15
				}
			]
		},
		{
			"name":"Wolf3D_Outfit_Bottom",
			"primitives":[
				{
					"attributes":{
						"POSITION":88,
						"NORMAL":89,
						"TEXCOORD_0":90
					},
					"indices":91,
					"material":16
				}
			]
		},
		{
			"extras":{
				"targetNames":[
					"mouthOpen",
					"mouthSmile"
				]
			},
			"name":"Wolf3D_Head",
			"primitives":[
				{
					"attributes":{
						"POSITION":92,
						"NORMAL":93,
						"TEXCOORD_0":94
					},
					"indices":95,
					"material":17,
					"targets":[
						{
							"POSITION":96,
							"NORMAL":97
						},
						{
							"POSITION":98,
							"NORMAL":99
						}
					]
				}
			],
			"weights":[
				0,
				0
			]
		},
		{
			"name":"Wolf3D_Hair",
			"primitives":[
				{
					"attributes":{
						"POSITION":100,
						"NORMAL":101,
						"TEXCOORD_0":102
					},
					"indices":103,
					"material":18
				}
			]
		},
		{
			"extras":{
				"targetNames":[
					"mouthOpen",
					"mouthSmile"
				]
			},
			"name":"Wolf3D_Beard",
			"primitives":[
				{
					"attributes":{
						"POSITION":104,
						"NORMAL":105,
						"TEXCOORD_0":106
					},
					"indices":107,
					"material":18,
					"targets":[
						{
							"POSITION":108,
							"NORMAL":109
						},
						{
							"POSITION":110,
							"NORMAL":111
						}
					]
				}
			],
			"weights":[
				0,
				0
			]
		},
		{
			"name":"TwistedTorus",
			"primitives":[
				{
					"attributes":{
						"POSITION":112,
						"NORMAL":113,
						"TEXCOORD_0":114
					},
					"indices":115,
					"material":19
				},
				{
					"attributes":{
						"POSITION":116,
						"NORMAL":117,
						"TEXCOORD_0":118
					},
					"indices":119,
					"material":4
				}
			]
		},
		{
			"extras":{
				"targetNames":[
					"mouthOpen",
					"mouthSmile"
				]
			},
			"name":"EyeRight",
			"primitives":[
				{
					"attributes":{
						"POSITION":120,
						"NORMAL":121,
						"TEXCOORD_0":122
					},
					"indices":123,
					"material":20,
					"targets":[
						{
							"POSITION":124,
							"NORMAL":125
						},
						{
							"POSITION":126,
							"NORMAL":127
						}
					]
				}
			],
			"weights":[
				0,
				0
			]
		},
		{
			"extras":{
				"targetNames":[
					"mouthOpen",
					"mouthSmile"
				]
			},
			"name":"EyeLeft",
			"primitives":[
				{
					"attributes":{
						"POSITION":128,
						"NORMAL":129,
						"TEXCOORD_0":130
					},
					"indices":131,
					"material":20,
					"targets":[
						{
							"POSITION":132,
							"NORMAL":133
						},
						{
							"POSITION":134,
							"NORMAL":135
						}
					]
				}
			],
			"weights":[
				0,
				0
			]
		},
		{
			"name":"Cube.003",
			"primitives":[
				{
					"attributes":{
						"POSITION":136,
						"NORMAL":137,
						"TEXCOORD_0":138
					},
					"indices":139,
					"material":21
				},
				{
					"attributes":{
						"POSITION":140,
						"NORMAL":141,
						"TEXCOORD_0":142
					},
					"indices":143,
					"material":22
				},
				{
					"attributes":{
						"POSITION":144,
						"NORMAL":145,
						"TEXCOORD_0":146
					},
					"indices":147,
					"material":23
				},
				{
					"attributes":{
						"POSITION":148,
						"NORMAL":149,
						"TEXCOORD_0":150
					},
					"indices":151,
					"material":24
				}
			]
		}
	],
	"textures":[
		{
			"sampler":0,
			"source":0
		},
		{
			"sampler":0,
			"source":1
		},
		{
			"sampler":0,
			"source":2
		},
		{
			"sampler":0,
			"source":3
		},
		{
			"sampler":0,
			"source":4
		},
		{
			"sampler":0,
			"source":5
		},
		{
			"sampler":0,
			"source":6
		},
		{
			"sampler":1,
			"source":7
		},
		{
			"sampler":1,
			"source":8
		},
		{
			"sampler":1,
			"source":9
		},
		{
			"sampler":0,
			"source":10
		},
		{
			"sampler":1,
			"source":11
		},
		{
			"sampler":1,
			"source":12
		},
		{
			"sampler":1,
			"source":13
		},
		{
			"sampler":0,
			"source":14
		},
		{
			"sampler":0,
			"source":15
		},
		{
			"sampler":0,
			"source":16
		},
		{
			"sampler":0,
			"source":17
		},
		{
			"sampler":0,
			"source":5
		}
	],
	"images":[
		{
			"mimeType":"image/jpeg",
			"name":"Wolf3D_Teeth",
			"uri":"kemiksiztexture/Wolf3D_Teeth.jpg"
		},
		{
			"mimeType":"image/jpeg",
			"name":"kurkKahve",
			"uri":"kemiksiztexture/kurkKahve.jpg"
		},
		{
			"mimeType":"image/jpeg",
			"name":"fsm",
			"uri":"kemiksiztexture/fsm.jpg"
		},
		{
			"mimeType":"image/png",
			"name":"FSM",
			"uri":"kemiksiztexture/FSM.png"
		},
		{
			"mimeType":"image/png",
			"name":"k\u0131yafetDesen",
			"uri":"kemiksiztexture/k%C4%B1yafetDesen.png"
		},
		{
			"mimeType":"image/png",
			"name":"kaftanSade",
			"uri":"kemiksiztexture/kaftanSade.png"
		},
		{
			"mimeType":"image/jpeg",
			"name":"OSMTURRA",
			"uri":"kemiksiztexture/OSMTURRA.jpg"
		},
		{
			"mimeType":"image/jpeg",
			"name":"outfit-doctor-01-v2-m-footwear-N",
			"uri":"kemiksiztexture/outfit-doctor-01-v2-m-footwear-N.jpg"
		},
		{
			"mimeType":"image/jpeg",
			"name":"outfit-doctor-01-v2-m-footwear-D",
			"uri":"kemiksiztexture/outfit-doctor-01-v2-m-footwear-D.jpg"
		},
		{
			"mimeType":"image/jpeg",
			"name":"outfit-doctor-01-v2-m-footwear-R",
			"uri":"kemiksiztexture/outfit-doctor-01-v2-m-footwear-R.jpg"
		},
		{
			"mimeType":"image/png",
			"name":"logo1",
			"uri":"kemiksiztexture/logo1.png"
		},
		{
			"mimeType":"image/jpeg",
			"name":"outfit-doctor-01-v2-m-bottom-N",
			"uri":"kemiksiztexture/outfit-doctor-01-v2-m-bottom-N.jpg"
		},
		{
			"mimeType":"image/jpeg",
			"name":"outfit-doctor-01-v2-m-bottom-D",
			"uri":"kemiksiztexture/outfit-doctor-01-v2-m-bottom-D.jpg"
		},
		{
			"mimeType":"image/jpeg",
			"name":"outfit-doctor-01-v2-m-bottom-M-outfit-doctor-01-v2-m-bottom-R",
			"uri":"kemiksiztexture/outfit-doctor-01-v2-m-bottom-M-outfit-doctor-01-v2-m-bottom-R.jpg"
		},
		{
			"mimeType":"image/png",
			"name":"fsmdeg13 (3)",
			"uri":"kemiksiztexture/fsmdeg13%203.png"
		},
		{
			"mimeType":"image/jpeg",
			"name":"beard-04-N",
			"uri":"kemiksiztexture/beard-04-N.jpg"
		},
		{
			"mimeType":"image/png",
			"name":"baseColor",
			"uri":"kemiksiztexture/baseColor.png"
		},
		{
			"mimeType":"image/png",
			"name":"baseColor",
			"uri":"kemiksiztexture/baseColor-1.png"
		}
	],
	"accessors":[
		{
			"bufferView":0,
			"componentType":5126,
			"count":31,
			"max":[
				0.025090957060456276,
				0.006621122360229492,
				0.015232086181640625
			],
			"min":[
				-0.023899169638752937,
				-0.007142424583435059,
				-0.02194715291261673
			],
			"type":"VEC3"
		},
		{
			"bufferView":1,
			"componentType":5126,
			"count":31,
			"type":"VEC3"
		},
		{
			"bufferView":2,
			"componentType":5126,
			"count":31,
			"type":"VEC2"
		},
		{
			"bufferView":3,
			"componentType":5123,
			"count":114,
			"type":"SCALAR"
		},
		{
			"bufferView":4,
			"componentType":5126,
			"count":31,
			"max":[
				3.2860785722732544e-05,
				0.0005059242248535156,
				-0.00058022141456604
			],
			"min":[
				3.285333514213562e-05,
				0.0005056858062744141,
				-0.0005802586674690247
			],
			"type":"VEC3"
		},
		{
			"bufferView":5,
			"componentType":5126,
			"count":31,
			"type":"VEC3"
		},
		{
			"bufferView":6,
			"componentType":5126,
			"count":31,
			"max":[
				0,
				0,
				0
			],
			"min":[
				0,
				0,
				0
			],
			"type":"VEC3"
		},
		{
			"bufferView":7,
			"componentType":5126,
			"count":31,
			"type":"VEC3"
		},
		{
			"bufferView":8,
			"componentType":5126,
			"count":29,
			"max":[
				0.026301158592104912,
				0.006433606147766113,
				0.015300579369068146
			],
			"min":[
				-0.025594430044293404,
				-0.006646633148193359,
				-0.022221066057682037
			],
			"type":"VEC3"
		},
		{
			"bufferView":9,
			"componentType":5126,
			"count":29,
			"type":"VEC3"
		},
		{
			"bufferView":10,
			"componentType":5126,
			"count":29,
			"type":"VEC2"
		},
		{
			"bufferView":11,
			"componentType":5123,
			"count":102,
			"type":"SCALAR"
		},
		{
			"bufferView":12,
			"componentType":5126,
			"count":29,
			"max":[
				-7.091090083122253e-05,
				-0.0022841691970825195,
				0.0032060742378234863
			],
			"min":[
				-0.00027038215193897486,
				-0.007029891014099121,
				-0.0013060420751571655
			],
			"type":"VEC3"
		},
		{
			"bufferView":13,
			"componentType":5126,
			"count":29,
			"type":"VEC3"
		},
		{
			"bufferView":14,
			"componentType":5126,
			"count":29,
			"max":[
				0,
				0,
				0
			],
			"min":[
				0,
				0,
				0
			],
			"type":"VEC3"
		},
		{
			"bufferView":15,
			"componentType":5126,
			"count":29,
			"type":"VEC3"
		},
		{
			"bufferView":16,
			"componentType":5126,
			"count":24,
			"max":[
				0.020458748564124107,
				0.008056998252868652,
				0.021507710218429565
			],
			"min":[
				-0.020458748564124107,
				-0.004728913307189941,
				-0.029649879783391953
			],
			"type":"VEC3"
		},
		{
			"bufferView":17,
			"componentType":5126,
			"count":24,
			"type":"VEC3"
		},
		{
			"bufferView":18,
			"componentType":5126,
			"count":24,
			"type":"VEC2"
		},
		{
			"bufferView":19,
			"componentType":5123,
			"count":84,
			"type":"SCALAR"
		},
		{
			"bufferView":20,
			"componentType":5126,
			"count":24,
			"max":[
				0,
				-0.005228281021118164,
				0.0056565552949905396
			],
			"min":[
				-3.419486915845482e-14,
				-0.010675668716430664,
				0.00422050803899765
			],
			"type":"VEC3"
		},
		{
			"bufferView":21,
			"componentType":5126,
			"count":24,
			"type":"VEC3"
		},
		{
			"bufferView":22,
			"componentType":5126,
			"count":24,
			"max":[
				0,
				0,
				0
			],
			"min":[
				0,
				0,
				0
			],
			"type":"VEC3"
		},
		{
			"bufferView":23,
			"componentType":5126,
			"count":24,
			"type":"VEC3"
		},
		{
			"bufferView":24,
			"componentType":5126,
			"count":399,
			"max":[
				0.22827525436878204,
				0.10005033016204834,
				0.16473735868930817
			],
			"min":[
				-0.24732166528701782,
				-0.21727919578552246,
				-0.18031829595565796
			],
			"type":"VEC3"
		},
		{
			"bufferView":25,
			"componentType":5126,
			"count":399,
			"type":"VEC3"
		},
		{
			"bufferView":26,
			"componentType":5126,
			"count":399,
			"type":"VEC2"
		},
		{
			"bufferView":27,
			"componentType":5123,
			"count":2376,
			"type":"SCALAR"
		},
		{
			"bufferView":28,
			"componentType":5126,
			"count":82,
			"max":[
				0.5294666290283203,
				0.10909879207611084,
				0.05713977664709091
			],
			"min":[
				-0.4900534749031067,
				-0.03305882215499878,
				-0.04495624825358391
			],
			"type":"VEC3"
		},
		{
			"bufferView":29,
			"componentType":5126,
			"count":82,
			"type":"VEC3"
		},
		{
			"bufferView":30,
			"componentType":5126,
			"count":82,
			"type":"VEC2"
		},
		{
			"bufferView":31,
			"componentType":5123,
			"count":264,
			"type":"SCALAR"
		},
		{
			"bufferView":32,
			"componentType":5126,
			"count":942,
			"max":[
				0.5523163080215454,
				0.11280393600463867,
				0.11197112500667572
			],
			"min":[
				-0.5115774869918823,
				-0.10397404432296753,
				-0.052036747336387634
			],
			"type":"VEC3"
		},
		{
			"bufferView":33,
			"componentType":5126,
			"count":942,
			"type":"VEC3"
		},
		{
			"bufferView":34,
			"componentType":5126,
			"count":942,
			"type":"VEC2"
		},
		{
			"bufferView":35,
			"componentType":5123,
			"count":5472,
			"type":"SCALAR"
		},
		{
			"bufferView":36,
			"componentType":5126,
			"count":280,
			"max":[
				0.19256292283535004,
				0.6177819967269897,
				0.1341370791196823
			],
			"min":[
				-0.1653459221124649,
				0.07001388072967529,
				-0.16883917152881622
			],
			"type":"VEC3"
		},
		{
			"bufferView":37,
			"componentType":5126,
			"count":280,
			"type":"VEC3"
		},
		{
			"bufferView":38,
			"componentType":5126,
			"count":280,
			"type":"VEC2"
		},
		{
			"bufferView":39,
			"componentType":5123,
			"count":1320,
			"type":"SCALAR"
		},
		{
			"bufferView":40,
			"componentType":5126,
			"count":172,
			"max":[
				0.3046085834503174,
				0.17793643474578857,
				0.16278837621212006
			],
			"min":[
				-0.23248521983623505,
				-0.796263575553894,
				-0.21648941934108734
			],
			"type":"VEC3"
		},
		{
			"bufferView":41,
			"componentType":5126,
			"count":172,
			"type":"VEC3"
		},
		{
			"bufferView":42,
			"componentType":5126,
			"count":172,
			"type":"VEC2"
		},
		{
			"bufferView":43,
			"componentType":5123,
			"count":870,
			"type":"SCALAR"
		},
		{
			"bufferView":44,
			"componentType":5126,
			"count":649,
			"max":[
				0.5028968453407288,
				0.4272909164428711,
				0.2326785773038864
			],
			"min":[
				-0.4621577262878418,
				-0.8220934867858887,
				-0.24925221502780914
			],
			"type":"VEC3"
		},
		{
			"bufferView":45,
			"componentType":5126,
			"count":649,
			"type":"VEC3"
		},
		{
			"bufferView":46,
			"componentType":5126,
			"count":649,
			"type":"VEC2"
		},
		{
			"bufferView":47,
			"componentType":5123,
			"count":1770,
			"type":"SCALAR"
		},
		{
			"bufferView":48,
			"componentType":5126,
			"count":96,
			"max":[
				0.5124582052230835,
				0.4287986755371094,
				0.09432342648506165
			],
			"min":[
				-0.471727192401886,
				0.020383715629577637,
				-0.03930198773741722
			],
			"type":"VEC3"
		},
		{
			"bufferView":49,
			"componentType":5126,
			"count":96,
			"type":"VEC3"
		},
		{
			"bufferView":50,
			"componentType":5126,
			"count":96,
			"type":"VEC2"
		},
		{
			"bufferView":51,
			"componentType":5123,
			"count":456,
			"type":"SCALAR"
		},
		{
			"bufferView":52,
			"componentType":5126,
			"count":79,
			"max":[
				0.10302652418613434,
				0.5747460126876831,
				0.10205374658107758
			],
			"min":[
				-0.05322909727692604,
				0.15889346599578857,
				-0.020275719463825226
			],
			"type":"VEC3"
		},
		{
			"bufferView":53,
			"componentType":5126,
			"count":79,
			"type":"VEC3"
		},
		{
			"bufferView":54,
			"componentType":5126,
			"count":79,
			"type":"VEC2"
		},
		{
			"bufferView":55,
			"componentType":5123,
			"count":318,
			"type":"SCALAR"
		},
		{
			"bufferView":56,
			"componentType":5126,
			"count":1979,
			"max":[
				0.5124582052230835,
				0.6154561042785645,
				0.2093547135591507
			],
			"min":[
				-0.4925488233566284,
				-0.8220934867858887,
				-0.24925221502780914
			],
			"type":"VEC3"
		},
		{
			"bufferView":57,
			"componentType":5126,
			"count":1979,
			"type":"VEC3"
		},
		{
			"bufferView":58,
			"componentType":5126,
			"count":1979,
			"type":"VEC2"
		},
		{
			"bufferView":59,
			"componentType":5123,
			"count":9384,
			"type":"SCALAR"
		},
		{
			"bufferView":60,
			"componentType":5126,
			"count":12,
			"max":[
				-0.4860367774963379,
				-0.020113229751586914,
				-0.00037229806184768677
			],
			"min":[
				-0.4926116466522217,
				-0.03505474328994751,
				-0.01737397350370884
			],
			"type":"VEC3"
		},
		{
			"bufferView":61,
			"componentType":5126,
			"count":12,
			"type":"VEC3"
		},
		{
			"bufferView":62,
			"componentType":5126,
			"count":12,
			"type":"VEC2"
		},
		{
			"bufferView":63,
			"componentType":5123,
			"count":30,
			"type":"SCALAR"
		},
		{
			"bufferView":64,
			"componentType":5126,
			"count":350,
			"max":[
				-0.40786948800086975,
				0.038135409355163574,
				0.10059453547000885
			],
			"min":[
				-0.4936870336532593,
				-0.037637412548065186,
				-0.021695375442504883
			],
			"type":"VEC3"
		},
		{
			"bufferView":65,
			"componentType":5126,
			"count":350,
			"type":"VEC3"
		},
		{
			"bufferView":66,
			"componentType":5126,
			"count":350,
			"type":"VEC2"
		},
		{
			"bufferView":67,
			"componentType":5123,
			"count":564,
			"type":"SCALAR"
		},
		{
			"bufferView":68,
			"componentType":5126,
			"count":12,
			"max":[
				-0.41407468914985657,
				0.03893697261810303,
				0.10081453621387482
			],
			"min":[
				-0.43741121888160706,
				0.014915227890014648,
				0.07749772071838379
			],
			"type":"VEC3"
		},
		{
			"bufferView":69,
			"componentType":5126,
			"count":12,
			"type":"VEC3"
		},
		{
			"bufferView":70,
			"componentType":5126,
			"count":12,
			"type":"VEC2"
		},
		{
			"bufferView":71,
			"componentType":5123,
			"count":36,
			"type":"SCALAR"
		},
		{
			"bufferView":72,
			"componentType":5126,
			"count":704,
			"max":[
				0.2269846796989441,
				0.06669497489929199,
				0.18962587416172028
			],
			"min":[
				-0.22698473930358887,
				-0.06725155562162399,
				-0.1541925072669983
			],
			"type":"VEC3"
		},
		{
			"bufferView":73,
			"componentType":5126,
			"count":704,
			"type":"VEC3"
		},
		{
			"bufferView":74,
			"componentType":5126,
			"count":704,
			"type":"VEC2"
		},
		{
			"bufferView":75,
			"componentType":5123,
			"count":3444,
			"type":"SCALAR"
		},
		{
			"bufferView":76,
			"componentType":5126,
			"count":204,
			"max":[
				0.19010286033153534,
				0.04005551338195801,
				0.09345132857561111
			],
			"min":[
				-0.19251635670661926,
				-0.04647243022918701,
				-0.19350719451904297
			],
			"type":"VEC3"
		},
		{
			"bufferView":77,
			"componentType":5126,
			"count":204,
			"type":"VEC3"
		},
		{
			"bufferView":78,
			"componentType":5126,
			"count":204,
			"type":"VEC2"
		},
		{
			"bufferView":79,
			"componentType":5123,
			"count":987,
			"type":"SCALAR"
		},
		{
			"bufferView":80,
			"componentType":5126,
			"count":34,
			"max":[
				0.05695277824997902,
				0.020462512969970703,
				0.10718954354524612
			],
			"min":[
				-0.05610452964901924,
				-0.04337108135223389,
				0.10541229695081711
			],
			"type":"VEC3"
		},
		{
			"bufferView":81,
			"componentType":5126,
			"count":34,
			"type":"VEC3"
		},
		{
			"bufferView":82,
			"componentType":5126,
			"count":34,
			"type":"VEC2"
		},
		{
			"bufferView":83,
			"componentType":5123,
			"count":96,
			"type":"SCALAR"
		},
		{
			"bufferView":84,
			"componentType":5126,
			"count":190,
			"max":[
				0.09438170492649078,
				0.0296628475189209,
				0.10718954354524612
			],
			"min":[
				-0.0949384793639183,
				-0.053090691566467285,
				0.07348807901144028
			],
			"type":"VEC3"
		},
		{
			"bufferView":85,
			"componentType":5126,
			"count":190,
			"type":"VEC3"
		},
		{
			"bufferView":86,
			"componentType":5126,
			"count":190,
			"type":"VEC2"
		},
		{
			"bufferView":87,
			"componentType":5123,
			"count":660,
			"type":"SCALAR"
		},
		{
			"bufferView":88,
			"componentType":5126,
			"count":217,
			"max":[
				0.26475635170936584,
				0.6339423060417175,
				0.17581471800804138
			],
			"min":[
				-0.20206297934055328,
				-0.38065260648727417,
				-0.08889608830213547
			],
			"type":"VEC3"
		},
		{
			"bufferView":89,
			"componentType":5126,
			"count":217,
			"type":"VEC3"
		},
		{
			"bufferView":90,
			"componentType":5126,
			"count":217,
			"type":"VEC2"
		},
		{
			"bufferView":91,
			"componentType":5123,
			"count":936,
			"type":"SCALAR"
		},
		{
			"bufferView":92,
			"componentType":5126,
			"count":2097,
			"max":[
				0.0960618406534195,
				0.14825546741485596,
				0.05859801918268204
			],
			"min":[
				-0.09583979845046997,
				-0.1642228364944458,
				-0.17344677448272705
			],
			"type":"VEC3"
		},
		{
			"bufferView":93,
			"componentType":5126,
			"count":2097,
			"type":"VEC3"
		},
		{
			"bufferView":94,
			"componentType":5126,
			"count":2097,
			"type":"VEC2"
		},
		{
			"bufferView":95,
			"componentType":5123,
			"count":12048,
			"type":"SCALAR"
		},
		{
			"bufferView":96,
			"componentType":5126,
			"count":2097,
			"max":[
				0.001987982541322708,
				0.0015352964401245117,
				0.0004704296588897705
			],
			"min":[
				-0.0019824951887130737,
				-0.010959148406982422,
				-0.004898205399513245
			],
			"type":"VEC3"
		},
		{
			"bufferView":97,
			"componentType":5126,
			"count":2097,
			"type":"VEC3"
		},
		{
			"bufferView":98,
			"componentType":5126,
			"count":2097,
			"max":[
				0.007394928485155106,
				0.012847304344177246,
				0.0024813637137413025
			],
			"min":[
				-0.007395002990961075,
				-0.0010061264038085938,
				-0.0068261027336120605
			],
			"type":"VEC3"
		},
		{
			"bufferView":99,
			"componentType":5126,
			"count":2097,
			"type":"VEC3"
		},
		{
			"bufferView":100,
			"componentType":5126,
			"count":550,
			"max":[
				0.08205204457044601,
				0.07200825214385986,
				0.08412560820579529
			],
			"min":[
				-0.0823323205113411,
				-0.1045994758605957,
				-0.12123416364192963
			],
			"type":"VEC3"
		},
		{
			"bufferView":101,
			"componentType":5126,
			"count":550,
			"type":"VEC3"
		},
		{
			"bufferView":102,
			"componentType":5126,
			"count":550,
			"type":"VEC2"
		},
		{
			"bufferView":103,
			"componentType":5123,
			"count":3000,
			"type":"SCALAR"
		},
		{
			"bufferView":104,
			"componentType":5126,
			"count":367,
			"max":[
				0.08185238391160965,
				0.08677017688751221,
				0.056920453906059265
			],
			"min":[
				-0.08154468983411789,
				-0.08873200416564941,
				-0.05626145750284195
			],
			"type":"VEC3"
		},
		{
			"bufferView":105,
			"componentType":5126,
			"count":367,
			"type":"VEC3"
		},
		{
			"bufferView":106,
			"componentType":5126,
			"count":367,
			"type":"VEC2"
		},
		{
			"bufferView":107,
			"componentType":5123,
			"count":1614,
			"type":"SCALAR"
		},
		{
			"bufferView":108,
			"componentType":5126,
			"count":367,
			"max":[
				0.0013654287904500961,
				0.00043702125549316406,
				0.002546735107898712
			],
			"min":[
				-0.0019256845116615295,
				-0.005339980125427246,
				-0.002846062183380127
			],
			"type":"VEC3"
		},
		{
			"bufferView":109,
			"componentType":5126,
			"count":367,
			"type":"VEC3"
		},
		{
			"bufferView":110,
			"componentType":5126,
			"count":367,
			"max":[
				0.005698449909687042,
				0.008722305297851562,
				0.0014901012182235718
			],
			"min":[
				-0.005764070898294449,
				-0.0002281665802001953,
				-0.008088909089565277
			],
			"type":"VEC3"
		},
		{
			"bufferView":111,
			"componentType":5126,
			"count":367,
			"type":"VEC3"
		},
		{
			"bufferView":112,
			"componentType":5126,
			"count":188,
			"max":[
				0.04758709669113159,
				0.12202310562133789,
				0.0439981147646904
			],
			"min":[
				-0.052719127386808395,
				0.05744147300720215,
				-0.05525236576795578
			],
			"type":"VEC3"
		},
		{
			"bufferView":113,
			"componentType":5126,
			"count":188,
			"type":"VEC3"
		},
		{
			"bufferView":114,
			"componentType":5126,
			"count":188,
			"type":"VEC2"
		},
		{
			"bufferView":115,
			"componentType":5123,
			"count":660,
			"type":"SCALAR"
		},
		{
			"bufferView":116,
			"componentType":5126,
			"count":3122,
			"max":[
				0.14080867171287537,
				0.08962535858154297,
				0.132806658744812
			],
			"min":[
				-0.13238288462162018,
				-0.20147526264190674,
				-0.129498690366745
			],
			"type":"VEC3"
		},
		{
			"bufferView":117,
			"componentType":5126,
			"count":3122,
			"type":"VEC3"
		},
		{
			"bufferView":118,
			"componentType":5126,
			"count":3122,
			"type":"VEC2"
		},
		{
			"bufferView":119,
			"componentType":5123,
			"count":4749,
			"type":"SCALAR"
		},
		{
			"bufferView":120,
			"componentType":5126,
			"count":120,
			"max":[
				0.016564570367336273,
				0.016428351402282715,
				0.006092168390750885
			],
			"min":[
				-0.015435095876455307,
				-0.01578676700592041,
				-0.010936424136161804
			],
			"type":"VEC3"
		},
		{
			"bufferView":121,
			"componentType":5126,
			"count":120,
			"type":"VEC3"
		},
		{
			"bufferView":122,
			"componentType":5126,
			"count":120,
			"type":"VEC2"
		},
		{
			"bufferView":123,
			"componentType":5123,
			"count":618,
			"type":"SCALAR"
		},
		{
			"bufferView":124,
			"componentType":5126,
			"count":120,
			"max":[
				0,
				0,
				0
			],
			"min":[
				0,
				0,
				0
			],
			"type":"VEC3"
		},
		{
			"bufferView":125,
			"componentType":5126,
			"count":120,
			"type":"VEC3"
		},
		{
			"bufferView":126,
			"componentType":5126,
			"count":120,
			"max":[
				0,
				0,
				0
			],
			"min":[
				0,
				0,
				0
			],
			"type":"VEC3"
		},
		{
			"bufferView":127,
			"componentType":5126,
			"count":120,
			"type":"VEC3"
		},
		{
			"bufferView":128,
			"componentType":5126,
			"count":120,
			"max":[
				0.015333332121372223,
				0.01637744903564453,
				0.006093204021453857
			],
			"min":[
				-0.016801774501800537,
				-0.01577150821685791,
				-0.010869987308979034
			],
			"type":"VEC3"
		},
		{
			"bufferView":129,
			"componentType":5126,
			"count":120,
			"type":"VEC3"
		},
		{
			"bufferView":130,
			"componentType":5126,
			"count":120,
			"type":"VEC2"
		},
		{
			"bufferView":131,
			"componentType":5123,
			"count":618,
			"type":"SCALAR"
		},
		{
			"bufferView":132,
			"componentType":5126,
			"count":120,
			"max":[
				0,
				0,
				0
			],
			"min":[
				0,
				0,
				0
			],
			"type":"VEC3"
		},
		{
			"bufferView":133,
			"componentType":5126,
			"count":120,
			"type":"VEC3"
		},
		{
			"bufferView":134,
			"componentType":5126,
			"count":120,
			"max":[
				0,
				0,
				0
			],
			"min":[
				0,
				0,
				0
			],
			"type":"VEC3"
		},
		{
			"bufferView":135,
			"componentType":5126,
			"count":120,
			"type":"VEC3"
		},
		{
			"bufferView":136,
			"componentType":5126,
			"count":29,
			"max":[
				-0.0035772351548075676,
				0.09235525131225586,
				-0.0006615668535232544
			],
			"min":[
				-0.0653846338391304,
				0.015707731246948242,
				-0.011206939816474915
			],
			"type":"VEC3"
		},
		{
			"bufferView":137,
			"componentType":5126,
			"count":29,
			"type":"VEC3"
		},
		{
			"bufferView":138,
			"componentType":5126,
			"count":29,
			"type":"VEC2"
		},
		{
			"bufferView":139,
			"componentType":5123,
			"count":57,
			"type":"SCALAR"
		},
		{
			"bufferView":140,
			"componentType":5126,
			"count":160,
			"max":[
				0.14181067049503326,
				0.022152304649353027,
				0.01414477825164795
			],
			"min":[
				-0.032516710460186005,
				-0.13899445533752441,
				-0.01437579095363617
			],
			"type":"VEC3"
		},
		{
			"bufferView":141,
			"componentType":5126,
			"count":160,
			"type":"VEC3"
		},
		{
			"bufferView":142,
			"componentType":5126,
			"count":160,
			"type":"VEC2"
		},
		{
			"bufferView":143,
			"componentType":5123,
			"count":645,
			"type":"SCALAR"
		},
		{
			"bufferView":144,
			"componentType":5126,
			"count":112,
			"max":[
				-0.003627079539000988,
				0.0901188850402832,
				0.013088420033454895
			],
			"min":[
				-0.06264255195856094,
				0.017638802528381348,
				-0.011206939816474915
			],
			"type":"VEC3"
		},
		{
			"bufferView":145,
			"componentType":5126,
			"count":112,
			"type":"VEC3"
		},
		{
			"bufferView":146,
			"componentType":5126,
			"count":112,
			"type":"VEC2"
		},
		{
			"bufferView":147,
			"componentType":5123,
			"count":447,
			"type":"SCALAR"
		},
		{
			"bufferView":148,
			"componentType":5126,
			"count":663,
			"max":[
				0.15793009102344513,
				0.10787689685821533,
				0.01825299859046936
			],
			"min":[
				-0.1092415601015091,
				-0.14385277032852173,
				-0.01573498547077179
			],
			"type":"VEC3"
		},
		{
			"bufferView":149,
			"componentType":5126,
			"count":663,
			"type":"VEC3"
		},
		{
			"bufferView":150,
			"componentType":5126,
			"count":663,
			"type":"VEC2"
		},
		{
			"bufferView":151,
			"componentType":5123,
			"count":2541,
			"type":"SCALAR"
		}
	],
	"bufferViews":[
		{
			"buffer":0,
			"byteLength":372,
			"byteOffset":0,
			"target":34962
		},
		{
			"buffer":0,
			"byteLength":372,
			"byteOffset":372,
			"target":34962
		},
		{
			"buffer":0,
			"byteLength":248,
			"byteOffset":744,
			"target":34962
		},
		{
			"buffer":0,
			"byteLength":228,
			"byteOffset":992,
			"target":34963
		},
		{
			"buffer":0,
			"byteLength":372,
			"byteOffset":1220,
			"target":34962
		},
		{
			"buffer":0,
			"byteLength":372,
			"byteOffset":1592,
			"target":34962
		},
		{
			"buffer":0,
			"byteLength":372,
			"byteOffset":1964,
			"target":34962
		},
		{
			"buffer":0,
			"byteLength":372,
			"byteOffset":2336,
			"target":34962
		},
		{
			"buffer":0,
			"byteLength":348,
			"byteOffset":2708,
			"target":34962
		},
		{
			"buffer":0,
			"byteLength":348,
			"byteOffset":3056,
			"target":34962
		},
		{
			"buffer":0,
			"byteLength":232,
			"byteOffset":3404,
			"target":34962
		},
		{
			"buffer":0,
			"byteLength":204,
			"byteOffset":3636,
			"target":34963
		},
		{
			"buffer":0,
			"byteLength":348,
			"byteOffset":3840,
			"target":34962
		},
		{
			"buffer":0,
			"byteLength":348,
			"byteOffset":4188,
			"target":34962
		},
		{
			"buffer":0,
			"byteLength":348,
			"byteOffset":4536,
			"target":34962
		},
		{
			"buffer":0,
			"byteLength":348,
			"byteOffset":4884,
			"target":34962
		},
		{
			"buffer":0,
			"byteLength":288,
			"byteOffset":5232,
			"target":34962
		},
		{
			"buffer":0,
			"byteLength":288,
			"byteOffset":5520,
			"target":34962
		},
		{
			"buffer":0,
			"byteLength":192,
			"byteOffset":5808,
			"target":34962
		},
		{
			"buffer":0,
			"byteLength":168,
			"byteOffset":6000,
			"target":34963
		},
		{
			"buffer":0,
			"byteLength":288,
			"byteOffset":6168,
			"target":34962
		},
		{
			"buffer":0,
			"byteLength":288,
			"byteOffset":6456,
			"target":34962
		},
		{
			"buffer":0,
			"byteLength":288,
			"byteOffset":6744,
			"target":34962
		},
		{
			"buffer":0,
			"byteLength":288,
			"byteOffset":7032,
			"target":34962
		},
		{
			"buffer":0,
			"byteLength":4788,
			"byteOffset":7320,
			"target":34962
		},
		{
			"buffer":0,
			"byteLength":4788,
			"byteOffset":12108,
			"target":34962
		},
		{
			"buffer":0,
			"byteLength":3192,
			"byteOffset":16896,
			"target":34962
		},
		{
			"buffer":0,
			"byteLength":4752,
			"byteOffset":20088,
			"target":34963
		},
		{
			"buffer":0,
			"byteLength":984,
			"byteOffset":24840,
			"target":34962
		},
		{
			"buffer":0,
			"byteLength":984,
			"byteOffset":25824,
			"target":34962
		},
		{
			"buffer":0,
			"byteLength":656,
			"byteOffset":26808,
			"target":34962
		},
		{
			"buffer":0,
			"byteLength":528,
			"byteOffset":27464,
			"target":34963
		},
		{
			"buffer":0,
			"byteLength":11304,
			"byteOffset":27992,
			"target":34962
		},
		{
			"buffer":0,
			"byteLength":11304,
			"byteOffset":39296,
			"target":34962
		},
		{
			"buffer":0,
			"byteLength":7536,
			"byteOffset":50600,
			"target":34962
		},
		{
			"buffer":0,
			"byteLength":10944,
			"byteOffset":58136,
			"target":34963
		},
		{
			"buffer":0,
			"byteLength":3360,
			"byteOffset":69080,
			"target":34962
		},
		{
			"buffer":0,
			"byteLength":3360,
			"byteOffset":72440,
			"target":34962
		},
		{
			"buffer":0,
			"byteLength":2240,
			"byteOffset":75800,
			"target":34962
		},
		{
			"buffer":0,
			"byteLength":2640,
			"byteOffset":78040,
			"target":34963
		},
		{
			"buffer":0,
			"byteLength":2064,
			"byteOffset":80680,
			"target":34962
		},
		{
			"buffer":0,
			"byteLength":2064,
			"byteOffset":82744,
			"target":34962
		},
		{
			"buffer":0,
			"byteLength":1376,
			"byteOffset":84808,
			"target":34962
		},
		{
			"buffer":0,
			"byteLength":1740,
			"byteOffset":86184,
			"target":34963
		},
		{
			"buffer":0,
			"byteLength":7788,
			"byteOffset":87924,
			"target":34962
		},
		{
			"buffer":0,
			"byteLength":7788,
			"byteOffset":95712,
			"target":34962
		},
		{
			"buffer":0,
			"byteLength":5192,
			"byteOffset":103500,
			"target":34962
		},
		{
			"buffer":0,
			"byteLength":3540,
			"byteOffset":108692,
			"target":34963
		},
		{
			"buffer":0,
			"byteLength":1152,
			"byteOffset":112232,
			"target":34962
		},
		{
			"buffer":0,
			"byteLength":1152,
			"byteOffset":113384,
			"target":34962
		},
		{
			"buffer":0,
			"byteLength":768,
			"byteOffset":114536,
			"target":34962
		},
		{
			"buffer":0,
			"byteLength":912,
			"byteOffset":115304,
			"target":34963
		},
		{
			"buffer":0,
			"byteLength":948,
			"byteOffset":116216,
			"target":34962
		},
		{
			"buffer":0,
			"byteLength":948,
			"byteOffset":117164,
			"target":34962
		},
		{
			"buffer":0,
			"byteLength":632,
			"byteOffset":118112,
			"target":34962
		},
		{
			"buffer":0,
			"byteLength":636,
			"byteOffset":118744,
			"target":34963
		},
		{
			"buffer":0,
			"byteLength":23748,
			"byteOffset":119380,
			"target":34962
		},
		{
			"buffer":0,
			"byteLength":23748,
			"byteOffset":143128,
			"target":34962
		},
		{
			"buffer":0,
			"byteLength":15832,
			"byteOffset":166876,
			"target":34962
		},
		{
			"buffer":0,
			"byteLength":18768,
			"byteOffset":182708,
			"target":34963
		},
		{
			"buffer":0,
			"byteLength":144,
			"byteOffset":201476,
			"target":34962
		},
		{
			"buffer":0,
			"byteLength":144,
			"byteOffset":201620,
			"target":34962
		},
		{
			"buffer":0,
			"byteLength":96,
			"byteOffset":201764,
			"target":34962
		},
		{
			"buffer":0,
			"byteLength":60,
			"byteOffset":201860,
			"target":34963
		},
		{
			"buffer":0,
			"byteLength":4200,
			"byteOffset":201920,
			"target":34962
		},
		{
			"buffer":0,
			"byteLength":4200,
			"byteOffset":206120,
			"target":34962
		},
		{
			"buffer":0,
			"byteLength":2800,
			"byteOffset":210320,
			"target":34962
		},
		{
			"buffer":0,
			"byteLength":1128,
			"byteOffset":213120,
			"target":34963
		},
		{
			"buffer":0,
			"byteLength":144,
			"byteOffset":214248,
			"target":34962
		},
		{
			"buffer":0,
			"byteLength":144,
			"byteOffset":214392,
			"target":34962
		},
		{
			"buffer":0,
			"byteLength":96,
			"byteOffset":214536,
			"target":34962
		},
		{
			"buffer":0,
			"byteLength":72,
			"byteOffset":214632,
			"target":34963
		},
		{
			"buffer":0,
			"byteLength":8448,
			"byteOffset":214704,
			"target":34962
		},
		{
			"buffer":0,
			"byteLength":8448,
			"byteOffset":223152,
			"target":34962
		},
		{
			"buffer":0,
			"byteLength":5632,
			"byteOffset":231600,
			"target":34962
		},
		{
			"buffer":0,
			"byteLength":6888,
			"byteOffset":237232,
			"target":34963
		},
		{
			"buffer":0,
			"byteLength":2448,
			"byteOffset":244120,
			"target":34962
		},
		{
			"buffer":0,
			"byteLength":2448,
			"byteOffset":246568,
			"target":34962
		},
		{
			"buffer":0,
			"byteLength":1632,
			"byteOffset":249016,
			"target":34962
		},
		{
			"buffer":0,
			"byteLength":1974,
			"byteOffset":250648,
			"target":34963
		},
		{
			"buffer":0,
			"byteLength":408,
			"byteOffset":252624,
			"target":34962
		},
		{
			"buffer":0,
			"byteLength":408,
			"byteOffset":253032,
			"target":34962
		},
		{
			"buffer":0,
			"byteLength":272,
			"byteOffset":253440,
			"target":34962
		},
		{
			"buffer":0,
			"byteLength":192,
			"byteOffset":253712,
			"target":34963
		},
		{
			"buffer":0,
			"byteLength":2280,
			"byteOffset":253904,
			"target":34962
		},
		{
			"buffer":0,
			"byteLength":2280,
			"byteOffset":256184,
			"target":34962
		},
		{
			"buffer":0,
			"byteLength":1520,
			"byteOffset":258464,
			"target":34962
		},
		{
			"buffer":0,
			"byteLength":1320,
			"byteOffset":259984,
			"target":34963
		},
		{
			"buffer":0,
			"byteLength":2604,
			"byteOffset":261304,
			"target":34962
		},
		{
			"buffer":0,
			"byteLength":2604,
			"byteOffset":263908,
			"target":34962
		},
		{
			"buffer":0,
			"byteLength":1736,
			"byteOffset":266512,
			"target":34962
		},
		{
			"buffer":0,
			"byteLength":1872,
			"byteOffset":268248,
			"target":34963
		},
		{
			"buffer":0,
			"byteLength":25164,
			"byteOffset":270120,
			"target":34962
		},
		{
			"buffer":0,
			"byteLength":25164,
			"byteOffset":295284,
			"target":34962
		},
		{
			"buffer":0,
			"byteLength":16776,
			"byteOffset":320448,
			"target":34962
		},
		{
			"buffer":0,
			"byteLength":24096,
			"byteOffset":337224,
			"target":34963
		},
		{
			"buffer":0,
			"byteLength":25164,
			"byteOffset":361320,
			"target":34962
		},
		{
			"buffer":0,
			"byteLength":25164,
			"byteOffset":386484,
			"target":34962
		},
		{
			"buffer":0,
			"byteLength":25164,
			"byteOffset":411648,
			"target":34962
		},
		{
			"buffer":0,
			"byteLength":25164,
			"byteOffset":436812,
			"target":34962
		},
		{
			"buffer":0,
			"byteLength":6600,
			"byteOffset":461976,
			"target":34962
		},
		{
			"buffer":0,
			"byteLength":6600,
			"byteOffset":468576,
			"target":34962
		},
		{
			"buffer":0,
			"byteLength":4400,
			"byteOffset":475176,
			"target":34962
		},
		{
			"buffer":0,
			"byteLength":6000,
			"byteOffset":479576,
			"target":34963
		},
		{
			"buffer":0,
			"byteLength":4404,
			"byteOffset":485576,
			"target":34962
		},
		{
			"buffer":0,
			"byteLength":4404,
			"byteOffset":489980,
			"target":34962
		},
		{
			"buffer":0,
			"byteLength":2936,
			"byteOffset":494384,
			"target":34962
		},
		{
			"buffer":0,
			"byteLength":3228,
			"byteOffset":497320,
			"target":34963
		},
		{
			"buffer":0,
			"byteLength":4404,
			"byteOffset":500548,
			"target":34962
		},
		{
			"buffer":0,
			"byteLength":4404,
			"byteOffset":504952,
			"target":34962
		},
		{
			"buffer":0,
			"byteLength":4404,
			"byteOffset":509356,
			"target":34962
		},
		{
			"buffer":0,
			"byteLength":4404,
			"byteOffset":513760,
			"target":34962
		},
		{
			"buffer":0,
			"byteLength":2256,
			"byteOffset":518164,
			"target":34962
		},
		{
			"buffer":0,
			"byteLength":2256,
			"byteOffset":520420,
			"target":34962
		},
		{
			"buffer":0,
			"byteLength":1504,
			"byteOffset":522676,
			"target":34962
		},
		{
			"buffer":0,
			"byteLength":1320,
			"byteOffset":524180,
			"target":34963
		},
		{
			"buffer":0,
			"byteLength":37464,
			"byteOffset":525500,
			"target":34962
		},
		{
			"buffer":0,
			"byteLength":37464,
			"byteOffset":562964,
			"target":34962
		},
		{
			"buffer":0,
			"byteLength":24976,
			"byteOffset":600428,
			"target":34962
		},
		{
			"buffer":0,
			"byteLength":9498,
			"byteOffset":625404,
			"target":34963
		},
		{
			"buffer":0,
			"byteLength":1440,
			"byteOffset":634904,
			"target":34962
		},
		{
			"buffer":0,
			"byteLength":1440,
			"byteOffset":636344,
			"target":34962
		},
		{
			"buffer":0,
			"byteLength":960,
			"byteOffset":637784,
			"target":34962
		},
		{
			"buffer":0,
			"byteLength":1236,
			"byteOffset":638744,
			"target":34963
		},
		{
			"buffer":0,
			"byteLength":1440,
			"byteOffset":639980,
			"target":34962
		},
		{
			"buffer":0,
			"byteLength":1440,
			"byteOffset":641420,
			"target":34962
		},
		{
			"buffer":0,
			"byteLength":1440,
			"byteOffset":642860,
			"target":34962
		},
		{
			"buffer":0,
			"byteLength":1440,
			"byteOffset":644300,
			"target":34962
		},
		{
			"buffer":0,
			"byteLength":1440,
			"byteOffset":645740,
			"target":34962
		},
		{
			"buffer":0,
			"byteLength":1440,
			"byteOffset":647180,
			"target":34962
		},
		{
			"buffer":0,
			"byteLength":960,
			"byteOffset":648620,
			"target":34962
		},
		{
			"buffer":0,
			"byteLength":1236,
			"byteOffset":649580,
			"target":34963
		},
		{
			"buffer":0,
			"byteLength":1440,
			"byteOffset":650816,
			"target":34962
		},
		{
			"buffer":0,
			"byteLength":1440,
			"byteOffset":652256,
			"target":34962
		},
		{
			"buffer":0,
			"byteLength":1440,
			"byteOffset":653696,
			"target":34962
		},
		{
			"buffer":0,
			"byteLength":1440,
			"byteOffset":655136,
			"target":34962
		},
		{
			"buffer":0,
			"byteLength":348,
			"byteOffset":656576,
			"target":34962
		},
		{
			"buffer":0,
			"byteLength":348,
			"byteOffset":656924,
			"target":34962
		},
		{
			"buffer":0,
			"byteLength":232,
			"byteOffset":657272,
			"target":34962
		},
		{
			"buffer":0,
			"byteLength":114,
			"byteOffset":657504,
			"target":34963
		},
		{
			"buffer":0,
			"byteLength":1920,
			"byteOffset":657620,
			"target":34962
		},
		{
			"buffer":0,
			"byteLength":1920,
			"byteOffset":659540,
			"target":34962
		},
		{
			"buffer":0,
			"byteLength":1280,
			"byteOffset":661460,
			"target":34962
		},
		{
			"buffer":0,
			"byteLength":1290,
			"byteOffset":662740,
			"target":34963
		},
		{
			"buffer":0,
			"byteLength":1344,
			"byteOffset":664032,
			"target":34962
		},
		{
			"buffer":0,
			"byteLength":1344,
			"byteOffset":665376,
			"target":34962
		},
		{
			"buffer":0,
			"byteLength":896,
			"byteOffset":666720,
			"target":34962
		},
		{
			"buffer":0,
			"byteLength":894,
			"byteOffset":667616,
			"target":34963
		},
		{
			"buffer":0,
			"byteLength":7956,
			"byteOffset":668512,
			"target":34962
		},
		{
			"buffer":0,
			"byteLength":7956,
			"byteOffset":676468,
			"target":34962
		},
		{
			"buffer":0,
			"byteLength":5304,
			"byteOffset":684424,
			"target":34962
		},
		{
			"buffer":0,
			"byteLength":5082,
			"byteOffset":689728,
			"target":34963
		}
	],
	"samplers":[
		{
			"magFilter":9729,
			"minFilter":9987
		},
		{
			"magFilter":9729,
			"minFilter":9987,
			"wrapS":33071,
			"wrapT":33071
		}
	],
	"buffers":[
		{
			"byteLength":694812,
			"uri":"FSM-150825kemiksiz.bin"
		}
	]
}
