{
	"asset":{
		"generator":"Khronos glTF Blender I/O v3.6.27",
		"version":"2.0"
	},
	"scene":0,
	"scenes":[
		{
			"name":"Scene",
			"nodes":[
				0,
				2,
				3,
				4,
				5,
				6,
				7,
				8,
				9,
				10,
				11,
				12,
				13,
				14,
				15,
				16
			]
		}
	],
	"nodes":[
		{
			"mesh":0,
			"name":"Yazi1",
			"scale":[
				0.0010192259214818478,
				0.0010192259214818478,
				0.0010192259214818478
			]
		},
		{
			"mesh":1,
			"name":"YaziR",
			"scale":[
				1.0576800107955933,
				1.057682991027832,
				1.057682991027832
			],
			"translation":[
				0.1602916717529297,
				-0.0133056640625,
				0
			]
		},
		{
			"children":[
				1
			],
			"mesh":2,
			"name":"Yazi2",
			"scale":[
				0.0010557865025475621,
				0.0010557865025475621,
				0.0010557865025475621
			],
			"translation":[
				0.008703005500137806,
				-0.6274706125259399,
				0.003377667162567377
			]
		},
		{
			"mesh":3,
			"name":"Dal",
			"translation":[
				-0.04565016180276871,
				0.1910727471113205,
				0.003453390207141638
			]
		},
		{
			"mesh":4,
			"name":"Cube.001",
			"rotation":[
				0,
				0,
				-0.02323957160115242,
				0.9997299313545227
			],
			"translation":[
				1.2631562948226929,
				0.512225329875946,
				0.0034534514416009188
			]
		},
		{
			"mesh":5,
			"name":"Cube.003",
			"rotation":[
				0,
				0,
				0.0262007974088192,
				0.9996567368507385
			],
			"translation":[
				-1.2574069499969482,
				0.4990907907485962,
				0.00377189414575696
			]
		},
		{
			"mesh":6,
			"name":"Cube.004",
			"rotation":[
				0,
				0,
				-0.010215647518634796,
				0.9999479055404663
			],
			"translation":[
				-1.9326343536376953,
				0.5410058498382568,
				0.04716804623603821
			]
		},
		{
			"mesh":7,
			"name":"Cube.005",
			"rotation":[
				0,
				0,
				0.018161281943321228,
				0.9998350739479065
			],
			"translation":[
				1.9572179317474365,
				0.5458579659461975,
				0.04730561375617981
			]
		},
		{
			"mesh":8,
			"name":"Cube.006",
			"translation":[
				2.134589433670044,
				-0.3034606873989105,
				0.003453347831964493
			]
		},
		{
			"mesh":9,
			"name":"Cube.007",
			"rotation":[
				0,
				0,
				-8.726492524147034e-06,
				1
			],
			"translation":[
				1.7560467720031738,
				0.7292051315307617,
				0.004443848505616188
			]
		},
		{
			"mesh":10,
			"name":"Cube.008",
			"rotation":[
				0,
				0,
				-0.005750035401433706,
				0.9999834895133972
			],
			"translation":[
				2.069777727127075,
				0.5787069201469421,
				0.003453459357842803
			]
		},
		{
			"mesh":11,
			"name":"Cube.009",
			"rotation":[
				0,
				0,
				-8.726725354790688e-06,
				1
			],
			"translation":[
				-1.0277314186096191,
				0.7688426971435547,
				0.0034534852020442486
			]
		},
		{
			"mesh":12,
			"name":"Cube.010",
			"rotation":[
				0,
				0,
				0.0028158563654869795,
				0.9999960660934448
			],
			"translation":[
				-2.1261000633239746,
				-0.3038128912448883,
				0.003453347831964493
			]
		},
		{
			"mesh":13,
			"name":"Cube.022",
			"rotation":[
				0,
				0,
				0.018941184505820274,
				0.9998205900192261
			],
			"translation":[
				-1.9797146320343018,
				0.672212541103363,
				0.0034534705337136984
			]
		},
		{
			"mesh":14,
			"name":"Cube.023",
			"rotation":[
				0,
				0,
				-8.72660893946886e-06,
				1
			],
			"translation":[
				-1.7315597534179688,
				0.7138867378234863,
				0.003456822596490383
			]
		},
		{
			"mesh":15,
			"name":"Cube.024",
			"rotation":[
				0,
				0,
				-8.726646228751633e-06,
				1
			],
			"translation":[
				2.0709071159362793,
				0.2077718824148178,
				0.0034534160513430834
			]
		},
		{
			"mesh":16,
			"name":"Cube.025",
			"rotation":[
				0,
				0,
				0.011848772875964642,
				0.9999298453330994
			],
			"translation":[
				1.88412344455719,
				-0.27494218945503235,
				0.003453353652730584
			]
		}
	],
	"animations":[
		{
			"channels":[
				{
					"sampler":0,
					"target":{
						"node":0,
						"path":"translation"
					}
				},
				{
					"sampler":1,
					"target":{
						"node":0,
						"path":"rotation"
					}
				},
				{
					"sampler":2,
					"target":{
						"node":0,
						"path":"scale"
					}
				}
			],
			"name":"Yazi1Action.001",
			"samplers":[
				{
					"input":78,
					"interpolation":"STEP",
					"output":79
				},
				{
					"input":78,
					"interpolation":"STEP",
					"output":80
				},
				{
					"input":81,
					"interpolation":"LINEAR",
					"output":82
				}
			]
		},
		{
			"channels":[
				{
					"sampler":0,
					"target":{
						"node":2,
						"path":"translation"
					}
				},
				{
					"sampler":1,
					"target":{
						"node":2,
						"path":"rotation"
					}
				},
				{
					"sampler":2,
					"target":{
						"node":2,
						"path":"scale"
					}
				}
			],
			"name":"Yazi2Action",
			"samplers":[
				{
					"input":81,
					"interpolation":"LINEAR",
					"output":83
				},
				{
					"input":78,
					"interpolation":"STEP",
					"output":84
				},
				{
					"input":81,
					"interpolation":"LINEAR",
					"output":85
				}
			]
		},
		{
			"channels":[
				{
					"sampler":0,
					"target":{
						"node":1,
						"path":"translation"
					}
				},
				{
					"sampler":1,
					"target":{
						"node":1,
						"path":"rotation"
					}
				},
				{
					"sampler":2,
					"target":{
						"node":1,
						"path":"scale"
					}
				}
			],
			"name":"YaziRAction",
			"samplers":[
				{
					"input":86,
					"interpolation":"LINEAR",
					"output":87
				},
				{
					"input":86,
					"interpolation":"LINEAR",
					"output":88
				},
				{
					"input":86,
					"interpolation":"LINEAR",
					"output":89
				}
			]
		},
		{
			"channels":[
				{
					"sampler":0,
					"target":{
						"node":4,
						"path":"translation"
					}
				},
				{
					"sampler":1,
					"target":{
						"node":4,
						"path":"rotation"
					}
				},
				{
					"sampler":2,
					"target":{
						"node":4,
						"path":"scale"
					}
				}
			],
			"name":"Cube.001Action",
			"samplers":[
				{
					"input":90,
					"interpolation":"STEP",
					"output":91
				},
				{
					"input":86,
					"interpolation":"LINEAR",
					"output":92
				},
				{
					"input":90,
					"interpolation":"STEP",
					"output":93
				}
			]
		},
		{
			"channels":[
				{
					"sampler":0,
					"target":{
						"node":5,
						"path":"translation"
					}
				},
				{
					"sampler":1,
					"target":{
						"node":5,
						"path":"rotation"
					}
				},
				{
					"sampler":2,
					"target":{
						"node":5,
						"path":"scale"
					}
				}
			],
			"name":"Cube.003Action",
			"samplers":[
				{
					"input":94,
					"interpolation":"STEP",
					"output":95
				},
				{
					"input":96,
					"interpolation":"LINEAR",
					"output":97
				},
				{
					"input":94,
					"interpolation":"STEP",
					"output":98
				}
			]
		},
		{
			"channels":[
				{
					"sampler":0,
					"target":{
						"node":6,
						"path":"translation"
					}
				},
				{
					"sampler":1,
					"target":{
						"node":6,
						"path":"rotation"
					}
				},
				{
					"sampler":2,
					"target":{
						"node":6,
						"path":"scale"
					}
				}
			],
			"name":"Cube.004Action",
			"samplers":[
				{
					"input":94,
					"interpolation":"STEP",
					"output":99
				},
				{
					"input":96,
					"interpolation":"LINEAR",
					"output":100
				},
				{
					"input":94,
					"interpolation":"STEP",
					"output":101
				}
			]
		},
		{
			"channels":[
				{
					"sampler":0,
					"target":{
						"node":7,
						"path":"translation"
					}
				},
				{
					"sampler":1,
					"target":{
						"node":7,
						"path":"rotation"
					}
				},
				{
					"sampler":2,
					"target":{
						"node":7,
						"path":"scale"
					}
				}
			],
			"name":"Cube.005Action",
			"samplers":[
				{
					"input":90,
					"interpolation":"STEP",
					"output":102
				},
				{
					"input":86,
					"interpolation":"LINEAR",
					"output":103
				},
				{
					"input":90,
					"interpolation":"STEP",
					"output":104
				}
			]
		},
		{
			"channels":[
				{
					"sampler":0,
					"target":{
						"node":9,
						"path":"translation"
					}
				},
				{
					"sampler":1,
					"target":{
						"node":9,
						"path":"rotation"
					}
				},
				{
					"sampler":2,
					"target":{
						"node":9,
						"path":"scale"
					}
				}
			],
			"name":"Cube.007Action",
			"samplers":[
				{
					"input":90,
					"interpolation":"STEP",
					"output":105
				},
				{
					"input":86,
					"interpolation":"LINEAR",
					"output":106
				},
				{
					"input":90,
					"interpolation":"STEP",
					"output":107
				}
			]
		},
		{
			"channels":[
				{
					"sampler":0,
					"target":{
						"node":10,
						"path":"translation"
					}
				},
				{
					"sampler":1,
					"target":{
						"node":10,
						"path":"rotation"
					}
				},
				{
					"sampler":2,
					"target":{
						"node":10,
						"path":"scale"
					}
				}
			],
			"name":"Cube.008Action",
			"samplers":[
				{
					"input":90,
					"interpolation":"STEP",
					"output":108
				},
				{
					"input":86,
					"interpolation":"LINEAR",
					"output":109
				},
				{
					"input":90,
					"interpolation":"STEP",
					"output":110
				}
			]
		},
		{
			"channels":[
				{
					"sampler":0,
					"target":{
						"node":11,
						"path":"translation"
					}
				},
				{
					"sampler":1,
					"target":{
						"node":11,
						"path":"rotation"
					}
				},
				{
					"sampler":2,
					"target":{
						"node":11,
						"path":"scale"
					}
				}
			],
			"name":"Cube.009Action",
			"samplers":[
				{
					"input":94,
					"interpolation":"STEP",
					"output":111
				},
				{
					"input":96,
					"interpolation":"LINEAR",
					"output":112
				},
				{
					"input":94,
					"interpolation":"STEP",
					"output":113
				}
			]
		},
		{
			"channels":[
				{
					"sampler":0,
					"target":{
						"node":12,
						"path":"translation"
					}
				},
				{
					"sampler":1,
					"target":{
						"node":12,
						"path":"rotation"
					}
				},
				{
					"sampler":2,
					"target":{
						"node":12,
						"path":"scale"
					}
				}
			],
			"name":"Cube.010Action",
			"samplers":[
				{
					"input":90,
					"interpolation":"STEP",
					"output":114
				},
				{
					"input":86,
					"interpolation":"LINEAR",
					"output":115
				},
				{
					"input":90,
					"interpolation":"STEP",
					"output":116
				}
			]
		},
		{
			"channels":[
				{
					"sampler":0,
					"target":{
						"node":13,
						"path":"translation"
					}
				},
				{
					"sampler":1,
					"target":{
						"node":13,
						"path":"rotation"
					}
				},
				{
					"sampler":2,
					"target":{
						"node":13,
						"path":"scale"
					}
				}
			],
			"name":"Cube.022Action",
			"samplers":[
				{
					"input":90,
					"interpolation":"STEP",
					"output":117
				},
				{
					"input":86,
					"interpolation":"LINEAR",
					"output":118
				},
				{
					"input":90,
					"interpolation":"STEP",
					"output":119
				}
			]
		},
		{
			"channels":[
				{
					"sampler":0,
					"target":{
						"node":14,
						"path":"translation"
					}
				},
				{
					"sampler":1,
					"target":{
						"node":14,
						"path":"rotation"
					}
				},
				{
					"sampler":2,
					"target":{
						"node":14,
						"path":"scale"
					}
				}
			],
			"name":"Cube.023Action",
			"samplers":[
				{
					"input":90,
					"interpolation":"STEP",
					"output":120
				},
				{
					"input":86,
					"interpolation":"LINEAR",
					"output":121
				},
				{
					"input":90,
					"interpolation":"STEP",
					"output":122
				}
			]
		},
		{
			"channels":[
				{
					"sampler":0,
					"target":{
						"node":15,
						"path":"translation"
					}
				},
				{
					"sampler":1,
					"target":{
						"node":15,
						"path":"rotation"
					}
				},
				{
					"sampler":2,
					"target":{
						"node":15,
						"path":"scale"
					}
				}
			],
			"name":"Cube.024Action",
			"samplers":[
				{
					"input":94,
					"interpolation":"STEP",
					"output":123
				},
				{
					"input":96,
					"interpolation":"LINEAR",
					"output":124
				},
				{
					"input":94,
					"interpolation":"STEP",
					"output":125
				}
			]
		},
		{
			"channels":[
				{
					"sampler":0,
					"target":{
						"node":16,
						"path":"translation"
					}
				},
				{
					"sampler":1,
					"target":{
						"node":16,
						"path":"rotation"
					}
				},
				{
					"sampler":2,
					"target":{
						"node":16,
						"path":"scale"
					}
				}
			],
			"name":"Cube.025Action",
			"samplers":[
				{
					"input":90,
					"interpolation":"STEP",
					"output":126
				},
				{
					"input":86,
					"interpolation":"LINEAR",
					"output":127
				},
				{
					"input":90,
					"interpolation":"STEP",
					"output":128
				}
			]
		}
	],
	"materials":[
		{
			"doubleSided":true,
			"name":"turuncu",
			"pbrMetallicRoughness":{
				"baseColorFactor":[
					0.6165447235107422,
					0.11623136699199677,
					0.016279423609375954,
					1
				],
				"metallicFactor":0,
				"roughnessFactor":0.5
			}
		},
		{
			"doubleSided":true,
			"name":"turkuaz",
			"pbrMetallicRoughness":{
				"baseColorFactor":[
					0.006048521026968956,
					0.11953828483819962,
					0.35153254866600037,
					1
				],
				"metallicFactor":0,
				"roughnessFactor":0.5
			}
		},
		{
			"doubleSided":true,
			"name":"yaprak",
			"pbrMetallicRoughness":{
				"baseColorTexture":{
					"index":0
				},
				"metallicFactor":0,
				"roughnessFactor":0.5
			}
		},
		{
			"doubleSided":true,
			"name":"Material",
			"pbrMetallicRoughness":{
				"baseColorFactor":[
					0.800000011920929,
					0.800000011920929,
					0.800000011920929,
					1
				],
				"metallicFactor":0,
				"roughnessFactor":0.5
			}
		},
		{
			"doubleSided":true,
			"name":"Material.002",
			"pbrMetallicRoughness":{
				"baseColorFactor":[
					0.7169411182403564,
					0.8000000715255737,
					0.13979767262935638,
					1
				],
				"metallicFactor":0.006622523069381714,
				"roughnessFactor":0.5
			}
		}
	],
	"meshes":[
		{
			"name":"Text",
			"primitives":[
				{
					"attributes":{
						"POSITION":0,
						"NORMAL":1,
						"TEXCOORD_0":2
					},
					"indices":3,
					"material":0
				}
			]
		},
		{
			"name":"Text.006",
			"primitives":[
				{
					"attributes":{
						"POSITION":4,
						"NORMAL":5,
						"TEXCOORD_0":6
					},
					"indices":7,
					"material":1
				}
			]
		},
		{
			"name":"Text.001",
			"primitives":[
				{
					"attributes":{
						"POSITION":8,
						"NORMAL":9,
						"TEXCOORD_0":10
					},
					"indices":11,
					"material":0
				}
			]
		},
		{
			"name":"Cube.012",
			"primitives":[
				{
					"attributes":{
						"COLOR_0":12,
						"POSITION":13,
						"NORMAL":14,
						"TEXCOORD_0":15
					},
					"indices":16,
					"material":2
				},
				{
					"attributes":{
						"COLOR_0":17,
						"POSITION":18,
						"NORMAL":19,
						"TEXCOORD_0":20
					},
					"indices":21,
					"material":3
				}
			]
		},
		{
			"name":"Cube.001",
			"primitives":[
				{
					"attributes":{
						"COLOR_0":22,
						"POSITION":23,
						"NORMAL":24,
						"TEXCOORD_0":25
					},
					"indices":26,
					"material":2
				}
			]
		},
		{
			"name":"Cube.002",
			"primitives":[
				{
					"attributes":{
						"COLOR_0":27,
						"POSITION":28,
						"NORMAL":29,
						"TEXCOORD_0":30
					},
					"indices":31,
					"material":2
				}
			]
		},
		{
			"name":"Cube.003",
			"primitives":[
				{
					"attributes":{
						"COLOR_0":32,
						"POSITION":33,
						"NORMAL":34,
						"TEXCOORD_0":35
					},
					"indices":36,
					"material":4
				}
			]
		},
		{
			"name":"Cube.004",
			"primitives":[
				{
					"attributes":{
						"COLOR_0":37,
						"POSITION":38,
						"NORMAL":39,
						"TEXCOORD_0":40
					},
					"indices":41,
					"material":4
				}
			]
		},
		{
			"name":"Cube.005",
			"primitives":[
				{
					"attributes":{
						"COLOR_0":42,
						"POSITION":43,
						"NORMAL":44,
						"TEXCOORD_0":45
					},
					"indices":26,
					"material":2
				}
			]
		},
		{
			"name":"Cube.006",
			"primitives":[
				{
					"attributes":{
						"COLOR_0":46,
						"POSITION":47,
						"NORMAL":48,
						"TEXCOORD_0":49
					},
					"indices":26,
					"material":2
				}
			]
		},
		{
			"name":"Cube.007",
			"primitives":[
				{
					"attributes":{
						"COLOR_0":50,
						"POSITION":51,
						"NORMAL":52,
						"TEXCOORD_0":53
					},
					"indices":26,
					"material":2
				}
			]
		},
		{
			"name":"Cube.008",
			"primitives":[
				{
					"attributes":{
						"COLOR_0":54,
						"POSITION":55,
						"NORMAL":56,
						"TEXCOORD_0":57
					},
					"indices":31,
					"material":2
				}
			]
		},
		{
			"name":"Cube.009",
			"primitives":[
				{
					"attributes":{
						"COLOR_0":58,
						"POSITION":59,
						"NORMAL":60,
						"TEXCOORD_0":61
					},
					"indices":31,
					"material":2
				}
			]
		},
		{
			"name":"Cube.010",
			"primitives":[
				{
					"attributes":{
						"COLOR_0":62,
						"POSITION":63,
						"NORMAL":64,
						"TEXCOORD_0":65
					},
					"indices":31,
					"material":2
				}
			]
		},
		{
			"name":"Cube.011",
			"primitives":[
				{
					"attributes":{
						"COLOR_0":66,
						"POSITION":67,
						"NORMAL":68,
						"TEXCOORD_0":69
					},
					"indices":31,
					"material":2
				}
			]
		},
		{
			"name":"Cube.013",
			"primitives":[
				{
					"attributes":{
						"COLOR_0":70,
						"POSITION":71,
						"NORMAL":72,
						"TEXCOORD_0":73
					},
					"indices":26,
					"material":2
				}
			]
		},
		{
			"name":"Cube.014",
			"primitives":[
				{
					"attributes":{
						"COLOR_0":74,
						"POSITION":75,
						"NORMAL":76,
						"TEXCOORD_0":77
					},
					"indices":26,
					"material":2
				}
			]
		}
	],
	"textures":[
		{
			"sampler":0,
			"source":0
		}
	],
	"images":[
		{
			"mimeType":"image/jpeg",
			"name":"FSM-yaprak",
			"uri":"FSM-YaziTexture/FSM-yaprak.jpg"
		}
	],
	"accessors":[
		{
			"bufferView":0,
			"componentType":5126,
			"count":21849,
			"max":[
				1.3843048810958862,
				0.4992537498474121,
				0.015280195511877537
			],
			"min":[
				-1.404618501663208,
				-0.549958348274231,
				-0.00852569192647934
			],
			"type":"VEC3"
		},
		{
			"bufferView":1,
			"componentType":5126,
			"count":21849,
			"type":"VEC3"
		},
		{
			"bufferView":2,
			"componentType":5126,
			"count":21849,
			"type":"VEC2"
		},
		{
			"bufferView":3,
			"componentType":5123,
			"count":61620,
			"type":"SCALAR"
		},
		{
			"bufferView":4,
			"componentType":5126,
			"count":1324,
			"max":[
				0.09306786954402924,
				0.13358253240585327,
				0.012738486751914024
			],
			"min":[
				-0.08041850477457047,
				-0.09826987981796265,
				-0.012738710269331932
			],
			"type":"VEC3"
		},
		{
			"bufferView":5,
			"componentType":5126,
			"count":1324,
			"type":"VEC3"
		},
		{
			"bufferView":6,
			"componentType":5126,
			"count":1324,
			"type":"VEC2"
		},
		{
			"bufferView":7,
			"componentType":5123,
			"count":3912,
			"type":"SCALAR"
		},
		{
			"bufferView":8,
			"componentType":5126,
			"count":9905,
			"max":[
				0.8793336153030396,
				0.11895924806594849,
				0.011764343827962875
			],
			"min":[
				-0.8025223016738892,
				-0.10409915447235107,
				-0.011765118688344955
			],
			"type":"VEC3"
		},
		{
			"bufferView":9,
			"componentType":5126,
			"count":9905,
			"type":"VEC3"
		},
		{
			"bufferView":10,
			"componentType":5126,
			"count":9905,
			"type":"VEC2"
		},
		{
			"bufferView":11,
			"componentType":5123,
			"count":29100,
			"type":"SCALAR"
		},
		{
			"bufferView":12,
			"componentType":5123,
			"count":1705,
			"normalized":true,
			"type":"VEC4"
		},
		{
			"bufferView":13,
			"componentType":5126,
			"count":1705,
			"max":[
				2.1605722904205322,
				0.7363857626914978,
				1.1129304766654968e-07
			],
			"min":[
				-2.1744673252105713,
				-0.6025181412696838,
				-5.51808625459671e-08
			],
			"type":"VEC3"
		},
		{
			"bufferView":14,
			"componentType":5126,
			"count":1705,
			"type":"VEC3"
		},
		{
			"bufferView":15,
			"componentType":5126,
			"count":1705,
			"type":"VEC2"
		},
		{
			"bufferView":16,
			"componentType":5123,
			"count":5049,
			"type":"SCALAR"
		},
		{
			"bufferView":17,
			"componentType":5123,
			"count":9170,
			"normalized":true,
			"type":"VEC4"
		},
		{
			"bufferView":18,
			"componentType":5126,
			"count":9170,
			"max":[
				2.2116947174072266,
				0.7175781726837158,
				0.0024329926818609238
			],
			"min":[
				-2.1108944416046143,
				-0.9634302258491516,
				-0.0024328231811523438
			],
			"type":"VEC3"
		},
		{
			"bufferView":19,
			"componentType":5126,
			"count":9170,
			"type":"VEC3"
		},
		{
			"bufferView":20,
			"componentType":5126,
			"count":9170,
			"type":"VEC2"
		},
		{
			"bufferView":21,
			"componentType":5123,
			"count":45792,
			"type":"SCALAR"
		},
		{
			"bufferView":22,
			"componentType":5123,
			"count":155,
			"normalized":true,
			"type":"VEC4"
		},
		{
			"bufferView":23,
			"componentType":5126,
			"count":155,
			"max":[
				0.16625440120697021,
				0.07930594682693481,
				8.381903171539307e-09
			],
			"min":[
				-0.12538516521453857,
				-0.21732637286186218,
				-2.8405338525772095e-08
			],
			"type":"VEC3"
		},
		{
			"bufferView":24,
			"componentType":5126,
			"count":155,
			"type":"VEC3"
		},
		{
			"bufferView":25,
			"componentType":5126,
			"count":155,
			"type":"VEC2"
		},
		{
			"bufferView":26,
			"componentType":5123,
			"count":459,
			"type":"SCALAR"
		},
		{
			"bufferView":27,
			"componentType":5123,
			"count":155,
			"normalized":true,
			"type":"VEC4"
		},
		{
			"bufferView":28,
			"componentType":5126,
			"count":155,
			"max":[
				0.12945961952209473,
				0.09227466583251953,
				0.0006670528091490269
			],
			"min":[
				-0.1618361473083496,
				-0.20345720648765564,
				-0.000674437964335084
			],
			"type":"VEC3"
		},
		{
			"bufferView":29,
			"componentType":5126,
			"count":155,
			"type":"VEC3"
		},
		{
			"bufferView":30,
			"componentType":5126,
			"count":155,
			"type":"VEC2"
		},
		{
			"bufferView":31,
			"componentType":5123,
			"count":459,
			"type":"SCALAR"
		},
		{
			"bufferView":32,
			"componentType":5123,
			"count":2520,
			"normalized":true,
			"type":"VEC4"
		},
		{
			"bufferView":33,
			"componentType":5126,
			"count":2520,
			"max":[
				0.2099151462316513,
				0.011342734098434448,
				0.06280233711004257
			],
			"min":[
				-0.20053812861442566,
				-0.6579720973968506,
				-0.062101420015096664
			],
			"type":"VEC3"
		},
		{
			"bufferView":34,
			"componentType":5126,
			"count":2520,
			"type":"VEC3"
		},
		{
			"bufferView":35,
			"componentType":5126,
			"count":2520,
			"type":"VEC2"
		},
		{
			"bufferView":36,
			"componentType":5123,
			"count":9600,
			"type":"SCALAR"
		},
		{
			"bufferView":37,
			"componentType":5123,
			"count":2520,
			"normalized":true,
			"type":"VEC4"
		},
		{
			"bufferView":38,
			"componentType":5126,
			"count":2520,
			"max":[
				0.17924070358276367,
				0.007412668317556381,
				0.062492936849594116
			],
			"min":[
				-0.2311943769454956,
				-0.662178099155426,
				-0.06090255826711655
			],
			"type":"VEC3"
		},
		{
			"bufferView":39,
			"componentType":5126,
			"count":2520,
			"type":"VEC3"
		},
		{
			"bufferView":40,
			"componentType":5126,
			"count":2520,
			"type":"VEC2"
		},
		{
			"bufferView":41,
			"componentType":5123,
			"count":9600,
			"type":"SCALAR"
		},
		{
			"bufferView":42,
			"componentType":5123,
			"count":155,
			"normalized":true,
			"type":"VEC4"
		},
		{
			"bufferView":43,
			"componentType":5126,
			"count":155,
			"max":[
				0.1443333625793457,
				0.09245321154594421,
				1.280568540096283e-08
			],
			"min":[
				-0.09973359107971191,
				-0.1849050521850586,
				-2.1653249859809875e-08
			],
			"type":"VEC3"
		},
		{
			"bufferView":44,
			"componentType":5126,
			"count":155,
			"type":"VEC3"
		},
		{
			"bufferView":45,
			"componentType":5126,
			"count":155,
			"type":"VEC2"
		},
		{
			"bufferView":46,
			"componentType":5123,
			"count":155,
			"normalized":true,
			"type":"VEC4"
		},
		{
			"bufferView":47,
			"componentType":5126,
			"count":155,
			"max":[
				0.14219331741333008,
				0.1650925874710083,
				0.0023192372173070908
			],
			"min":[
				-0.3206770420074463,
				-0.292517751455307,
				-0.0023193522356450558
			],
			"type":"VEC3"
		},
		{
			"bufferView":48,
			"componentType":5126,
			"count":155,
			"type":"VEC3"
		},
		{
			"bufferView":49,
			"componentType":5126,
			"count":155,
			"type":"VEC2"
		},
		{
			"bufferView":50,
			"componentType":5123,
			"count":155,
			"normalized":true,
			"type":"VEC4"
		},
		{
			"bufferView":51,
			"componentType":5126,
			"count":155,
			"max":[
				0.14148926734924316,
				0.13187956809997559,
				1.5599653124809265e-08
			],
			"min":[
				-0.06084609031677246,
				-0.09895199537277222,
				-1.3271346688270569e-08
			],
			"type":"VEC3"
		},
		{
			"bufferView":52,
			"componentType":5126,
			"count":155,
			"type":"VEC3"
		},
		{
			"bufferView":53,
			"componentType":5126,
			"count":155,
			"type":"VEC2"
		},
		{
			"bufferView":54,
			"componentType":5123,
			"count":155,
			"normalized":true,
			"type":"VEC4"
		},
		{
			"bufferView":55,
			"componentType":5126,
			"count":155,
			"max":[
				0.13004863262176514,
				0.0968484878540039,
				8.847564458847046e-09
			],
			"min":[
				-0.04815661907196045,
				-0.10908979177474976,
				-1.6763806343078613e-08
			],
			"type":"VEC3"
		},
		{
			"bufferView":56,
			"componentType":5126,
			"count":155,
			"type":"VEC3"
		},
		{
			"bufferView":57,
			"componentType":5126,
			"count":155,
			"type":"VEC2"
		},
		{
			"bufferView":58,
			"componentType":5123,
			"count":155,
			"normalized":true,
			"type":"VEC4"
		},
		{
			"bufferView":59,
			"componentType":5126,
			"count":155,
			"max":[
				0.09712028503417969,
				0.0903300940990448,
				1.280568540096283e-08
			],
			"min":[
				-0.14692378044128418,
				-0.187046080827713,
				-2.1653249859809875e-08
			],
			"type":"VEC3"
		},
		{
			"bufferView":60,
			"componentType":5126,
			"count":155,
			"type":"VEC3"
		},
		{
			"bufferView":61,
			"componentType":5126,
			"count":155,
			"type":"VEC2"
		},
		{
			"bufferView":62,
			"componentType":5123,
			"count":155,
			"normalized":true,
			"type":"VEC4"
		},
		{
			"bufferView":63,
			"componentType":5126,
			"count":155,
			"max":[
				0.16302001476287842,
				0.20920878648757935,
				2.60770320892334e-08
			],
			"min":[
				-0.13056588172912598,
				-0.08640527725219727,
				-1.0710209608078003e-08
			],
			"type":"VEC3"
		},
		{
			"bufferView":64,
			"componentType":5126,
			"count":155,
			"type":"VEC3"
		},
		{
			"bufferView":65,
			"componentType":5126,
			"count":155,
			"type":"VEC2"
		},
		{
			"bufferView":66,
			"componentType":5123,
			"count":155,
			"normalized":true,
			"type":"VEC4"
		},
		{
			"bufferView":67,
			"componentType":5126,
			"count":155,
			"max":[
				0.2991964817047119,
				0.17756760120391846,
				2.2584572434425354e-08
			],
			"min":[
				-0.15322208404541016,
				-0.2712269127368927,
				-3.306195139884949e-08
			],
			"type":"VEC3"
		},
		{
			"bufferView":68,
			"componentType":5126,
			"count":155,
			"type":"VEC3"
		},
		{
			"bufferView":69,
			"componentType":5126,
			"count":155,
			"type":"VEC2"
		},
		{
			"bufferView":70,
			"componentType":5123,
			"count":155,
			"normalized":true,
			"type":"VEC4"
		},
		{
			"bufferView":71,
			"componentType":5126,
			"count":155,
			"max":[
				0.158705472946167,
				0.07949919998645782,
				6.05359673500061e-09
			],
			"min":[
				-0.08947110176086426,
				-0.19244298338890076,
				-2.7706846594810486e-08
			],
			"type":"VEC3"
		},
		{
			"bufferView":72,
			"componentType":5126,
			"count":155,
			"type":"VEC3"
		},
		{
			"bufferView":73,
			"componentType":5126,
			"count":155,
			"type":"VEC2"
		},
		{
			"bufferView":74,
			"componentType":5123,
			"count":155,
			"normalized":true,
			"type":"VEC4"
		},
		{
			"bufferView":75,
			"componentType":5126,
			"count":155,
			"max":[
				0.06199383735656738,
				0.06131450831890106,
				6.51925802230835e-09
			],
			"min":[
				-0.1407996416091919,
				-0.13686871528625488,
				-1.816079020500183e-08
			],
			"type":"VEC3"
		},
		{
			"bufferView":76,
			"componentType":5126,
			"count":155,
			"type":"VEC3"
		},
		{
			"bufferView":77,
			"componentType":5126,
			"count":155,
			"type":"VEC2"
		},
		{
			"bufferView":78,
			"componentType":5126,
			"count":2,
			"max":[
				41.666666666666664
			],
			"min":[
				0.125
			],
			"type":"SCALAR"
		},
		{
			"bufferView":79,
			"componentType":5126,
			"count":2,
			"type":"VEC3"
		},
		{
			"bufferView":80,
			"componentType":5126,
			"count":2,
			"type":"VEC4"
		},
		{
			"bufferView":81,
			"componentType":5126,
			"count":998,
			"max":[
				41.666666666666664
			],
			"min":[
				0.125
			],
			"type":"SCALAR"
		},
		{
			"bufferView":82,
			"componentType":5126,
			"count":998,
			"type":"VEC3"
		},
		{
			"bufferView":83,
			"componentType":5126,
			"count":998,
			"type":"VEC3"
		},
		{
			"bufferView":84,
			"componentType":5126,
			"count":2,
			"type":"VEC4"
		},
		{
			"bufferView":85,
			"componentType":5126,
			"count":998,
			"type":"VEC3"
		},
		{
			"bufferView":86,
			"componentType":5126,
			"count":1001,
			"max":[
				41.666666666666664
			],
			"min":[
				0
			],
			"type":"SCALAR"
		},
		{
			"bufferView":87,
			"componentType":5126,
			"count":1001,
			"type":"VEC3"
		},
		{
			"bufferView":88,
			"componentType":5126,
			"count":1001,
			"type":"VEC4"
		},
		{
			"bufferView":89,
			"componentType":5126,
			"count":1001,
			"type":"VEC3"
		},
		{
			"bufferView":90,
			"componentType":5126,
			"count":2,
			"max":[
				41.666666666666664
			],
			"min":[
				0
			],
			"type":"SCALAR"
		},
		{
			"bufferView":91,
			"componentType":5126,
			"count":2,
			"type":"VEC3"
		},
		{
			"bufferView":92,
			"componentType":5126,
			"count":1001,
			"type":"VEC4"
		},
		{
			"bufferView":93,
			"componentType":5126,
			"count":2,
			"type":"VEC3"
		},
		{
			"bufferView":94,
			"componentType":5126,
			"count":2,
			"max":[
				41.666666666666664
			],
			"min":[
				0.041666666666666664
			],
			"type":"SCALAR"
		},
		{
			"bufferView":95,
			"componentType":5126,
			"count":2,
			"type":"VEC3"
		},
		{
			"bufferView":96,
			"componentType":5126,
			"count":1000,
			"max":[
				41.666666666666664
			],
			"min":[
				0.041666666666666664
			],
			"type":"SCALAR"
		},
		{
			"bufferView":97,
			"componentType":5126,
			"count":1000,
			"type":"VEC4"
		},
		{
			"bufferView":98,
			"componentType":5126,
			"count":2,
			"type":"VEC3"
		},
		{
			"bufferView":99,
			"componentType":5126,
			"count":2,
			"type":"VEC3"
		},
		{
			"bufferView":100,
			"componentType":5126,
			"count":1000,
			"type":"VEC4"
		},
		{
			"bufferView":101,
			"componentType":5126,
			"count":2,
			"type":"VEC3"
		},
		{
			"bufferView":102,
			"componentType":5126,
			"count":2,
			"type":"VEC3"
		},
		{
			"bufferView":103,
			"componentType":5126,
			"count":1001,
			"type":"VEC4"
		},
		{
			"bufferView":104,
			"componentType":5126,
			"count":2,
			"type":"VEC3"
		},
		{
			"bufferView":105,
			"componentType":5126,
			"count":2,
			"type":"VEC3"
		},
		{
			"bufferView":106,
			"componentType":5126,
			"count":1001,
			"type":"VEC4"
		},
		{
			"bufferView":107,
			"componentType":5126,
			"count":2,
			"type":"VEC3"
		},
		{
			"bufferView":108,
			"componentType":5126,
			"count":2,
			"type":"VEC3"
		},
		{
			"bufferView":109,
			"componentType":5126,
			"count":1001,
			"type":"VEC4"
		},
		{
			"bufferView":110,
			"componentType":5126,
			"count":2,
			"type":"VEC3"
		},
		{
			"bufferView":111,
			"componentType":5126,
			"count":2,
			"type":"VEC3"
		},
		{
			"bufferView":112,
			"componentType":5126,
			"count":1000,
			"type":"VEC4"
		},
		{
			"bufferView":113,
			"componentType":5126,
			"count":2,
			"type":"VEC3"
		},
		{
			"bufferView":114,
			"componentType":5126,
			"count":2,
			"type":"VEC3"
		},
		{
			"bufferView":115,
			"componentType":5126,
			"count":1001,
			"type":"VEC4"
		},
		{
			"bufferView":116,
			"componentType":5126,
			"count":2,
			"type":"VEC3"
		},
		{
			"bufferView":117,
			"componentType":5126,
			"count":2,
			"type":"VEC3"
		},
		{
			"bufferView":118,
			"componentType":5126,
			"count":1001,
			"type":"VEC4"
		},
		{
			"bufferView":119,
			"componentType":5126,
			"count":2,
			"type":"VEC3"
		},
		{
			"bufferView":120,
			"componentType":5126,
			"count":2,
			"type":"VEC3"
		},
		{
			"bufferView":121,
			"componentType":5126,
			"count":1001,
			"type":"VEC4"
		},
		{
			"bufferView":122,
			"componentType":5126,
			"count":2,
			"type":"VEC3"
		},
		{
			"bufferView":123,
			"componentType":5126,
			"count":2,
			"type":"VEC3"
		},
		{
			"bufferView":124,
			"componentType":5126,
			"count":1000,
			"type":"VEC4"
		},
		{
			"bufferView":125,
			"componentType":5126,
			"count":2,
			"type":"VEC3"
		},
		{
			"bufferView":126,
			"componentType":5126,
			"count":2,
			"type":"VEC3"
		},
		{
			"bufferView":127,
			"componentType":5126,
			"count":1001,
			"type":"VEC4"
		},
		{
			"bufferView":128,
			"componentType":5126,
			"count":2,
			"type":"VEC3"
		}
	],
	"bufferViews":[
		{
			"buffer":0,
			"byteLength":262188,
			"byteOffset":0,
			"target":34962
		},
		{
			"buffer":0,
			"byteLength":262188,
			"byteOffset":262188,
			"target":34962
		},
		{
			"buffer":0,
			"byteLength":174792,
			"byteOffset":524376,
			"target":34962
		},
		{
			"buffer":0,
			"byteLength":123240,
			"byteOffset":699168,
			"target":34963
		},
		{
			"buffer":0,
			"byteLength":15888,
			"byteOffset":822408,
			"target":34962
		},
		{
			"buffer":0,
			"byteLength":15888,
			"byteOffset":838296,
			"target":34962
		},
		{
			"buffer":0,
			"byteLength":10592,
			"byteOffset":854184,
			"target":34962
		},
		{
			"buffer":0,
			"byteLength":7824,
			"byteOffset":864776,
			"target":34963
		},
		{
			"buffer":0,
			"byteLength":118860,
			"byteOffset":872600,
			"target":34962
		},
		{
			"buffer":0,
			"byteLength":118860,
			"byteOffset":991460,
			"target":34962
		},
		{
			"buffer":0,
			"byteLength":79240,
			"byteOffset":1110320,
			"target":34962
		},
		{
			"buffer":0,
			"byteLength":58200,
			"byteOffset":1189560,
			"target":34963
		},
		{
			"buffer":0,
			"byteLength":13640,
			"byteOffset":1247760,
			"target":34962
		},
		{
			"buffer":0,
			"byteLength":20460,
			"byteOffset":1261400,
			"target":34962
		},
		{
			"buffer":0,
			"byteLength":20460,
			"byteOffset":1281860,
			"target":34962
		},
		{
			"buffer":0,
			"byteLength":13640,
			"byteOffset":1302320,
			"target":34962
		},
		{
			"buffer":0,
			"byteLength":10098,
			"byteOffset":1315960,
			"target":34963
		},
		{
			"buffer":0,
			"byteLength":73360,
			"byteOffset":1326060,
			"target":34962
		},
		{
			"buffer":0,
			"byteLength":110040,
			"byteOffset":1399420,
			"target":34962
		},
		{
			"buffer":0,
			"byteLength":110040,
			"byteOffset":1509460,
			"target":34962
		},
		{
			"buffer":0,
			"byteLength":73360,
			"byteOffset":1619500,
			"target":34962
		},
		{
			"buffer":0,
			"byteLength":91584,
			"byteOffset":1692860,
			"target":34963
		},
		{
			"buffer":0,
			"byteLength":1240,
			"byteOffset":1784444,
			"target":34962
		},
		{
			"buffer":0,
			"byteLength":1860,
			"byteOffset":1785684,
			"target":34962
		},
		{
			"buffer":0,
			"byteLength":1860,
			"byteOffset":1787544,
			"target":34962
		},
		{
			"buffer":0,
			"byteLength":1240,
			"byteOffset":1789404,
			"target":34962
		},
		{
			"buffer":0,
			"byteLength":918,
			"byteOffset":1790644,
			"target":34963
		},
		{
			"buffer":0,
			"byteLength":1240,
			"byteOffset":1791564,
			"target":34962
		},
		{
			"buffer":0,
			"byteLength":1860,
			"byteOffset":1792804,
			"target":34962
		},
		{
			"buffer":0,
			"byteLength":1860,
			"byteOffset":1794664,
			"target":34962
		},
		{
			"buffer":0,
			"byteLength":1240,
			"byteOffset":1796524,
			"target":34962
		},
		{
			"buffer":0,
			"byteLength":918,
			"byteOffset":1797764,
			"target":34963
		},
		{
			"buffer":0,
			"byteLength":20160,
			"byteOffset":1798684,
			"target":34962
		},
		{
			"buffer":0,
			"byteLength":30240,
			"byteOffset":1818844,
			"target":34962
		},
		{
			"buffer":0,
			"byteLength":30240,
			"byteOffset":1849084,
			"target":34962
		},
		{
			"buffer":0,
			"byteLength":20160,
			"byteOffset":1879324,
			"target":34962
		},
		{
			"buffer":0,
			"byteLength":19200,
			"byteOffset":1899484,
			"target":34963
		},
		{
			"buffer":0,
			"byteLength":20160,
			"byteOffset":1918684,
			"target":34962
		},
		{
			"buffer":0,
			"byteLength":30240,
			"byteOffset":1938844,
			"target":34962
		},
		{
			"buffer":0,
			"byteLength":30240,
			"byteOffset":1969084,
			"target":34962
		},
		{
			"buffer":0,
			"byteLength":20160,
			"byteOffset":1999324,
			"target":34962
		},
		{
			"buffer":0,
			"byteLength":19200,
			"byteOffset":2019484,
			"target":34963
		},
		{
			"buffer":0,
			"byteLength":1240,
			"byteOffset":2038684,
			"target":34962
		},
		{
			"buffer":0,
			"byteLength":1860,
			"byteOffset":2039924,
			"target":34962
		},
		{
			"buffer":0,
			"byteLength":1860,
			"byteOffset":2041784,
			"target":34962
		},
		{
			"buffer":0,
			"byteLength":1240,
			"byteOffset":2043644,
			"target":34962
		},
		{
			"buffer":0,
			"byteLength":1240,
			"byteOffset":2044884,
			"target":34962
		},
		{
			"buffer":0,
			"byteLength":1860,
			"byteOffset":2046124,
			"target":34962
		},
		{
			"buffer":0,
			"byteLength":1860,
			"byteOffset":2047984,
			"target":34962
		},
		{
			"buffer":0,
			"byteLength":1240,
			"byteOffset":2049844,
			"target":34962
		},
		{
			"buffer":0,
			"byteLength":1240,
			"byteOffset":2051084,
			"target":34962
		},
		{
			"buffer":0,
			"byteLength":1860,
			"byteOffset":2052324,
			"target":34962
		},
		{
			"buffer":0,
			"byteLength":1860,
			"byteOffset":2054184,
			"target":34962
		},
		{
			"buffer":0,
			"byteLength":1240,
			"byteOffset":2056044,
			"target":34962
		},
		{
			"buffer":0,
			"byteLength":1240,
			"byteOffset":2057284,
			"target":34962
		},
		{
			"buffer":0,
			"byteLength":1860,
			"byteOffset":2058524,
			"target":34962
		},
		{
			"buffer":0,
			"byteLength":1860,
			"byteOffset":2060384,
			"target":34962
		},
		{
			"buffer":0,
			"byteLength":1240,
			"byteOffset":2062244,
			"target":34962
		},
		{
			"buffer":0,
			"byteLength":1240,
			"byteOffset":2063484,
			"target":34962
		},
		{
			"buffer":0,
			"byteLength":1860,
			"byteOffset":2064724,
			"target":34962
		},
		{
			"buffer":0,
			"byteLength":1860,
			"byteOffset":2066584,
			"target":34962
		},
		{
			"buffer":0,
			"byteLength":1240,
			"byteOffset":2068444,
			"target":34962
		},
		{
			"buffer":0,
			"byteLength":1240,
			"byteOffset":2069684,
			"target":34962
		},
		{
			"buffer":0,
			"byteLength":1860,
			"byteOffset":2070924,
			"target":34962
		},
		{
			"buffer":0,
			"byteLength":1860,
			"byteOffset":2072784,
			"target":34962
		},
		{
			"buffer":0,
			"byteLength":1240,
			"byteOffset":2074644,
			"target":34962
		},
		{
			"buffer":0,
			"byteLength":1240,
			"byteOffset":2075884,
			"target":34962
		},
		{
			"buffer":0,
			"byteLength":1860,
			"byteOffset":2077124,
			"target":34962
		},
		{
			"buffer":0,
			"byteLength":1860,
			"byteOffset":2078984,
			"target":34962
		},
		{
			"buffer":0,
			"byteLength":1240,
			"byteOffset":2080844,
			"target":34962
		},
		{
			"buffer":0,
			"byteLength":1240,
			"byteOffset":2082084,
			"target":34962
		},
		{
			"buffer":0,
			"byteLength":1860,
			"byteOffset":2083324,
			"target":34962
		},
		{
			"buffer":0,
			"byteLength":1860,
			"byteOffset":2085184,
			"target":34962
		},
		{
			"buffer":0,
			"byteLength":1240,
			"byteOffset":2087044,
			"target":34962
		},
		{
			"buffer":0,
			"byteLength":1240,
			"byteOffset":2088284,
			"target":34962
		},
		{
			"buffer":0,
			"byteLength":1860,
			"byteOffset":2089524,
			"target":34962
		},
		{
			"buffer":0,
			"byteLength":1860,
			"byteOffset":2091384,
			"target":34962
		},
		{
			"buffer":0,
			"byteLength":1240,
			"byteOffset":2093244,
			"target":34962
		},
		{
			"buffer":0,
			"byteLength":8,
			"byteOffset":2094484
		},
		{
			"buffer":0,
			"byteLength":24,
			"byteOffset":2094492
		},
		{
			"buffer":0,
			"byteLength":32,
			"byteOffset":2094516
		},
		{
			"buffer":0,
			"byteLength":3992,
			"byteOffset":2094548
		},
		{
			"buffer":0,
			"byteLength":11976,
			"byteOffset":2098540
		},
		{
			"buffer":0,
			"byteLength":11976,
			"byteOffset":2110516
		},
		{
			"buffer":0,
			"byteLength":32,
			"byteOffset":2122492
		},
		{
			"buffer":0,
			"byteLength":11976,
			"byteOffset":2122524
		},
		{
			"buffer":0,
			"byteLength":4004,
			"byteOffset":2134500
		},
		{
			"buffer":0,
			"byteLength":12012,
			"byteOffset":2138504
		},
		{
			"buffer":0,
			"byteLength":16016,
			"byteOffset":2150516
		},
		{
			"buffer":0,
			"byteLength":12012,
			"byteOffset":2166532
		},
		{
			"buffer":0,
			"byteLength":8,
			"byteOffset":2178544
		},
		{
			"buffer":0,
			"byteLength":24,
			"byteOffset":2178552
		},
		{
			"buffer":0,
			"byteLength":16016,
			"byteOffset":2178576
		},
		{
			"buffer":0,
			"byteLength":24,
			"byteOffset":2194592
		},
		{
			"buffer":0,
			"byteLength":8,
			"byteOffset":2194616
		},
		{
			"buffer":0,
			"byteLength":24,
			"byteOffset":2194624
		},
		{
			"buffer":0,
			"byteLength":4000,
			"byteOffset":2194648
		},
		{
			"buffer":0,
			"byteLength":16000,
			"byteOffset":2198648
		},
		{
			"buffer":0,
			"byteLength":24,
			"byteOffset":2214648
		},
		{
			"buffer":0,
			"byteLength":24,
			"byteOffset":2214672
		},
		{
			"buffer":0,
			"byteLength":16000,
			"byteOffset":2214696
		},
		{
			"buffer":0,
			"byteLength":24,
			"byteOffset":2230696
		},
		{
			"buffer":0,
			"byteLength":24,
			"byteOffset":2230720
		},
		{
			"buffer":0,
			"byteLength":16016,
			"byteOffset":2230744
		},
		{
			"buffer":0,
			"byteLength":24,
			"byteOffset":2246760
		},
		{
			"buffer":0,
			"byteLength":24,
			"byteOffset":2246784
		},
		{
			"buffer":0,
			"byteLength":16016,
			"byteOffset":2246808
		},
		{
			"buffer":0,
			"byteLength":24,
			"byteOffset":2262824
		},
		{
			"buffer":0,
			"byteLength":24,
			"byteOffset":2262848
		},
		{
			"buffer":0,
			"byteLength":16016,
			"byteOffset":2262872
		},
		{
			"buffer":0,
			"byteLength":24,
			"byteOffset":2278888
		},
		{
			"buffer":0,
			"byteLength":24,
			"byteOffset":2278912
		},
		{
			"buffer":0,
			"byteLength":16000,
			"byteOffset":2278936
		},
		{
			"buffer":0,
			"byteLength":24,
			"byteOffset":2294936
		},
		{
			"buffer":0,
			"byteLength":24,
			"byteOffset":2294960
		},
		{
			"buffer":0,
			"byteLength":16016,
			"byteOffset":2294984
		},
		{
			"buffer":0,
			"byteLength":24,
			"byteOffset":2311000
		},
		{
			"buffer":0,
			"byteLength":24,
			"byteOffset":2311024
		},
		{
			"buffer":0,
			"byteLength":16016,
			"byteOffset":2311048
		},
		{
			"buffer":0,
			"byteLength":24,
			"byteOffset":2327064
		},
		{
			"buffer":0,
			"byteLength":24,
			"byteOffset":2327088
		},
		{
			"buffer":0,
			"byteLength":16016,
			"byteOffset":2327112
		},
		{
			"buffer":0,
			"byteLength":24,
			"byteOffset":2343128
		},
		{
			"buffer":0,
			"byteLength":24,
			"byteOffset":2343152
		},
		{
			"buffer":0,
			"byteLength":16000,
			"byteOffset":2343176
		},
		{
			"buffer":0,
			"byteLength":24,
			"byteOffset":2359176
		},
		{
			"buffer":0,
			"byteLength":24,
			"byteOffset":2359200
		},
		{
			"buffer":0,
			"byteLength":16016,
			"byteOffset":2359224
		},
		{
			"buffer":0,
			"byteLength":24,
			"byteOffset":2375240
		}
	],
	"samplers":[
		{
			"magFilter":9729,
			"minFilter":9987
		}
	],
	"buffers":[
		{
			"byteLength":2375264,
			"uri":"FSM-Yazii-170825.bin"
		}
	]
}
