{
	"asset":{
		"generator":"Khronos glTF Blender I/O v3.6.27",
		"version":"2.0"
	},
	"extensionsUsed":[
		"KHR_materials_specular",
		"KHR_materials_ior"
	],
	"scene":0,
	"scenes":[
		{
			"name":"Scene",
			"nodes":[
				105,
				106
			]
		}
	],
	"nodes":[
		{
			"name":"HeadTop_End",
			"rotation":[
				-0.0036117867566645145,
				2.809634338518663e-07,
				2.9990022198944644e-07,
				0.9999935030937195
			],
			"scale":[
				1,
				1,
				0.9999999403953552
			],
			"translation":[
				1.416167094703269e-08,
				0.22634470462799072,
				0.03732243925333023
			]
		},
		{
			"name":"LeftEye",
			"rotation":[
				-0.003611129242926836,
				7.446973171454374e-08,
				5.978744610501963e-08,
				0.9999935030937195
			],
			"scale":[
				1,
				1,
				0.9999999403953552
			],
			"translation":[
				0.030352696776390076,
				0.08783949911594391,
				0.082406185567379
			]
		},
		{
			"name":"RightEye",
			"rotation":[
				-0.0036110728979110718,
				7.446959671142395e-08,
				5.978750294843849e-08,
				0.9999935030937195
			],
			"scale":[
				1,
				1,
				0.9999999403953552
			],
			"translation":[
				-0.029882267117500305,
				0.0877910926938057,
				0.08240658044815063
			]
		},
		{
			"mesh":1,
			"name":"TwistedTorus",
			"rotation":[
				0.058692604303359985,
				2.3800657800165936e-07,
				-1.399912452626495e-08,
				0.9982761144638062
			],
			"scale":[
				1,
				0.9999998807907104,
				1.0000001192092896
			],
			"translation":[
				0.0027590952813625336,
				0.10211776196956635,
				0.009822938591241837
			]
		},
		{
			"children":[
				3
			],
			"name":"Head.001",
			"rotation":[
				-0.062297604978084564,
				2.0213002827063065e-08,
				9.184577720589004e-08,
				0.9980576038360596
			],
			"translation":[
				-3.9968028886505635e-15,
				0.1240604892373085,
				4.657594310231161e-10
			]
		},
		{
			"name":"Bone.015",
			"rotation":[
				-0.010033806785941124,
				1.6620827381075287e-08,
				0.38092342019081116,
				0.9245521426200867
			],
			"scale":[
				1,
				1,
				0.9999999403953552
			],
			"translation":[
				-1.4901161193847656e-08,
				0.020828578621149063,
				-4.164758138358593e-08
			]
		},
		{
			"children":[
				5
			],
			"name":"Bone.014",
			"rotation":[
				-0.011764082126319408,
				-0.0005369052523747087,
				0.8517931699752808,
				0.5237458944320679
			],
			"scale":[
				0.9999996423721313,
				0.9999998807907104,
				1
			],
			"translation":[
				7.998437467904296e-10,
				0.06625296175479889,
				-6.226557935917754e-09
			]
		},
		{
			"name":"Bone.017",
			"rotation":[
				-0.004063650034368038,
				-7.842205995700624e-09,
				-0.2884572744369507,
				0.9574841856956482
			],
			"scale":[
				0.9999999403953552,
				0.9999999403953552,
				1
			],
			"translation":[
				3.259629011154175e-09,
				0.015249253250658512,
				-1.6197009244933724e-07
			]
		},
		{
			"children":[
				7
			],
			"name":"Bone.016",
			"rotation":[
				0.0006771573098376393,
				-0.0004244136216584593,
				-0.8676245212554932,
				0.4972193241119385
			],
			"scale":[
				0.9999998807907104,
				0.9999998807907104,
				0.9999999403953552
			],
			"translation":[
				7.998437467904296e-10,
				0.06625296175479889,
				-6.226557935917754e-09
			]
		},
		{
			"children":[
				6,
				8
			],
			"name":"Bone.013",
			"rotation":[
				0.24814648926258087,
				-0.008936122991144657,
				0.04801978915929794,
				0.9674903750419617
			],
			"scale":[
				0.9999999403953552,
				1,
				0.9999999403953552
			],
			"translation":[
				-3.4924596548080444e-10,
				0.011140897870063782,
				-4.743924364447594e-09
			]
		},
		{
			"children":[
				9
			],
			"name":"Bone",
			"rotation":[
				0.49993059039115906,
				0.049398429691791534,
				-0.02849758416414261,
				0.8641858100891113
			],
			"scale":[
				0.9999999403953552,
				1,
				1
			],
			"translation":[
				-0.0021979943849146366,
				0.016684291884303093,
				0.02898351289331913
			]
		},
		{
			"name":"Bone.019",
			"rotation":[
				0.10320165753364563,
				-0.05305477976799011,
				0.3373414874076843,
				0.934203028678894
			],
			"scale":[
				1.0000001192092896,
				1,
				1.0000001192092896
			],
			"translation":[
				-5.122274160385132e-09,
				0.01967913657426834,
				1.6065314412117004e-08
			]
		},
		{
			"children":[
				11
			],
			"name":"Bone.018",
			"rotation":[
				-0.08186443150043488,
				-0.09475412964820862,
				0.8498205542564392,
				0.5119813680648804
			],
			"scale":[
				1.0000001192092896,
				1,
				1
			],
			"translation":[
				-1.1641532182693481e-10,
				0.06574210524559021,
				-1.1839756552944891e-07
			]
		},
		{
			"name":"Bone.021",
			"rotation":[
				0.11297581344842911,
				0.030248846858739853,
				-0.2957506477832794,
				0.9480786323547363
			],
			"translation":[
				0,
				0.020207639783620834,
				-1.7834827303886414e-07
			]
		},
		{
			"children":[
				13
			],
			"name":"Bone.020",
			"rotation":[
				-0.0722147598862648,
				0.06667716056108475,
				-0.8633633255958557,
				0.4949171543121338
			],
			"scale":[
				1.0000003576278687,
				1.000000238418579,
				1
			],
			"translation":[
				-1.1641532182693481e-10,
				0.06574210524559021,
				-1.1839756552944891e-07
			]
		},
		{
			"children":[
				12,
				14
			],
			"name":"Bone.002",
			"rotation":[
				0.3133402168750763,
				0.0199033934623003,
				-0.047039322555065155,
				0.9482663869857788
			],
			"scale":[
				0.9999999403953552,
				0.9999999403953552,
				0.9999998807907104
			],
			"translation":[
				-2.0954757928848267e-09,
				0.011750981211662292,
				-1.3277167454361916e-07
			]
		},
		{
			"children":[
				15
			],
			"name":"Bone.001",
			"rotation":[
				-0.04897444695234299,
				-0.45379942655563354,
				-0.8893291354179382,
				0.027591833844780922
			],
			"scale":[
				0.9999999403953552,
				1.0000001192092896,
				1
			],
			"translation":[
				-0.0021979943849146366,
				0.016684291884303093,
				0.02898351289331913
			]
		},
		{
			"name":"Bone.010",
			"rotation":[
				0.1129857748746872,
				-0.015602546744048595,
				0.29747071862220764,
				0.9478934407234192
			],
			"scale":[
				0.9999999403953552,
				1,
				0.9999999403953552
			],
			"translation":[
				-6.170012056827545e-09,
				0.012671275064349174,
				9.406358003616333e-08
			]
		},
		{
			"children":[
				17
			],
			"name":"Bone.009",
			"rotation":[
				0.08306357264518738,
				-0.06188133731484413,
				0.7261147499084473,
				0.679726779460907
			],
			"scale":[
				1,
				0.9999998807907104,
				1
			],
			"translation":[
				-1.3969838619232178e-09,
				0.022172482684254646,
				-1.093019363906933e-08
			]
		},
		{
			"name":"Bone.012",
			"rotation":[
				0.0444457121193409,
				0.03338385373353958,
				-0.2192770093679428,
				0.9740778803825378
			],
			"scale":[
				1.0000001192092896,
				0.9999999403953552,
				1.0000001192092896
			],
			"translation":[
				2.7939677238464355e-09,
				0.015258668921887875,
				1.0943040251731873e-07
			]
		},
		{
			"children":[
				19
			],
			"name":"Bone.011",
			"rotation":[
				0.15869320929050446,
				0.06633564829826355,
				-0.8017305135726929,
				0.5724022388458252
			],
			"scale":[
				1.0000001192092896,
				1,
				1
			],
			"translation":[
				-1.3969838619232178e-09,
				0.022172482684254646,
				-1.093019363906933e-08
			]
		},
		{
			"children":[
				18,
				20
			],
			"name":"Bone.003",
			"rotation":[
				-0.013179629109799862,
				-0.6149263978004456,
				-0.7883296608924866,
				0.015107346698641777
			],
			"scale":[
				1,
				0.9999998211860657,
				1
			],
			"translation":[
				-0.0016330676153302193,
				0.01571139134466648,
				0.09056258946657181
			]
		},
		{
			"name":"Bone.006",
			"rotation":[
				0.0533517561852932,
				0.0091438302770257,
				-0.31049153208732605,
				0.9490337371826172
			],
			"scale":[
				1,
				0.9999999403953552,
				1
			],
			"translation":[
				-6.170012056827545e-09,
				0.014881772920489311,
				-5.919719114899635e-08
			]
		},
		{
			"children":[
				22
			],
			"name":"Bone.005",
			"rotation":[
				0.06312219798564911,
				0.07998450100421906,
				-0.7314611077308655,
				0.6742275357246399
			],
			"scale":[
				0.9999999403953552,
				0.9999999403953552,
				1
			],
			"translation":[
				8.149072527885437e-10,
				0.023549482226371765,
				-4.669300324167125e-08
			]
		},
		{
			"name":"Bone.008",
			"rotation":[
				0.13990777730941772,
				-0.03635754808783531,
				0.260375052690506,
				0.9546249508857727
			],
			"scale":[
				1,
				1.0000001192092896,
				1.0000001192092896
			],
			"translation":[
				-2.3283064365386963e-10,
				0.01486263144761324,
				-2.1187588572502136e-08
			]
		},
		{
			"children":[
				24
			],
			"name":"Bone.007",
			"rotation":[
				0.1473345160484314,
				-0.10532964020967484,
				0.7758674621582031,
				0.6043408513069153
			],
			"scale":[
				1,
				1,
				0.9999999403953552
			],
			"translation":[
				8.149072527885437e-10,
				0.023549482226371765,
				-4.669300324167125e-08
			]
		},
		{
			"children":[
				23,
				25
			],
			"name":"Bone.004",
			"rotation":[
				0.6364063620567322,
				0.012617713771760464,
				-0.012712142430245876,
				0.7711459994316101
			],
			"translation":[
				-0.0016330676153302193,
				0.01571139134466648,
				0.09056258946657181
			]
		},
		{
			"children":[
				0,
				1,
				2,
				4,
				10,
				16,
				21,
				26
			],
			"name":"Head",
			"rotation":[
				-0.16267605125904083,
				-3.1318808169089607e-07,
				-3.8272511915238283e-07,
				0.9866795539855957
			],
			"scale":[
				1,
				1,
				0.9999999403953552
			],
			"translation":[
				-1.0505485370515544e-13,
				0.12263814359903336,
				-5.960468740795477e-08
			]
		},
		{
			"children":[
				27
			],
			"name":"Neck",
			"rotation":[
				0.20306885242462158,
				7.390545420093986e-08,
				1.0772885872256666e-07,
				0.9791644811630249
			],
			"translation":[
				-4.7974957340102264e-12,
				0.1555749475955963,
				-2.2351718698132572e-08
			]
		},
		{
			"name":"LeftHandThumb4",
			"rotation":[
				0.012975050136446953,
				0.052386123687028885,
				-0.0069294273853302,
				0.9985185861587524
			],
			"translation":[
				0,
				0.03528504818677902,
				-1.2293457984924316e-07
			]
		},
		{
			"children":[
				29
			],
			"name":"LeftHandThumb3",
			"rotation":[
				0.00975432526320219,
				-0.02480246126651764,
				-0.08479493856430054,
				0.9960419535636902
			],
			"scale":[
				0.9999999403953552,
				0.9999998211860657,
				1
			],
			"translation":[
				-9.685754776000977e-08,
				0.030486728996038437,
				1.1175870895385742e-08
			]
		},
		{
			"children":[
				30
			],
			"name":"LeftHandThumb2",
			"rotation":[
				0.05050666630268097,
				-0.07432562857866287,
				-0.24984554946422577,
				0.9641068577766418
			],
			"scale":[
				1,
				1,
				1.0000001192092896
			],
			"translation":[
				0,
				0.04138263314962387,
				1.862645149230957e-08
			]
		},
		{
			"children":[
				31
			],
			"name":"LeftHandThumb1",
			"rotation":[
				0.16801585257053375,
				-0.00993395410478115,
				0.4148876667022705,
				0.8941701054573059
			],
			"translation":[
				-0.032355897128582,
				0.026351837441325188,
				0.005172776058316231
			]
		},
		{
			"name":"LeftHandIndex4",
			"rotation":[
				0.04478376731276512,
				0.056746043264865875,
				-0.0071326857432723045,
				0.9973582029342651
			],
			"scale":[
				0.9999999403953552,
				0.9999999403953552,
				0.9999999403953552
			],
			"translation":[
				5.960464477539063e-08,
				0.033838897943496704,
				6.891787052154541e-08
			]
		},
		{
			"children":[
				33
			],
			"name":"LeftHandIndex3",
			"rotation":[
				0.08442369103431702,
				-0.07587219774723053,
				-0.02127121016383171,
				0.9933094382286072
			],
			"scale":[
				0.9999999403953552,
				1,
				1
			],
			"translation":[
				1.1920928955078125e-07,
				0.028345532715320587,
				1.434236764907837e-07
			]
		},
		{
			"children":[
				34
			],
			"name":"LeftHandIndex2",
			"rotation":[
				0.09493013471364975,
				-0.005799127276986837,
				0.025652501732110977,
				0.9951364994049072
			],
			"scale":[
				1,
				0.9999998211860657,
				1
			],
			"translation":[
				8.195638656616211e-08,
				0.04467852786183357,
				-2.39349901676178e-07
			]
		},
		{
			"children":[
				35
			],
			"name":"LeftHandIndex1",
			"rotation":[
				0.09073025733232498,
				-0.05149145424365997,
				0.071058489382267,
				0.9920016527175903
			],
			"scale":[
				1,
				1.000000238418579,
				1
			],
			"translation":[
				-0.03534655272960663,
				0.09745381772518158,
				-0.006952283903956413
			]
		},
		{
			"name":"LeftHandMiddle4",
			"rotation":[
				0.023813722655177116,
				0.022458720952272415,
				-0.0016470664413645864,
				0.9994627833366394
			],
			"scale":[
				0.9999999403953552,
				1,
				1
			],
			"translation":[
				-8.568167686462402e-08,
				0.03456239402294159,
				-9.313225746154785e-08
			]
		},
		{
			"children":[
				37
			],
			"name":"LeftHandMiddle3",
			"rotation":[
				0.20182442665100098,
				-0.022600188851356506,
				-0.043592460453510284,
				0.9781900644302368
			],
			"scale":[
				0.9999998807907104,
				1,
				1
			],
			"translation":[
				-2.2351741790771484e-08,
				0.035407308489084244,
				3.045424818992615e-07
			]
		},
		{
			"children":[
				38
			],
			"name":"LeftHandMiddle2",
			"rotation":[
				0.12757667899131775,
				-0.009709471836686134,
				0.04308560863137245,
				0.9908449053764343
			],
			"scale":[
				1.0000001192092896,
				1,
				1
			],
			"translation":[
				2.9802322387695312e-08,
				0.045697953552007675,
				2.2249878384172916e-08
			]
		},
		{
			"children":[
				39
			],
			"name":"LeftHandMiddle1",
			"rotation":[
				0.03872455283999443,
				-0.06741374731063843,
				0.015206213109195232,
				0.9968573451042175
			],
			"scale":[
				1.0000001192092896,
				0.9999999403953552,
				1.0000001192092896
			],
			"translation":[
				-0.009199000895023346,
				0.10019724071025848,
				-0.003484750632196665
			]
		},
		{
			"name":"LeftHandRing4",
			"rotation":[
				0.006650522816926241,
				-0.006898189894855022,
				0.022116325795650482,
				0.9997094869613647
			],
			"scale":[
				1,
				1.0000001192092896,
				0.9999999403953552
			],
			"translation":[
				5.587935447692871e-08,
				0.02981322817504406,
				-8.381903171539307e-08
			]
		},
		{
			"children":[
				41
			],
			"name":"LeftHandRing3",
			"rotation":[
				0.03905663639307022,
				-0.005789071321487427,
				0.001896187663078308,
				0.9992184638977051
			],
			"scale":[
				1,
				0.9999998807907104,
				1
			],
			"translation":[
				2.2351741790771484e-08,
				0.03616320341825485,
				-2.0442530512809753e-07
			]
		},
		{
			"children":[
				42
			],
			"name":"LeftHandRing2",
			"rotation":[
				0.18622846901416779,
				-0.016196096315979958,
				0.045856546610593796,
				0.9813021421432495
			],
			"scale":[
				0.9999998211860657,
				1,
				1
			],
			"translation":[
				7.078051567077637e-08,
				0.04189969599246979,
				-9.115319699048996e-08
			]
		},
		{
			"children":[
				43
			],
			"name":"LeftHandRing1",
			"rotation":[
				0.06410007923841476,
				-0.05493023246526718,
				-0.057973314076662064,
				0.9947426915168762
			],
			"scale":[
				0.9999999403953552,
				1,
				1
			],
			"translation":[
				0.015421796590089798,
				0.09560394287109375,
				0.002229771576821804
			]
		},
		{
			"name":"LeftHandPinky4",
			"rotation":[
				0.13740390539169312,
				0.1045307144522667,
				-0.012381968088448048,
				0.9849061965942383
			],
			"scale":[
				0.9999999403953552,
				1.0000001192092896,
				1
			],
			"translation":[
				-1.4156103134155273e-07,
				0.026324210688471794,
				-2.1979212760925293e-07
			]
		},
		{
			"children":[
				45
			],
			"name":"LeftHandPinky3",
			"rotation":[
				0.12270559370517731,
				-0.01193326897919178,
				0.01215777825564146,
				0.9922968745231628
			],
			"scale":[
				1,
				0.9999998807907104,
				0.9999998807907104
			],
			"translation":[
				7.264316082000732e-08,
				0.02237604558467865,
				4.377216100692749e-08
			]
		},
		{
			"children":[
				46
			],
			"name":"LeftHandPinky2",
			"rotation":[
				0.12148158997297287,
				-0.21082782745361328,
				0.05947569012641907,
				0.9681200981140137
			],
			"scale":[
				0.9999999403953552,
				1,
				0.9999999403953552
			],
			"translation":[
				-1.0244548320770264e-08,
				0.028152404353022575,
				-1.3074895832687616e-07
			]
		},
		{
			"children":[
				47
			],
			"name":"LeftHandPinky1",
			"rotation":[
				0.09903910011053085,
				-0.07101712375879288,
				-0.15525269508361816,
				0.9803287386894226
			],
			"translation":[
				0.03913145512342453,
				0.08981315791606903,
				0.010544130578637123
			]
		},
		{
			"children":[
				32,
				36,
				40,
				44,
				48
			],
			"name":"LeftHand",
			"rotation":[
				0.046227771788835526,
				0.038718193769454956,
				-0.018517429009079933,
				0.9980085492134094
			],
			"translation":[
				1.3224780559539795e-07,
				0.251971960067749,
				-1.433963916497305e-07
			]
		},
		{
			"children":[
				49
			],
			"name":"LeftForeArm",
			"rotation":[
				-0.04964977875351906,
				0.023287782445549965,
				0.220481276512146,
				0.9738483428955078
			],
			"scale":[
				0.9999999403953552,
				0.9999999403953552,
				1
			],
			"translation":[
				4.842877388000488e-08,
				0.28512898087501526,
				-1.1560041457414627e-07
			]
		},
		{
			"children":[
				50
			],
			"name":"LeftArm",
			"rotation":[
				0.476682186126709,
				0.042600277811288834,
				-0.058619242161512375,
				0.8760839700698853
			],
			"scale":[
				1,
				0.9999999403953552,
				1
			],
			"translation":[
				-2.991873770952225e-08,
				0.11889556795358658,
				3.1990930438041687e-07
			]
		},
		{
			"children":[
				51
			],
			"name":"LeftShoulder",
			"rotation":[
				0.5049360394477844,
				0.48947980999946594,
				-0.5147032737731934,
				0.490438312292099
			],
			"scale":[
				1,
				1,
				1.0000001192092896
			],
			"translation":[
				0.04713555797934532,
				0.14114828407764435,
				-0.006255095824599266
			]
		},
		{
			"name":"RightHandThumb4",
			"rotation":[
				0.012980589643120766,
				-0.05237787589430809,
				0.006925893481820822,
				0.9985189437866211
			],
			"scale":[
				1,
				1.0000001192092896,
				1
			],
			"translation":[
				9.685754776000977e-08,
				0.035284921526908875,
				-1.564621925354004e-07
			]
		},
		{
			"children":[
				53
			],
			"name":"RightHandThumb3",
			"rotation":[
				0.009762879461050034,
				0.02481621317565441,
				0.08479548990726471,
				0.996041476726532
			],
			"scale":[
				0.9999999403953552,
				1,
				1
			],
			"translation":[
				-8.940696716308594e-08,
				0.03048653155565262,
				7.82310962677002e-08
			]
		},
		{
			"children":[
				54
			],
			"name":"RightHandThumb2",
			"rotation":[
				0.05050259828567505,
				0.07431333512067795,
				0.24984465539455414,
				0.9641082286834717
			],
			"scale":[
				0.9999999403953552,
				1,
				0.9999998807907104
			],
			"translation":[
				1.9371509552001953e-07,
				0.04138229042291641,
				-7.450580596923828e-08
			]
		},
		{
			"children":[
				55
			],
			"name":"RightHandThumb1",
			"rotation":[
				0.1680150330066681,
				0.00992763414978981,
				-0.41488659381866455,
				0.894170880317688
			],
			"scale":[
				0.9999999403953552,
				0.9999999403953552,
				0.9999999403953552
			],
			"translation":[
				0.03235587477684021,
				0.026351897045969963,
				0.005173108074814081
			]
		},
		{
			"name":"RightHandIndex4",
			"rotation":[
				0.04479437693953514,
				-0.05673539265990257,
				0.007137774955481291,
				0.9973583221435547
			],
			"scale":[
				1,
				0.9999998807907104,
				1.0000001192092896
			],
			"translation":[
				5.960464477539063e-08,
				0.03383880853652954,
				4.6566128730773926e-08
			]
		},
		{
			"children":[
				57
			],
			"name":"RightHandIndex3",
			"rotation":[
				0.08441606163978577,
				0.07586346566677094,
				0.02127206325531006,
				0.9933107495307922
			],
			"scale":[
				1.0000001192092896,
				0.9999998807907104,
				1
			],
			"translation":[
				-1.043081283569336e-07,
				0.028345715254545212,
				4.6566128730773926e-08
			]
		},
		{
			"children":[
				58
			],
			"name":"RightHandIndex2",
			"rotation":[
				0.09493181854486465,
				0.005800657905638218,
				-0.02565518580377102,
				0.9951362609863281
			],
			"scale":[
				1,
				1,
				1.0000001192092896
			],
			"translation":[
				-1.4901161193847656e-08,
				0.04467863589525223,
				-5.587935447692871e-09
			]
		},
		{
			"children":[
				59
			],
			"name":"RightHandIndex1",
			"rotation":[
				0.09072711318731308,
				0.05148720741271973,
				-0.07105852663516998,
				0.9920021891593933
			],
			"scale":[
				0.9999999403953552,
				1.0000001192092896,
				0.9999999403953552
			],
			"translation":[
				0.035346172749996185,
				0.09745393693447113,
				-0.006952045485377312
			]
		},
		{
			"name":"RightHandMiddle4",
			"rotation":[
				0.023804640397429466,
				-0.022468123584985733,
				0.0016420301981270313,
				0.9994627833366394
			],
			"scale":[
				0.9999998807907104,
				0.9999998807907104,
				1.0000001192092896
			],
			"translation":[
				-5.960464477539063e-08,
				0.03456250950694084,
				-1.5273690223693848e-07
			]
		},
		{
			"children":[
				61
			],
			"name":"RightHandMiddle3",
			"rotation":[
				0.20182833075523376,
				0.022603731602430344,
				0.04359415918588638,
				0.9781891107559204
			],
			"scale":[
				0.9999999403953552,
				1,
				1
			],
			"translation":[
				-5.960464477539063e-08,
				0.035407546907663345,
				-2.1792948246002197e-07
			]
		},
		{
			"children":[
				62
			],
			"name":"RightHandMiddle2",
			"rotation":[
				0.12757854163646698,
				0.009707363322377205,
				-0.04308449849486351,
				0.9908446669578552
			],
			"scale":[
				1,
				1,
				0.9999999403953552
			],
			"translation":[
				1.7136335372924805e-07,
				0.045697763562202454,
				-1.2126110959798098e-07
			]
		},
		{
			"children":[
				63
			],
			"name":"RightHandMiddle1",
			"rotation":[
				0.03872117027640343,
				0.06741156429052353,
				-0.01520755048841238,
				0.9968576431274414
			],
			"translation":[
				0.009198680520057678,
				0.10019773244857788,
				-0.003484210930764675
			]
		},
		{
			"name":"RightHandRing4",
			"rotation":[
				0.006657982710748911,
				0.006906465627253056,
				-0.022115064784884453,
				0.9997093677520752
			],
			"scale":[
				1,
				1,
				0.9999999403953552
			],
			"translation":[
				4.0978193283081055e-08,
				0.02981284260749817,
				-1.7834827303886414e-07
			]
		},
		{
			"children":[
				65
			],
			"name":"RightHandRing3",
			"rotation":[
				0.03906093165278435,
				0.005795388948172331,
				-0.0018977017607539892,
				0.999218225479126
			],
			"scale":[
				1,
				1,
				0.9999999403953552
			],
			"translation":[
				-7.450580596923828e-08,
				0.036162540316581726,
				-3.119930624961853e-08
			]
		},
		{
			"children":[
				66
			],
			"name":"RightHandRing2",
			"rotation":[
				0.1862255036830902,
				0.016192838549613953,
				-0.045855555683374405,
				0.9813027381896973
			],
			"scale":[
				0.9999999403953552,
				1.0000001192092896,
				1
			],
			"translation":[
				-7.450580596923828e-08,
				0.04190037027001381,
				-9.383074939250946e-08
			]
		},
		{
			"children":[
				67
			],
			"name":"RightHandRing1",
			"rotation":[
				0.06409602612257004,
				0.05492602288722992,
				0.05797234922647476,
				0.9947432279586792
			],
			"scale":[
				0.9999999403953552,
				1,
				0.9999999403953552
			],
			"translation":[
				-0.015422165393829346,
				0.09560420364141464,
				0.0022297282703220844
			]
		},
		{
			"name":"RightHandPinky4",
			"rotation":[
				0.13739925622940063,
				-0.10453581809997559,
				0.01238164957612753,
				0.9849063158035278
			],
			"scale":[
				0.9999999403953552,
				1.0000001192092896,
				1
			],
			"translation":[
				8.009374141693115e-08,
				0.026324378326535225,
				-1.862645149230957e-09
			]
		},
		{
			"children":[
				69
			],
			"name":"RightHandPinky3",
			"rotation":[
				0.12270519882440567,
				0.011932623572647572,
				-0.01215969305485487,
				0.9922969341278076
			],
			"scale":[
				1,
				1,
				0.9999999403953552
			],
			"translation":[
				-1.1175870895385742e-08,
				0.022375795990228653,
				-3.939494490623474e-07
			]
		},
		{
			"children":[
				70
			],
			"name":"RightHandPinky2",
			"rotation":[
				0.12148156017065048,
				0.21082744002342224,
				-0.059474702924489975,
				0.968120276927948
			],
			"scale":[
				0.9999999403953552,
				0.9999999403953552,
				0.9999998807907104
			],
			"translation":[
				8.731149137020111e-09,
				0.02815227024257183,
				2.2071617422625422e-07
			]
		},
		{
			"children":[
				71
			],
			"name":"RightHandPinky1",
			"rotation":[
				0.09903553128242493,
				0.07101310044527054,
				0.1552528589963913,
				0.9803293943405151
			],
			"scale":[
				0.9999999403953552,
				1,
				1
			],
			"translation":[
				-0.03913189843297005,
				0.08981350809335709,
				0.010543647222220898
			]
		},
		{
			"children":[
				56,
				60,
				64,
				68,
				72
			],
			"name":"RightHand",
			"rotation":[
				0.04623058810830116,
				-0.03871486335992813,
				0.018517296761274338,
				0.9980085492134094
			],
			"scale":[
				0.9999998211860657,
				0.9999997615814209,
				0.9999998211860657
			],
			"translation":[
				-7.450580596923828e-08,
				0.2519721984863281,
				2.0373227016534656e-07
			]
		},
		{
			"children":[
				73
			],
			"name":"RightForeArm",
			"rotation":[
				-0.04964914917945862,
				-0.02328553982079029,
				-0.22048117220401764,
				0.9738484025001526
			],
			"scale":[
				1,
				1.0000001192092896,
				1
			],
			"translation":[
				-6.51925802230835e-08,
				0.2851283550262451,
				1.6088597476482391e-07
			]
		},
		{
			"children":[
				74
			],
			"name":"RightArm",
			"rotation":[
				0.47668054699897766,
				-0.04260213300585747,
				0.058619383722543716,
				0.8760848045349121
			],
			"scale":[
				1,
				0.9999999403953552,
				0.9999999403953552
			],
			"translation":[
				-1.0710209608078003e-08,
				0.1188957691192627,
				-2.6635825634002686e-07
			]
		},
		{
			"children":[
				75
			],
			"name":"RightShoulder",
			"rotation":[
				0.5049322247505188,
				-0.48948293924331665,
				0.5147005915641785,
				0.49044209718704224
			],
			"scale":[
				1,
				0.9999998211860657,
				1.0000001192092896
			],
			"translation":[
				-0.047135453671216965,
				0.14114809036254883,
				-0.006255114451050758
			]
		},
		{
			"children":[
				28,
				52,
				76
			],
			"name":"Spine2",
			"rotation":[
				0.047201234847307205,
				-2.7527764245860453e-07,
				1.1572804936577086e-07,
				0.9988853931427002
			],
			"scale":[
				1,
				1.0000001192092896,
				1
			],
			"translation":[
				2.1316282072803006e-14,
				0.12180644273757935,
				-5.587947882190747e-09
			]
		},
		{
			"children":[
				77
			],
			"name":"Spine1",
			"rotation":[
				-0.032173819839954376,
				6.979569633358551e-08,
				9.872987050130178e-08,
				0.999482274055481
			],
			"translation":[
				-1.455224829527424e-13,
				0.13049732148647308,
				2.4854669433693743e-08
			]
		},
		{
			"children":[
				78
			],
			"name":"Spine",
			"rotation":[
				-0.06869359314441681,
				2.6276313292328268e-05,
				1.8178913023803034e-06,
				0.9976378083229065
			],
			"translation":[
				2.5011104298755527e-12,
				0.0984732061624527,
				3.725319608349764e-09
			]
		},
		{
			"name":"LeftToe_End",
			"rotation":[
				0.0069078486412763596,
				0.6984156370162964,
				0.017670314759016037,
				0.7154408693313599
			],
			"scale":[
				1.0000001192092896,
				1.0000001192092896,
				1
			],
			"translation":[
				-5.474576028063893e-07,
				0.09907485544681549,
				-5.820766091346741e-10
			]
		},
		{
			"children":[
				80
			],
			"name":"LeftToeBase",
			"rotation":[
				0.26822906732559204,
				-0.043755725026130676,
				0.018545810133218765,
				0.9621822237968445
			],
			"scale":[
				0.9999999403953552,
				1,
				1.0000001192092896
			],
			"translation":[
				4.0512531995773315e-07,
				0.1488443911075592,
				-1.0523945093154907e-07
			]
		},
		{
			"children":[
				81
			],
			"name":"LeftFoot",
			"rotation":[
				0.5074414014816284,
				0.016668137162923813,
				0.0015590855618938804,
				0.8615236282348633
			],
			"scale":[
				0.9999999403953552,
				0.9999997615814209,
				0.9999999403953552
			],
			"translation":[
				3.2267416827380657e-07,
				0.4438588619232178,
				-4.069588612765074e-07
			]
		},
		{
			"children":[
				82
			],
			"name":"LeftLeg",
			"rotation":[
				-0.041655026376247406,
				-0.00030807385337539017,
				-0.0029114647768437862,
				0.9991278052330017
			],
			"scale":[
				0.9999998807907104,
				0.9999999403953552,
				0.9999998807907104
			],
			"translation":[
				2.6715497369877994e-08,
				0.4581737220287323,
				1.0506482794880867e-08
			]
		},
		{
			"children":[
				83
			],
			"name":"LeftUpLeg",
			"rotation":[
				0.001423196867108345,
				-0.009613867849111557,
				-0.9994101524353027,
				0.03293795511126518
			],
			"scale":[
				1.0000048875808716,
				1,
				1.0000004768371582
			],
			"translation":[
				0.09534373134374619,
				0.005192707292735577,
				-0.0033022984862327576
			]
		},
		{
			"name":"RightToe_End",
			"rotation":[
				0.006907455623149872,
				-0.6984379291534424,
				-0.017670445144176483,
				0.7154191732406616
			],
			"scale":[
				0.9999999403953552,
				1,
				0.9999999403953552
			],
			"translation":[
				5.085894372314215e-07,
				0.09907485544681549,
				8.731149137020111e-09
			]
		},
		{
			"children":[
				85
			],
			"name":"RightToeBase",
			"rotation":[
				0.26822996139526367,
				0.04375474154949188,
				-0.01855301856994629,
				0.9621819257736206
			],
			"scale":[
				0.9999997019767761,
				0.9999998211860657,
				0.9999998211860657
			],
			"translation":[
				-5.122274160385132e-08,
				0.14884397387504578,
				2.7008354663848877e-07
			]
		},
		{
			"children":[
				86
			],
			"name":"RightFoot",
			"rotation":[
				0.5074406266212463,
				-0.016666164621710777,
				-0.0015558875165879726,
				0.8615241646766663
			],
			"scale":[
				1,
				0.9999998807907104,
				1.0000001192092896
			],
			"translation":[
				-1.8379068933427334e-08,
				0.4438593089580536,
				5.6461431086063385e-09
			]
		},
		{
			"children":[
				87
			],
			"name":"RightLeg",
			"rotation":[
				-0.041655343025922775,
				0.0003089848323725164,
				0.00291189132258296,
				0.9991278052330017
			],
			"scale":[
				1.0000001192092896,
				1,
				1
			],
			"translation":[
				-1.1519659892655909e-08,
				0.4581744968891144,
				5.413312464952469e-09
			]
		},
		{
			"children":[
				88
			],
			"name":"RightUpLeg",
			"rotation":[
				0.0014777373289689422,
				0.009615615010261536,
				0.999410092830658,
				0.03293762728571892
			],
			"scale":[
				1.0000051259994507,
				1,
				1.0000004768371582
			],
			"translation":[
				-0.09534402936697006,
				0.005192945711314678,
				-0.003292328678071499
			]
		},
		{
			"children":[
				79,
				84,
				89
			],
			"name":"Hips",
			"rotation":[
				0.016230382025241852,
				-2.6236550183966756e-05,
				-4.230286947404238e-07,
				0.9998682737350464
			],
			"translation":[
				8.96363562787883e-05,
				-0.05542933940887451,
				-0.059570882469415665
			]
		},
		{
			"name":"neutral_bone",
			"rotation":[
				-0.7071067690849304,
				0,
				0,
				0.7071067690849304
			]
		},
		{
			"mesh":0,
			"name":"EyeLeft",
			"skin":0
		},
		{
			"mesh":2,
			"name":"EyeRight",
			"skin":0
		},
		{
			"mesh":3,
			"name":"Wolf3D_Beard",
			"skin":0
		},
		{
			"mesh":4,
			"name":"Wolf3D_Hair",
			"skin":0
		},
		{
			"mesh":5,
			"name":"Wolf3D_Head",
			"skin":0
		},
		{
			"mesh":6,
			"name":"Wolf3D_Outfit_Bottom",
			"skin":0
		},
		{
			"mesh":7,
			"name":"Wolf3D_Outfit_Bottom.001",
			"skin":0
		},
		{
			"mesh":8,
			"name":"Wolf3D_Outfit_Footwear",
			"skin":0
		},
		{
			"mesh":9,
			"name":"Wolf3D_Outfit_Top",
			"skin":0
		},
		{
			"mesh":10,
			"name":"Wolf3D_Outfit_Top.001",
			"skin":0
		},
		{
			"mesh":11,
			"name":"Wolf3D_Teeth",
			"skin":0
		},
		{
			"mesh":12,
			"name":"Wolf3D_Teeth.001",
			"skin":0
		},
		{
			"mesh":13,
			"name":"Wolf3D_Teeth.002",
			"skin":0
		},
		{
			"children":[
				92,
				93,
				94,
				95,
				96,
				97,
				98,
				99,
				100,
				101,
				102,
				103,
				104,
				90,
				91
			],
			"name":"Armature",
			"translation":[
				-8.96363562787883e-05,
				1.0746195316314697,
				0.06960143893957138
			]
		},
		{
			"mesh":14,
			"name":"Cube",
			"translation":[
				0.008089707233011723,
				1.1222549676895142,
				0.15389560163021088
			]
		}
	],
	"materials":[
		{
			"name":"Wolf3D_Eye",
			"pbrMetallicRoughness":{
				"baseColorTexture":{
					"index":0
				},
				"metallicFactor":0
			}
		},
		{
			"doubleSided":true,
			"extensions":{
				"KHR_materials_specular":{
					"specularColorFactor":[
						0.9028563206406519,
						0.9028563206406519,
						0.9028563206406519
					]
				},
				"KHR_materials_ior":{
					"ior":1.4500000476837158
				}
			},
			"name":"Material.001",
			"pbrMetallicRoughness":{
				"baseColorFactor":[
					0.15319086611270905,
					0.004374898038804531,
					0.005494073033332825,
					1
				],
				"metallicFactor":0,
				"roughnessFactor":0.5
			}
		},
		{
			"doubleSided":true,
			"name":"kavuk",
			"pbrMetallicRoughness":{
				"baseColorFactor":[
					0.5983940958976746,
					0.5983940958976746,
					0.5983940958976746,
					1
				],
				"metallicFactor":0,
				"roughnessFactor":0.5
			}
		},
		{
			"extensions":{
				"KHR_materials_specular":{
					"specularColorFactor":[
						1.513761520385742,
						1.513761520385742,
						1.513761520385742
					]
				}
			},
			"name":"Wolf3D_Beard",
			"normalTexture":{
				"index":1
			},
			"pbrMetallicRoughness":{
				"baseColorTexture":{
					"index":2
				},
				"metallicFactor":0.2110091596841812,
				"roughnessFactor":0.742827296257019
			}
		},
		{
			"doubleSided":true,
			"name":"yuz9",
			"pbrMetallicRoughness":{
				"baseColorTexture":{
					"index":3
				},
				"metallicFactor":0,
				"roughnessFactor":0.5
			}
		},
		{
			"name":"Wolf3D_Outfit_Bottom",
			"normalTexture":{
				"index":4
			},
			"pbrMetallicRoughness":{
				"baseColorTexture":{
					"index":5
				},
				"metallicRoughnessTexture":{
					"index":6
				}
			}
		},
		{
			"doubleSided":true,
			"name":"kaftandesen",
			"pbrMetallicRoughness":{
				"baseColorTexture":{
					"index":7
				},
				"metallicFactor":0,
				"roughnessFactor":0.5
			}
		},
		{
			"doubleSided":true,
			"name":"arma",
			"pbrMetallicRoughness":{
				"baseColorTexture":{
					"index":8
				},
				"metallicFactor":0,
				"roughnessFactor":0.5
			}
		},
		{
			"doubleSided":true,
			"extensions":{
				"KHR_materials_specular":{
					"specularColorFactor":[
						0.9681230809308,
						0.9681230809308,
						0.9681230809308
					]
				},
				"KHR_materials_ior":{
					"ior":1.4500000476837158
				}
			},
			"name":"gumus",
			"pbrMetallicRoughness":{
				"baseColorFactor":[
					0.2929508686065674,
					0.2929508686065674,
					0.2929508686065674,
					1
				],
				"metallicFactor":0.7614678740501404,
				"roughnessFactor":0.5275229215621948
			}
		},
		{
			"name":"Wolf3D_Outfit_Footwear",
			"normalTexture":{
				"index":9
			},
			"pbrMetallicRoughness":{
				"baseColorTexture":{
					"index":10
				},
				"metallicFactor":0,
				"metallicRoughnessTexture":{
					"index":11
				}
			}
		},
		{
			"doubleSided":true,
			"name":"k\u0131yafet",
			"pbrMetallicRoughness":{
				"baseColorFactor":[
					0.0049837552942335606,
					0.12369350343942642,
					0.17877286672592163,
					1
				],
				"metallicFactor":0,
				"roughnessFactor":0.5
			}
		},
		{
			"name":"Wolf3D_Skin",
			"pbrMetallicRoughness":{
				"baseColorTexture":{
					"index":12
				},
				"metallicFactor":0,
				"roughnessFactor":0.699999988079071
			}
		},
		{
			"doubleSided":true,
			"name":"k\u0131yafet2",
			"pbrMetallicRoughness":{
				"baseColorFactor":[
					0.2585437297821045,
					0.009154771454632282,
					0.005873478017747402,
					1
				],
				"metallicFactor":0,
				"roughnessFactor":0.5
			}
		},
		{
			"doubleSided":true,
			"name":"kaftandesencicek",
			"pbrMetallicRoughness":{
				"baseColorTexture":{
					"index":13
				},
				"metallicFactor":0,
				"roughnessFactor":0.5
			}
		},
		{
			"doubleSided":true,
			"name":"k\u0131yafetdesenli",
			"pbrMetallicRoughness":{
				"baseColorTexture":{
					"index":14
				},
				"metallicFactor":0,
				"roughnessFactor":0.5
			}
		},
		{
			"doubleSided":true,
			"extensions":{
				"KHR_materials_specular":{
					"specularColorFactor":[
						0.8158340442590851,
						0.8158340442590851,
						0.8158340442590851
					]
				},
				"KHR_materials_ior":{
					"ior":1.4500000476837158
				}
			},
			"name":"kaftanSade",
			"pbrMetallicRoughness":{
				"baseColorTexture":{
					"index":15
				},
				"metallicFactor":0,
				"roughnessFactor":0.7201834917068481
			}
		},
		{
			"doubleSided":true,
			"name":"kurk",
			"pbrMetallicRoughness":{
				"baseColorTexture":{
					"index":16
				},
				"metallicFactor":0,
				"roughnessFactor":0.5
			}
		},
		{
			"doubleSided":true,
			"name":"Wolf3D_Teeth",
			"pbrMetallicRoughness":{
				"baseColorTexture":{
					"index":17
				},
				"metallicFactor":0
			}
		},
		{
			"doubleSided":true,
			"name":"Material.009",
			"pbrMetallicRoughness":{
				"baseColorTexture":{
					"index":18
				},
				"metallicFactor":0.7339449524879456,
				"roughnessFactor":0.5
			}
		},
		{
			"doubleSided":true,
			"extensions":{
				"KHR_materials_specular":{
					"specularColorFactor":[
						0.9681230809308,
						0.9681230809308,
						0.9681230809308
					]
				},
				"KHR_materials_ior":{
					"ior":1.4500000476837158
				}
			},
			"name":"gri.001",
			"pbrMetallicRoughness":{
				"baseColorFactor":[
					0.31110212206840515,
					0.31110212206840515,
					0.31110212206840515,
					1
				],
				"metallicFactor":0.8165137767791748,
				"roughnessFactor":0.5
			}
		},
		{
			"doubleSided":true,
			"name":"Material.008",
			"pbrMetallicRoughness":{
				"baseColorFactor":[
					0.26410481333732605,
					0.19428278505802155,
					0.2177240252494812,
					1
				],
				"metallicFactor":0.9449541568756104,
				"roughnessFactor":0.49082568287849426
			}
		},
		{
			"doubleSided":true,
			"name":"sar\u0131",
			"pbrMetallicRoughness":{
				"baseColorFactor":[
					0.5894144773483276,
					0.5583676695823669,
					0.12833578884601593,
					1
				],
				"metallicFactor":0.7798165082931519,
				"roughnessFactor":0.5183486342430115
			}
		}
	],
	"meshes":[
		{
			"extras":{
				"targetNames":[
					"mouthOpen",
					"mouthSmile"
				]
			},
			"name":"EyeLeft",
			"primitives":[
				{
					"attributes":{
						"POSITION":0,
						"NORMAL":1,
						"TEXCOORD_0":2,
						"JOINTS_0":3,
						"WEIGHTS_0":4
					},
					"indices":5,
					"material":0,
					"targets":[
						{
							"POSITION":6,
							"NORMAL":7
						},
						{
							"POSITION":8,
							"NORMAL":9
						}
					]
				}
			],
			"weights":[
				0,
				0
			]
		},
		{
			"name":"TwistedTorus",
			"primitives":[
				{
					"attributes":{
						"POSITION":11,
						"NORMAL":12,
						"TEXCOORD_0":13
					},
					"indices":14,
					"material":1
				},
				{
					"attributes":{
						"POSITION":15,
						"NORMAL":16,
						"TEXCOORD_0":17
					},
					"indices":18,
					"material":2
				}
			]
		},
		{
			"extras":{
				"targetNames":[
					"mouthOpen",
					"mouthSmile"
				]
			},
			"name":"EyeRight",
			"primitives":[
				{
					"attributes":{
						"POSITION":19,
						"NORMAL":20,
						"TEXCOORD_0":21,
						"JOINTS_0":22,
						"WEIGHTS_0":23
					},
					"indices":24,
					"material":0,
					"targets":[
						{
							"POSITION":25,
							"NORMAL":26
						},
						{
							"POSITION":27,
							"NORMAL":28
						}
					]
				}
			],
			"weights":[
				0,
				0
			]
		},
		{
			"extras":{
				"targetNames":[
					"mouthOpen",
					"mouthSmile"
				]
			},
			"name":"Wolf3D_Beard",
			"primitives":[
				{
					"attributes":{
						"POSITION":29,
						"NORMAL":30,
						"TEXCOORD_0":31,
						"JOINTS_0":32,
						"WEIGHTS_0":33
					},
					"indices":34,
					"material":3,
					"targets":[
						{
							"POSITION":35,
							"NORMAL":36
						},
						{
							"POSITION":37,
							"NORMAL":38
						}
					]
				}
			],
			"weights":[
				0,
				0
			]
		},
		{
			"name":"Wolf3D_Hair",
			"primitives":[
				{
					"attributes":{
						"POSITION":39,
						"NORMAL":40,
						"TEXCOORD_0":41,
						"JOINTS_0":42,
						"WEIGHTS_0":43
					},
					"indices":44,
					"material":3
				}
			]
		},
		{
			"extras":{
				"targetNames":[
					"mouthOpen",
					"mouthSmile"
				]
			},
			"name":"Wolf3D_Head",
			"primitives":[
				{
					"attributes":{
						"POSITION":45,
						"NORMAL":46,
						"TEXCOORD_0":47,
						"JOINTS_0":48,
						"WEIGHTS_0":49
					},
					"indices":50,
					"material":4,
					"targets":[
						{
							"POSITION":51,
							"NORMAL":52
						},
						{
							"POSITION":53,
							"NORMAL":54
						}
					]
				}
			],
			"weights":[
				0,
				0
			]
		},
		{
			"name":"Wolf3D_Outfit_Bottom",
			"primitives":[
				{
					"attributes":{
						"POSITION":55,
						"NORMAL":56,
						"TEXCOORD_0":57,
						"JOINTS_0":58,
						"WEIGHTS_0":59
					},
					"indices":60,
					"material":5
				}
			]
		},
		{
			"name":"Wolf3D_Outfit_Bottom.001",
			"primitives":[
				{
					"attributes":{
						"POSITION":61,
						"NORMAL":62,
						"TEXCOORD_0":63,
						"JOINTS_0":64,
						"WEIGHTS_0":65
					},
					"indices":66,
					"material":6
				},
				{
					"attributes":{
						"POSITION":67,
						"NORMAL":68,
						"TEXCOORD_0":69,
						"JOINTS_0":70,
						"WEIGHTS_0":71
					},
					"indices":72,
					"material":7
				},
				{
					"attributes":{
						"POSITION":73,
						"NORMAL":74,
						"TEXCOORD_0":75,
						"JOINTS_0":76,
						"WEIGHTS_0":77
					},
					"indices":78,
					"material":8
				}
			]
		},
		{
			"name":"Wolf3D_Outfit_Footwear",
			"primitives":[
				{
					"attributes":{
						"POSITION":79,
						"NORMAL":80,
						"TEXCOORD_0":81,
						"JOINTS_0":82,
						"WEIGHTS_0":83
					},
					"indices":84,
					"material":9
				}
			]
		},
		{
			"name":"Wolf3D_Outfit_Top",
			"primitives":[
				{
					"attributes":{
						"POSITION":85,
						"NORMAL":86,
						"TEXCOORD_0":87,
						"JOINTS_0":88,
						"WEIGHTS_0":89
					},
					"indices":90,
					"material":10
				},
				{
					"attributes":{
						"POSITION":91,
						"NORMAL":92,
						"TEXCOORD_0":93,
						"JOINTS_0":94,
						"WEIGHTS_0":95
					},
					"indices":96,
					"material":11
				},
				{
					"attributes":{
						"POSITION":97,
						"NORMAL":98,
						"TEXCOORD_0":99,
						"JOINTS_0":100,
						"WEIGHTS_0":101
					},
					"indices":102,
					"material":2
				},
				{
					"attributes":{
						"POSITION":103,
						"NORMAL":104,
						"TEXCOORD_0":105,
						"JOINTS_0":106,
						"WEIGHTS_0":107
					},
					"indices":108,
					"material":12
				},
				{
					"attributes":{
						"POSITION":109,
						"NORMAL":110,
						"TEXCOORD_0":111,
						"JOINTS_0":112,
						"WEIGHTS_0":113
					},
					"indices":114,
					"material":6
				},
				{
					"attributes":{
						"POSITION":115,
						"NORMAL":116,
						"TEXCOORD_0":117,
						"JOINTS_0":118,
						"WEIGHTS_0":119
					},
					"indices":120,
					"material":13
				},
				{
					"attributes":{
						"POSITION":121,
						"NORMAL":122,
						"TEXCOORD_0":123,
						"JOINTS_0":124,
						"WEIGHTS_0":125
					},
					"indices":126,
					"material":14
				},
				{
					"attributes":{
						"POSITION":127,
						"NORMAL":128,
						"TEXCOORD_0":129,
						"JOINTS_0":130,
						"WEIGHTS_0":131
					},
					"indices":132,
					"material":15
				}
			]
		},
		{
			"name":"Wolf3D_Outfit_Top.001",
			"primitives":[
				{
					"attributes":{
						"POSITION":133,
						"NORMAL":134,
						"TEXCOORD_0":135,
						"JOINTS_0":136,
						"WEIGHTS_0":137
					},
					"indices":138,
					"material":16
				}
			]
		},
		{
			"extras":{
				"targetNames":[
					"mouthOpen",
					"mouthSmile"
				]
			},
			"name":"Wolf3D_Teeth",
			"primitives":[
				{
					"attributes":{
						"POSITION":139,
						"NORMAL":140,
						"TEXCOORD_0":141,
						"JOINTS_0":142,
						"WEIGHTS_0":143
					},
					"indices":144,
					"material":17,
					"targets":[
						{
							"POSITION":145,
							"NORMAL":146
						},
						{
							"POSITION":147,
							"NORMAL":148
						}
					]
				}
			],
			"weights":[
				0,
				0
			]
		},
		{
			"extras":{
				"targetNames":[
					"mouthOpen",
					"mouthSmile"
				]
			},
			"name":"Wolf3D_Teeth.001",
			"primitives":[
				{
					"attributes":{
						"POSITION":149,
						"NORMAL":150,
						"TEXCOORD_0":151,
						"JOINTS_0":152,
						"WEIGHTS_0":153
					},
					"indices":154,
					"material":17,
					"targets":[
						{
							"POSITION":155,
							"NORMAL":156
						},
						{
							"POSITION":157,
							"NORMAL":158
						}
					]
				}
			],
			"weights":[
				0,
				0
			]
		},
		{
			"extras":{
				"targetNames":[
					"mouthOpen",
					"mouthSmile"
				]
			},
			"name":"Wolf3D_Teeth.002",
			"primitives":[
				{
					"attributes":{
						"POSITION":159,
						"NORMAL":160,
						"TEXCOORD_0":161,
						"JOINTS_0":162,
						"WEIGHTS_0":163
					},
					"indices":164,
					"material":17,
					"targets":[
						{
							"POSITION":165,
							"NORMAL":166
						},
						{
							"POSITION":167,
							"NORMAL":168
						}
					]
				}
			],
			"weights":[
				0,
				0
			]
		},
		{
			"name":"Cube.003",
			"primitives":[
				{
					"attributes":{
						"POSITION":169,
						"NORMAL":170,
						"TEXCOORD_0":171
					},
					"indices":172,
					"material":18
				},
				{
					"attributes":{
						"POSITION":173,
						"NORMAL":174,
						"TEXCOORD_0":175
					},
					"indices":176,
					"material":19
				},
				{
					"attributes":{
						"POSITION":177,
						"NORMAL":178,
						"TEXCOORD_0":179
					},
					"indices":180,
					"material":20
				},
				{
					"attributes":{
						"POSITION":181,
						"NORMAL":182,
						"TEXCOORD_0":183
					},
					"indices":184,
					"material":21
				}
			]
		}
	],
	"textures":[
		{
			"sampler":0,
			"source":0
		},
		{
			"sampler":0,
			"source":1
		},
		{
			"sampler":0,
			"source":2
		},
		{
			"sampler":0,
			"source":3
		},
		{
			"sampler":1,
			"source":4
		},
		{
			"sampler":1,
			"source":5
		},
		{
			"sampler":1,
			"source":6
		},
		{
			"sampler":0,
			"source":7
		},
		{
			"sampler":0,
			"source":8
		},
		{
			"sampler":1,
			"source":9
		},
		{
			"sampler":1,
			"source":10
		},
		{
			"sampler":1,
			"source":11
		},
		{
			"sampler":0,
			"source":12
		},
		{
			"sampler":0,
			"source":13
		},
		{
			"sampler":0,
			"source":14
		},
		{
			"sampler":0,
			"source":15
		},
		{
			"sampler":0,
			"source":16
		},
		{
			"sampler":0,
			"source":17
		},
		{
			"sampler":0,
			"source":15
		}
	],
	"images":[
		{
			"mimeType":"image/png",
			"name":"baseColor",
			"uri":"FSM6Dosya/baseColor.png"
		},
		{
			"mimeType":"image/jpeg",
			"name":"beard-04-N",
			"uri":"FSM6Dosya/beard-04-N.jpg"
		},
		{
			"mimeType":"image/png",
			"name":"baseColor",
			"uri":"FSM6Dosya/baseColor-1.png"
		},
		{
			"mimeType":"image/png",
			"name":"fsmdeg13 (3)",
			"uri":"FSM6Dosya/fsmdeg13%203.png"
		},
		{
			"mimeType":"image/jpeg",
			"name":"outfit-doctor-01-v2-m-bottom-N",
			"uri":"FSM6Dosya/outfit-doctor-01-v2-m-bottom-N.jpg"
		},
		{
			"mimeType":"image/jpeg",
			"name":"outfit-doctor-01-v2-m-bottom-D",
			"uri":"FSM6Dosya/outfit-doctor-01-v2-m-bottom-D.jpg"
		},
		{
			"mimeType":"image/jpeg",
			"name":"outfit-doctor-01-v2-m-bottom-M-outfit-doctor-01-v2-m-bottom-R",
			"uri":"FSM6Dosya/outfit-doctor-01-v2-m-bottom-M-outfit-doctor-01-v2-m-bottom-R.jpg"
		},
		{
			"mimeType":"image/png",
			"name":"FSM",
			"uri":"FSM6Dosya/FSM.png"
		},
		{
			"mimeType":"image/png",
			"name":"logo1",
			"uri":"FSM6Dosya/logo1.png"
		},
		{
			"mimeType":"image/jpeg",
			"name":"outfit-doctor-01-v2-m-footwear-N",
			"uri":"FSM6Dosya/outfit-doctor-01-v2-m-footwear-N.jpg"
		},
		{
			"mimeType":"image/jpeg",
			"name":"outfit-doctor-01-v2-m-footwear-D",
			"uri":"FSM6Dosya/outfit-doctor-01-v2-m-footwear-D.jpg"
		},
		{
			"mimeType":"image/jpeg",
			"name":"outfit-doctor-01-v2-m-footwear-R",
			"uri":"FSM6Dosya/outfit-doctor-01-v2-m-footwear-R.jpg"
		},
		{
			"mimeType":"image/jpeg",
			"name":"fsm",
			"uri":"FSM6Dosya/fsm.jpg"
		},
		{
			"mimeType":"image/png",
			"name":"FSM-1 - Kopya",
			"uri":"FSM6Dosya/FSM-1%20-%20Kopya.png"
		},
		{
			"mimeType":"image/png",
			"name":"k\u0131yafetDesen",
			"uri":"FSM6Dosya/k%C4%B1yafetDesen.png"
		},
		{
			"mimeType":"image/png",
			"name":"kaftanSade",
			"uri":"FSM6Dosya/kaftanSade.png"
		},
		{
			"mimeType":"image/jpeg",
			"name":"kurkKahve",
			"uri":"FSM6Dosya/kurkKahve.jpg"
		},
		{
			"mimeType":"image/jpeg",
			"name":"Wolf3D_Teeth",
			"uri":"FSM6Dosya/Wolf3D_Teeth.jpg"
		}
	],
	"skins":[
		{
			"inverseBindMatrices":10,
			"joints":[
				90,
				79,
				78,
				77,
				28,
				27,
				0,
				1,
				2,
				4,
				10,
				9,
				6,
				5,
				8,
				7,
				16,
				15,
				12,
				11,
				14,
				13,
				21,
				18,
				17,
				20,
				19,
				26,
				23,
				22,
				25,
				24,
				52,
				51,
				50,
				49,
				32,
				31,
				30,
				29,
				36,
				35,
				34,
				33,
				40,
				39,
				38,
				37,
				44,
				43,
				42,
				41,
				48,
				47,
				46,
				45,
				76,
				75,
				74,
				73,
				56,
				55,
				54,
				53,
				60,
				59,
				58,
				57,
				64,
				63,
				62,
				61,
				68,
				67,
				66,
				65,
				72,
				71,
				70,
				69,
				84,
				83,
				82,
				81,
				80,
				89,
				88,
				87,
				86,
				85,
				91
			],
			"name":"Armature"
		}
	],
	"accessors":[
		{
			"bufferView":0,
			"componentType":5126,
			"count":120,
			"max":[
				0.04781639575958252,
				1.7406855821609497,
				0.11012590676546097
			],
			"min":[
				0.01568128913640976,
				1.7085366249084473,
				0.09316271543502808
			],
			"type":"VEC3"
		},
		{
			"bufferView":1,
			"componentType":5126,
			"count":120,
			"type":"VEC3"
		},
		{
			"bufferView":2,
			"componentType":5126,
			"count":120,
			"type":"VEC2"
		},
		{
			"bufferView":3,
			"componentType":5121,
			"count":120,
			"type":"VEC4"
		},
		{
			"bufferView":4,
			"componentType":5126,
			"count":120,
			"type":"VEC4"
		},
		{
			"bufferView":5,
			"componentType":5123,
			"count":618,
			"type":"SCALAR"
		},
		{
			"bufferView":6,
			"componentType":5126,
			"count":120,
			"max":[
				0,
				0,
				0
			],
			"min":[
				0,
				0,
				0
			],
			"type":"VEC3"
		},
		{
			"bufferView":7,
			"componentType":5126,
			"count":120,
			"type":"VEC3"
		},
		{
			"bufferView":8,
			"componentType":5126,
			"count":120,
			"max":[
				0,
				0,
				0
			],
			"min":[
				0,
				0,
				0
			],
			"type":"VEC3"
		},
		{
			"bufferView":9,
			"componentType":5126,
			"count":120,
			"type":"VEC3"
		},
		{
			"bufferView":10,
			"componentType":5126,
			"count":91,
			"type":"MAT4"
		},
		{
			"bufferView":11,
			"componentType":5126,
			"count":120,
			"max":[
				0.04739190265536308,
				0.12146686762571335,
				0.04084507375955582
			],
			"min":[
				-0.05291789397597313,
				0.05500292778015137,
				-0.05769238620996475
			],
			"type":"VEC3"
		},
		{
			"bufferView":12,
			"componentType":5126,
			"count":120,
			"type":"VEC3"
		},
		{
			"bufferView":13,
			"componentType":5126,
			"count":120,
			"type":"VEC2"
		},
		{
			"bufferView":14,
			"componentType":5123,
			"count":360,
			"type":"SCALAR"
		},
		{
			"bufferView":15,
			"componentType":5126,
			"count":3351,
			"max":[
				0.1415289044380188,
				0.09141850471496582,
				0.13386820256710052
			],
			"min":[
				-0.13222910463809967,
				-0.2012239694595337,
				-0.12821930646896362
			],
			"type":"VEC3"
		},
		{
			"bufferView":16,
			"componentType":5126,
			"count":3351,
			"type":"VEC3"
		},
		{
			"bufferView":17,
			"componentType":5126,
			"count":3351,
			"type":"VEC2"
		},
		{
			"bufferView":18,
			"componentType":5123,
			"count":4425,
			"type":"SCALAR"
		},
		{
			"bufferView":19,
			"componentType":5126,
			"count":120,
			"max":[
				-0.014754049479961395,
				1.7407147884368896,
				0.11045554280281067
			],
			"min":[
				-0.046753715723752975,
				1.7084996700286865,
				0.09342695027589798
			],
			"type":"VEC3"
		},
		{
			"bufferView":20,
			"componentType":5126,
			"count":120,
			"type":"VEC3"
		},
		{
			"bufferView":21,
			"componentType":5126,
			"count":120,
			"type":"VEC2"
		},
		{
			"bufferView":22,
			"componentType":5121,
			"count":120,
			"type":"VEC4"
		},
		{
			"bufferView":23,
			"componentType":5126,
			"count":120,
			"type":"VEC4"
		},
		{
			"bufferView":24,
			"componentType":5123,
			"count":618,
			"type":"SCALAR"
		},
		{
			"bufferView":25,
			"componentType":5126,
			"count":120,
			"max":[
				0,
				0,
				0
			],
			"min":[
				0,
				0,
				0
			],
			"type":"VEC3"
		},
		{
			"bufferView":26,
			"componentType":5126,
			"count":120,
			"type":"VEC3"
		},
		{
			"bufferView":27,
			"componentType":5126,
			"count":120,
			"max":[
				0,
				0,
				0
			],
			"min":[
				0,
				0,
				0
			],
			"type":"VEC3"
		},
		{
			"bufferView":28,
			"componentType":5126,
			"count":120,
			"type":"VEC3"
		},
		{
			"bufferView":29,
			"componentType":5126,
			"count":370,
			"max":[
				0.08191689848899841,
				1.7344233989715576,
				0.14036351442337036
			],
			"min":[
				-0.08148017525672913,
				1.558921217918396,
				0.027181603014469147
			],
			"type":"VEC3"
		},
		{
			"bufferView":30,
			"componentType":5126,
			"count":370,
			"type":"VEC3"
		},
		{
			"bufferView":31,
			"componentType":5126,
			"count":370,
			"type":"VEC2"
		},
		{
			"bufferView":32,
			"componentType":5121,
			"count":370,
			"type":"VEC4"
		},
		{
			"bufferView":33,
			"componentType":5126,
			"count":370,
			"type":"VEC4"
		},
		{
			"bufferView":34,
			"componentType":5123,
			"count":1614,
			"type":"SCALAR"
		},
		{
			"bufferView":35,
			"componentType":5126,
			"count":370,
			"max":[
				0.0013654306530952454,
				0.00043702125549316406,
				0.002546735107898712
			],
			"min":[
				-0.0019256845116615295,
				-0.005339980125427246,
				-0.002846062183380127
			],
			"type":"VEC3"
		},
		{
			"bufferView":36,
			"componentType":5126,
			"count":370,
			"type":"VEC3"
		},
		{
			"bufferView":37,
			"componentType":5126,
			"count":370,
			"max":[
				0.005698449909687042,
				0.008722305297851562,
				0.0014901012182235718
			],
			"min":[
				-0.005764070898294449,
				-0.0002281665802001953,
				-0.008088909089565277
			],
			"type":"VEC3"
		},
		{
			"bufferView":38,
			"componentType":5126,
			"count":370,
			"type":"VEC3"
		},
		{
			"bufferView":39,
			"componentType":5126,
			"count":550,
			"max":[
				0.08159717917442322,
				1.8499572277069092,
				0.12251194566488266
			],
			"min":[
				-0.08278718590736389,
				1.6733494997024536,
				-0.08284782618284225
			],
			"type":"VEC3"
		},
		{
			"bufferView":40,
			"componentType":5126,
			"count":550,
			"type":"VEC3"
		},
		{
			"bufferView":41,
			"componentType":5126,
			"count":550,
			"type":"VEC2"
		},
		{
			"bufferView":42,
			"componentType":5121,
			"count":550,
			"type":"VEC4"
		},
		{
			"bufferView":43,
			"componentType":5126,
			"count":550,
			"type":"VEC4"
		},
		{
			"bufferView":44,
			"componentType":5123,
			"count":3000,
			"type":"SCALAR"
		},
		{
			"bufferView":45,
			"componentType":5126,
			"count":2098,
			"max":[
				0.09579432010650635,
				1.8330845832824707,
				0.1454671174287796
			],
			"min":[
				-0.09610731899738312,
				1.520606279373169,
				-0.08657767623662949
			],
			"type":"VEC3"
		},
		{
			"bufferView":46,
			"componentType":5126,
			"count":2098,
			"type":"VEC3"
		},
		{
			"bufferView":47,
			"componentType":5126,
			"count":2098,
			"type":"VEC2"
		},
		{
			"bufferView":48,
			"componentType":5121,
			"count":2098,
			"type":"VEC4"
		},
		{
			"bufferView":49,
			"componentType":5126,
			"count":2098,
			"type":"VEC4"
		},
		{
			"bufferView":50,
			"componentType":5123,
			"count":12048,
			"type":"SCALAR"
		},
		{
			"bufferView":51,
			"componentType":5126,
			"count":2098,
			"max":[
				0.001987982541322708,
				0.0015352964401245117,
				0.0004704296588897705
			],
			"min":[
				-0.0019824951887130737,
				-0.010959148406982422,
				-0.004898205399513245
			],
			"type":"VEC3"
		},
		{
			"bufferView":52,
			"componentType":5126,
			"count":2098,
			"type":"VEC3"
		},
		{
			"bufferView":53,
			"componentType":5126,
			"count":2098,
			"max":[
				0.007394928485155106,
				0.012847304344177246,
				0.0024813637137413025
			],
			"min":[
				-0.007395002990961075,
				-0.0010061264038085938,
				-0.0068261027336120605
			],
			"type":"VEC3"
		},
		{
			"bufferView":54,
			"componentType":5126,
			"count":2098,
			"type":"VEC3"
		},
		{
			"bufferView":55,
			"componentType":5126,
			"count":217,
			"max":[
				0.24073733389377594,
				1.0893975496292114,
				0.12699559330940247
			],
			"min":[
				-0.2260819971561432,
				0.07480263710021973,
				-0.1377152055501938
			],
			"type":"VEC3"
		},
		{
			"bufferView":56,
			"componentType":5126,
			"count":217,
			"type":"VEC3"
		},
		{
			"bufferView":57,
			"componentType":5126,
			"count":217,
			"type":"VEC2"
		},
		{
			"bufferView":58,
			"componentType":5121,
			"count":217,
			"type":"VEC4"
		},
		{
			"bufferView":59,
			"componentType":5126,
			"count":217,
			"type":"VEC4"
		},
		{
			"bufferView":60,
			"componentType":5123,
			"count":936,
			"type":"SCALAR"
		},
		{
			"bufferView":61,
			"componentType":5126,
			"count":208,
			"max":[
				0.19104473292827606,
				1.1217353343963623,
				0.1593426913022995
			],
			"min":[
				-0.19157448410987854,
				1.0352073907852173,
				-0.12761583924293518
			],
			"type":"VEC3"
		},
		{
			"bufferView":62,
			"componentType":5126,
			"count":208,
			"type":"VEC3"
		},
		{
			"bufferView":63,
			"componentType":5126,
			"count":208,
			"type":"VEC2"
		},
		{
			"bufferView":64,
			"componentType":5121,
			"count":208,
			"type":"VEC4"
		},
		{
			"bufferView":65,
			"componentType":5126,
			"count":208,
			"type":"VEC4"
		},
		{
			"bufferView":66,
			"componentType":5123,
			"count":987,
			"type":"SCALAR"
		},
		{
			"bufferView":67,
			"componentType":5126,
			"count":34,
			"max":[
				0.05789465084671974,
				1.102142333984375,
				0.1730809062719345
			],
			"min":[
				-0.05516265705227852,
				1.0383087396621704,
				0.1713036596775055
			],
			"type":"VEC3"
		},
		{
			"bufferView":68,
			"componentType":5126,
			"count":34,
			"type":"VEC3"
		},
		{
			"bufferView":69,
			"componentType":5126,
			"count":34,
			"type":"VEC2"
		},
		{
			"bufferView":70,
			"componentType":5121,
			"count":34,
			"type":"VEC4"
		},
		{
			"bufferView":71,
			"componentType":5126,
			"count":34,
			"type":"VEC4"
		},
		{
			"bufferView":72,
			"componentType":5123,
			"count":96,
			"type":"SCALAR"
		},
		{
			"bufferView":73,
			"componentType":5126,
			"count":190,
			"max":[
				0.0953235775232315,
				1.1113426685333252,
				0.1730809062719345
			],
			"min":[
				-0.09399660676717758,
				1.028589129447937,
				0.13937944173812866
			],
			"type":"VEC3"
		},
		{
			"bufferView":74,
			"componentType":5126,
			"count":190,
			"type":"VEC3"
		},
		{
			"bufferView":75,
			"componentType":5126,
			"count":190,
			"type":"VEC2"
		},
		{
			"bufferView":76,
			"componentType":5121,
			"count":190,
			"type":"VEC4"
		},
		{
			"bufferView":77,
			"componentType":5126,
			"count":190,
			"type":"VEC4"
		},
		{
			"bufferView":78,
			"componentType":5123,
			"count":660,
			"type":"SCALAR"
		},
		{
			"bufferView":79,
			"componentType":5126,
			"count":704,
			"max":[
				0.22698469460010529,
				0.1331174373626709,
				0.22643855214118958
			],
			"min":[
				-0.22698472440242767,
				-0.0008290931582450867,
				-0.11737982928752899
			],
			"type":"VEC3"
		},
		{
			"bufferView":80,
			"componentType":5126,
			"count":704,
			"type":"VEC3"
		},
		{
			"bufferView":81,
			"componentType":5126,
			"count":704,
			"type":"VEC2"
		},
		{
			"bufferView":82,
			"componentType":5121,
			"count":704,
			"type":"VEC4"
		},
		{
			"bufferView":83,
			"componentType":5126,
			"count":704,
			"type":"VEC4"
		},
		{
			"bufferView":84,
			"componentType":5123,
			"count":3444,
			"type":"SCALAR"
		},
		{
			"bufferView":85,
			"componentType":5126,
			"count":66,
			"max":[
				0.5090975165367126,
				1.0959259271621704,
				0.09302154928445816
			],
			"min":[
				-0.5090965628623962,
				0.9706366062164307,
				-0.00907447561621666
			],
			"type":"VEC3"
		},
		{
			"bufferView":86,
			"componentType":5126,
			"count":66,
			"type":"VEC3"
		},
		{
			"bufferView":87,
			"componentType":5126,
			"count":66,
			"type":"VEC2"
		},
		{
			"bufferView":88,
			"componentType":5121,
			"count":66,
			"type":"VEC4"
		},
		{
			"bufferView":89,
			"componentType":5126,
			"count":66,
			"type":"VEC4"
		},
		{
			"bufferView":90,
			"componentType":5123,
			"count":240,
			"type":"SCALAR"
		},
		{
			"bufferView":91,
			"componentType":5126,
			"count":910,
			"max":[
				0.5319471955299377,
				1.0996310710906982,
				0.14785289764404297
			],
			"min":[
				-0.53194659948349,
				0.882853090763092,
				-0.016154974699020386
			],
			"type":"VEC3"
		},
		{
			"bufferView":92,
			"componentType":5126,
			"count":910,
			"type":"VEC3"
		},
		{
			"bufferView":93,
			"componentType":5126,
			"count":910,
			"type":"VEC2"
		},
		{
			"bufferView":94,
			"componentType":5121,
			"count":910,
			"type":"VEC4"
		},
		{
			"bufferView":95,
			"componentType":5126,
			"count":910,
			"type":"VEC4"
		},
		{
			"bufferView":96,
			"componentType":5123,
			"count":5328,
			"type":"SCALAR"
		},
		{
			"bufferView":97,
			"componentType":5126,
			"count":280,
			"max":[
				0.16843686997890472,
				1.6046091318130493,
				0.17001885175704956
			],
			"min":[
				-0.16843684017658234,
				1.0568410158157349,
				-0.13295739889144897
			],
			"type":"VEC3"
		},
		{
			"bufferView":98,
			"componentType":5126,
			"count":280,
			"type":"VEC3"
		},
		{
			"bufferView":99,
			"componentType":5126,
			"count":280,
			"type":"VEC2"
		},
		{
			"bufferView":100,
			"componentType":5121,
			"count":280,
			"type":"VEC4"
		},
		{
			"bufferView":101,
			"componentType":5126,
			"count":280,
			"type":"VEC4"
		},
		{
			"bufferView":102,
			"componentType":5123,
			"count":1320,
			"type":"SCALAR"
		},
		{
			"bufferView":103,
			"componentType":5126,
			"count":172,
			"max":[
				0.2842394709587097,
				1.1651042699813843,
				0.1986701488494873
			],
			"min":[
				-0.2528543174266815,
				0.19056355953216553,
				-0.1806076467037201
			],
			"type":"VEC3"
		},
		{
			"bufferView":104,
			"componentType":5126,
			"count":172,
			"type":"VEC3"
		},
		{
			"bufferView":105,
			"componentType":5126,
			"count":172,
			"type":"VEC2"
		},
		{
			"bufferView":106,
			"componentType":5121,
			"count":172,
			"type":"VEC4"
		},
		{
			"bufferView":107,
			"componentType":5126,
			"count":172,
			"type":"VEC4"
		},
		{
			"bufferView":108,
			"componentType":5123,
			"count":870,
			"type":"SCALAR"
		},
		{
			"bufferView":109,
			"componentType":5126,
			"count":649,
			"max":[
				0.4825277328491211,
				1.4141180515289307,
				0.26856034994125366
			],
			"min":[
				-0.48252683877944946,
				0.1647336483001709,
				-0.2133704423904419
			],
			"type":"VEC3"
		},
		{
			"bufferView":110,
			"componentType":5126,
			"count":649,
			"type":"VEC3"
		},
		{
			"bufferView":111,
			"componentType":5126,
			"count":649,
			"type":"VEC2"
		},
		{
			"bufferView":112,
			"componentType":5121,
			"count":649,
			"type":"VEC4"
		},
		{
			"bufferView":113,
			"componentType":5126,
			"count":649,
			"type":"VEC4"
		},
		{
			"bufferView":114,
			"componentType":5123,
			"count":1770,
			"type":"SCALAR"
		},
		{
			"bufferView":115,
			"componentType":5126,
			"count":96,
			"max":[
				0.49208909273147583,
				1.415625810623169,
				0.1302051991224289
			],
			"min":[
				-0.49209630489349365,
				1.0072108507156372,
				-0.0034202151000499725
			],
			"type":"VEC3"
		},
		{
			"bufferView":116,
			"componentType":5126,
			"count":96,
			"type":"VEC3"
		},
		{
			"bufferView":117,
			"componentType":5126,
			"count":96,
			"type":"VEC2"
		},
		{
			"bufferView":118,
			"componentType":5121,
			"count":96,
			"type":"VEC4"
		},
		{
			"bufferView":119,
			"componentType":5126,
			"count":96,
			"type":"VEC4"
		},
		{
			"bufferView":120,
			"componentType":5123,
			"count":456,
			"type":"SCALAR"
		},
		{
			"bufferView":121,
			"componentType":5126,
			"count":91,
			"max":[
				0.08353600651025772,
				1.5615731477737427,
				0.13793551921844482
			],
			"min":[
				-0.06973847001791,
				1.1457568407058716,
				0.015606053173542023
			],
			"type":"VEC3"
		},
		{
			"bufferView":122,
			"componentType":5126,
			"count":91,
			"type":"VEC3"
		},
		{
			"bufferView":123,
			"componentType":5126,
			"count":91,
			"type":"VEC2"
		},
		{
			"bufferView":124,
			"componentType":5121,
			"count":91,
			"type":"VEC4"
		},
		{
			"bufferView":125,
			"componentType":5126,
			"count":91,
			"type":"VEC4"
		},
		{
			"bufferView":126,
			"componentType":5123,
			"count":318,
			"type":"SCALAR"
		},
		{
			"bufferView":127,
			"componentType":5126,
			"count":1967,
			"max":[
				0.49208909273147583,
				1.602283239364624,
				0.24523648619651794
			],
			"min":[
				-0.49209630489349365,
				0.1647336483001709,
				-0.2133704423904419
			],
			"type":"VEC3"
		},
		{
			"bufferView":128,
			"componentType":5126,
			"count":1967,
			"type":"VEC3"
		},
		{
			"bufferView":129,
			"componentType":5126,
			"count":1967,
			"type":"VEC2"
		},
		{
			"bufferView":130,
			"componentType":5121,
			"count":1967,
			"type":"VEC4"
		},
		{
			"bufferView":131,
			"componentType":5126,
			"count":1967,
			"type":"VEC4"
		},
		{
			"bufferView":132,
			"componentType":5123,
			"count":9354,
			"type":"SCALAR"
		},
		{
			"bufferView":133,
			"componentType":5126,
			"count":400,
			"max":[
				0.21286344528198242,
				1.6152809858322144,
				0.1594460904598236
			],
			"min":[
				-0.21286384761333466,
				1.3178857564926147,
				-0.16393359005451202
			],
			"type":"VEC3"
		},
		{
			"bufferView":134,
			"componentType":5126,
			"count":400,
			"type":"VEC3"
		},
		{
			"bufferView":135,
			"componentType":5126,
			"count":400,
			"type":"VEC2"
		},
		{
			"bufferView":136,
			"componentType":5121,
			"count":400,
			"type":"VEC4"
		},
		{
			"bufferView":137,
			"componentType":5126,
			"count":400,
			"type":"VEC4"
		},
		{
			"bufferView":138,
			"componentType":5123,
			"count":2376,
			"type":"SCALAR"
		},
		{
			"bufferView":139,
			"componentType":5126,
			"count":24,
			"max":[
				0.020458748564124107,
				1.6639329195022583,
				0.10124035179615021
			],
			"min":[
				-0.020458748564124107,
				1.6511470079421997,
				0.05008276179432869
			],
			"type":"VEC3"
		},
		{
			"bufferView":140,
			"componentType":5126,
			"count":24,
			"type":"VEC3"
		},
		{
			"bufferView":141,
			"componentType":5126,
			"count":24,
			"type":"VEC2"
		},
		{
			"bufferView":142,
			"componentType":5121,
			"count":24,
			"type":"VEC4"
		},
		{
			"bufferView":143,
			"componentType":5126,
			"count":24,
			"type":"VEC4"
		},
		{
			"bufferView":144,
			"componentType":5123,
			"count":84,
			"type":"SCALAR"
		},
		{
			"bufferView":145,
			"componentType":5126,
			"count":24,
			"max":[
				0,
				-0.005228281021118164,
				0.0056565552949905396
			],
			"min":[
				-3.419486915845482e-14,
				-0.010675668716430664,
				0.00422050803899765
			],
			"type":"VEC3"
		},
		{
			"bufferView":146,
			"componentType":5126,
			"count":24,
			"type":"VEC3"
		},
		{
			"bufferView":147,
			"componentType":5126,
			"count":24,
			"max":[
				0,
				0,
				0
			],
			"min":[
				0,
				0,
				0
			],
			"type":"VEC3"
		},
		{
			"bufferView":148,
			"componentType":5126,
			"count":24,
			"type":"VEC3"
		},
		{
			"bufferView":149,
			"componentType":5126,
			"count":29,
			"max":[
				0.025616470724344254,
				1.6519296169281006,
				0.11313195526599884
			],
			"min":[
				-0.026279117912054062,
				1.6388493776321411,
				0.07561030983924866
			],
			"type":"VEC3"
		},
		{
			"bufferView":150,
			"componentType":5126,
			"count":29,
			"type":"VEC3"
		},
		{
			"bufferView":151,
			"componentType":5126,
			"count":29,
			"type":"VEC2"
		},
		{
			"bufferView":152,
			"componentType":5121,
			"count":29,
			"type":"VEC4"
		},
		{
			"bufferView":153,
			"componentType":5126,
			"count":29,
			"type":"VEC4"
		},
		{
			"bufferView":154,
			"componentType":5123,
			"count":102,
			"type":"SCALAR"
		},
		{
			"bufferView":155,
			"componentType":5126,
			"count":29,
			"max":[
				-7.091090083122253e-05,
				-0.0022841691970825195,
				0.0032060742378234863
			],
			"min":[
				-0.00027038215193897486,
				-0.007029891014099121,
				-0.0013060420751571655
			],
			"type":"VEC3"
		},
		{
			"bufferView":156,
			"componentType":5126,
			"count":29,
			"type":"VEC3"
		},
		{
			"bufferView":157,
			"componentType":5126,
			"count":29,
			"max":[
				0,
				0,
				0
			],
			"min":[
				0,
				0,
				0
			],
			"type":"VEC3"
		},
		{
			"bufferView":158,
			"componentType":5126,
			"count":29,
			"type":"VEC3"
		},
		{
			"bufferView":159,
			"componentType":5126,
			"count":31,
			"max":[
				0.022590629756450653,
				1.670727252960205,
				0.11532868444919586
			],
			"min":[
				-0.02639949694275856,
				1.6569637060165405,
				0.07814944535493851
			],
			"type":"VEC3"
		},
		{
			"bufferView":160,
			"componentType":5126,
			"count":31,
			"type":"VEC3"
		},
		{
			"bufferView":161,
			"componentType":5126,
			"count":31,
			"type":"VEC2"
		},
		{
			"bufferView":162,
			"componentType":5121,
			"count":31,
			"type":"VEC4"
		},
		{
			"bufferView":163,
			"componentType":5126,
			"count":31,
			"type":"VEC4"
		},
		{
			"bufferView":164,
			"componentType":5123,
			"count":114,
			"type":"SCALAR"
		},
		{
			"bufferView":165,
			"componentType":5126,
			"count":31,
			"max":[
				3.2860785722732544e-05,
				0.0005059242248535156,
				-0.00058022141456604
			],
			"min":[
				3.285333514213562e-05,
				0.0005056858062744141,
				-0.0005802586674690247
			],
			"type":"VEC3"
		},
		{
			"bufferView":166,
			"componentType":5126,
			"count":31,
			"type":"VEC3"
		},
		{
			"bufferView":167,
			"componentType":5126,
			"count":31,
			"max":[
				0,
				0,
				0
			],
			"min":[
				0,
				0,
				0
			],
			"type":"VEC3"
		},
		{
			"bufferView":168,
			"componentType":5126,
			"count":31,
			"type":"VEC3"
		},
		{
			"bufferView":169,
			"componentType":5126,
			"count":31,
			"max":[
				-0.0035772332921624184,
				0.09235525131225586,
				-0.0006615668535232544
			],
			"min":[
				-0.0653846338391304,
				0.015707731246948242,
				-0.011206939816474915
			],
			"type":"VEC3"
		},
		{
			"bufferView":170,
			"componentType":5126,
			"count":31,
			"type":"VEC3"
		},
		{
			"bufferView":171,
			"componentType":5126,
			"count":31,
			"type":"VEC2"
		},
		{
			"bufferView":172,
			"componentType":5123,
			"count":57,
			"type":"SCALAR"
		},
		{
			"bufferView":173,
			"componentType":5126,
			"count":260,
			"max":[
				0.14181067049503326,
				0.022152304649353027,
				0.01414477825164795
			],
			"min":[
				-0.032516710460186005,
				-0.13899445533752441,
				-0.01437579095363617
			],
			"type":"VEC3"
		},
		{
			"bufferView":174,
			"componentType":5126,
			"count":260,
			"type":"VEC3"
		},
		{
			"bufferView":175,
			"componentType":5126,
			"count":260,
			"type":"VEC2"
		},
		{
			"bufferView":176,
			"componentType":5123,
			"count":645,
			"type":"SCALAR"
		},
		{
			"bufferView":177,
			"componentType":5126,
			"count":120,
			"max":[
				-0.0036270776763558388,
				0.0901188850402832,
				0.013088420033454895
			],
			"min":[
				-0.06264255195856094,
				0.017638802528381348,
				-0.011206939816474915
			],
			"type":"VEC3"
		},
		{
			"bufferView":178,
			"componentType":5126,
			"count":120,
			"type":"VEC3"
		},
		{
			"bufferView":179,
			"componentType":5126,
			"count":120,
			"type":"VEC2"
		},
		{
			"bufferView":180,
			"componentType":5123,
			"count":447,
			"type":"SCALAR"
		},
		{
			"bufferView":181,
			"componentType":5126,
			"count":806,
			"max":[
				0.15793009102344513,
				0.10787689685821533,
				0.01825299859046936
			],
			"min":[
				-0.1092415601015091,
				-0.14385277032852173,
				-0.01573498547077179
			],
			"type":"VEC3"
		},
		{
			"bufferView":182,
			"componentType":5126,
			"count":806,
			"type":"VEC3"
		},
		{
			"bufferView":183,
			"componentType":5126,
			"count":806,
			"type":"VEC2"
		},
		{
			"bufferView":184,
			"componentType":5123,
			"count":2541,
			"type":"SCALAR"
		}
	],
	"bufferViews":[
		{
			"buffer":0,
			"byteLength":1440,
			"byteOffset":0,
			"target":34962
		},
		{
			"buffer":0,
			"byteLength":1440,
			"byteOffset":1440,
			"target":34962
		},
		{
			"buffer":0,
			"byteLength":960,
			"byteOffset":2880,
			"target":34962
		},
		{
			"buffer":0,
			"byteLength":480,
			"byteOffset":3840,
			"target":34962
		},
		{
			"buffer":0,
			"byteLength":1920,
			"byteOffset":4320,
			"target":34962
		},
		{
			"buffer":0,
			"byteLength":1236,
			"byteOffset":6240,
			"target":34963
		},
		{
			"buffer":0,
			"byteLength":1440,
			"byteOffset":7476,
			"target":34962
		},
		{
			"buffer":0,
			"byteLength":1440,
			"byteOffset":8916,
			"target":34962
		},
		{
			"buffer":0,
			"byteLength":1440,
			"byteOffset":10356,
			"target":34962
		},
		{
			"buffer":0,
			"byteLength":1440,
			"byteOffset":11796,
			"target":34962
		},
		{
			"buffer":0,
			"byteLength":5824,
			"byteOffset":13236
		},
		{
			"buffer":0,
			"byteLength":1440,
			"byteOffset":19060,
			"target":34962
		},
		{
			"buffer":0,
			"byteLength":1440,
			"byteOffset":20500,
			"target":34962
		},
		{
			"buffer":0,
			"byteLength":960,
			"byteOffset":21940,
			"target":34962
		},
		{
			"buffer":0,
			"byteLength":720,
			"byteOffset":22900,
			"target":34963
		},
		{
			"buffer":0,
			"byteLength":40212,
			"byteOffset":23620,
			"target":34962
		},
		{
			"buffer":0,
			"byteLength":40212,
			"byteOffset":63832,
			"target":34962
		},
		{
			"buffer":0,
			"byteLength":26808,
			"byteOffset":104044,
			"target":34962
		},
		{
			"buffer":0,
			"byteLength":8850,
			"byteOffset":130852,
			"target":34963
		},
		{
			"buffer":0,
			"byteLength":1440,
			"byteOffset":139704,
			"target":34962
		},
		{
			"buffer":0,
			"byteLength":1440,
			"byteOffset":141144,
			"target":34962
		},
		{
			"buffer":0,
			"byteLength":960,
			"byteOffset":142584,
			"target":34962
		},
		{
			"buffer":0,
			"byteLength":480,
			"byteOffset":143544,
			"target":34962
		},
		{
			"buffer":0,
			"byteLength":1920,
			"byteOffset":144024,
			"target":34962
		},
		{
			"buffer":0,
			"byteLength":1236,
			"byteOffset":145944,
			"target":34963
		},
		{
			"buffer":0,
			"byteLength":1440,
			"byteOffset":147180,
			"target":34962
		},
		{
			"buffer":0,
			"byteLength":1440,
			"byteOffset":148620,
			"target":34962
		},
		{
			"buffer":0,
			"byteLength":1440,
			"byteOffset":150060,
			"target":34962
		},
		{
			"buffer":0,
			"byteLength":1440,
			"byteOffset":151500,
			"target":34962
		},
		{
			"buffer":0,
			"byteLength":4440,
			"byteOffset":152940,
			"target":34962
		},
		{
			"buffer":0,
			"byteLength":4440,
			"byteOffset":157380,
			"target":34962
		},
		{
			"buffer":0,
			"byteLength":2960,
			"byteOffset":161820,
			"target":34962
		},
		{
			"buffer":0,
			"byteLength":1480,
			"byteOffset":164780,
			"target":34962
		},
		{
			"buffer":0,
			"byteLength":5920,
			"byteOffset":166260,
			"target":34962
		},
		{
			"buffer":0,
			"byteLength":3228,
			"byteOffset":172180,
			"target":34963
		},
		{
			"buffer":0,
			"byteLength":4440,
			"byteOffset":175408,
			"target":34962
		},
		{
			"buffer":0,
			"byteLength":4440,
			"byteOffset":179848,
			"target":34962
		},
		{
			"buffer":0,
			"byteLength":4440,
			"byteOffset":184288,
			"target":34962
		},
		{
			"buffer":0,
			"byteLength":4440,
			"byteOffset":188728,
			"target":34962
		},
		{
			"buffer":0,
			"byteLength":6600,
			"byteOffset":193168,
			"target":34962
		},
		{
			"buffer":0,
			"byteLength":6600,
			"byteOffset":199768,
			"target":34962
		},
		{
			"buffer":0,
			"byteLength":4400,
			"byteOffset":206368,
			"target":34962
		},
		{
			"buffer":0,
			"byteLength":2200,
			"byteOffset":210768,
			"target":34962
		},
		{
			"buffer":0,
			"byteLength":8800,
			"byteOffset":212968,
			"target":34962
		},
		{
			"buffer":0,
			"byteLength":6000,
			"byteOffset":221768,
			"target":34963
		},
		{
			"buffer":0,
			"byteLength":25176,
			"byteOffset":227768,
			"target":34962
		},
		{
			"buffer":0,
			"byteLength":25176,
			"byteOffset":252944,
			"target":34962
		},
		{
			"buffer":0,
			"byteLength":16784,
			"byteOffset":278120,
			"target":34962
		},
		{
			"buffer":0,
			"byteLength":8392,
			"byteOffset":294904,
			"target":34962
		},
		{
			"buffer":0,
			"byteLength":33568,
			"byteOffset":303296,
			"target":34962
		},
		{
			"buffer":0,
			"byteLength":24096,
			"byteOffset":336864,
			"target":34963
		},
		{
			"buffer":0,
			"byteLength":25176,
			"byteOffset":360960,
			"target":34962
		},
		{
			"buffer":0,
			"byteLength":25176,
			"byteOffset":386136,
			"target":34962
		},
		{
			"buffer":0,
			"byteLength":25176,
			"byteOffset":411312,
			"target":34962
		},
		{
			"buffer":0,
			"byteLength":25176,
			"byteOffset":436488,
			"target":34962
		},
		{
			"buffer":0,
			"byteLength":2604,
			"byteOffset":461664,
			"target":34962
		},
		{
			"buffer":0,
			"byteLength":2604,
			"byteOffset":464268,
			"target":34962
		},
		{
			"buffer":0,
			"byteLength":1736,
			"byteOffset":466872,
			"target":34962
		},
		{
			"buffer":0,
			"byteLength":868,
			"byteOffset":468608,
			"target":34962
		},
		{
			"buffer":0,
			"byteLength":3472,
			"byteOffset":469476,
			"target":34962
		},
		{
			"buffer":0,
			"byteLength":1872,
			"byteOffset":472948,
			"target":34963
		},
		{
			"buffer":0,
			"byteLength":2496,
			"byteOffset":474820,
			"target":34962
		},
		{
			"buffer":0,
			"byteLength":2496,
			"byteOffset":477316,
			"target":34962
		},
		{
			"buffer":0,
			"byteLength":1664,
			"byteOffset":479812,
			"target":34962
		},
		{
			"buffer":0,
			"byteLength":832,
			"byteOffset":481476,
			"target":34962
		},
		{
			"buffer":0,
			"byteLength":3328,
			"byteOffset":482308,
			"target":34962
		},
		{
			"buffer":0,
			"byteLength":1974,
			"byteOffset":485636,
			"target":34963
		},
		{
			"buffer":0,
			"byteLength":408,
			"byteOffset":487612,
			"target":34962
		},
		{
			"buffer":0,
			"byteLength":408,
			"byteOffset":488020,
			"target":34962
		},
		{
			"buffer":0,
			"byteLength":272,
			"byteOffset":488428,
			"target":34962
		},
		{
			"buffer":0,
			"byteLength":136,
			"byteOffset":488700,
			"target":34962
		},
		{
			"buffer":0,
			"byteLength":544,
			"byteOffset":488836,
			"target":34962
		},
		{
			"buffer":0,
			"byteLength":192,
			"byteOffset":489380,
			"target":34963
		},
		{
			"buffer":0,
			"byteLength":2280,
			"byteOffset":489572,
			"target":34962
		},
		{
			"buffer":0,
			"byteLength":2280,
			"byteOffset":491852,
			"target":34962
		},
		{
			"buffer":0,
			"byteLength":1520,
			"byteOffset":494132,
			"target":34962
		},
		{
			"buffer":0,
			"byteLength":760,
			"byteOffset":495652,
			"target":34962
		},
		{
			"buffer":0,
			"byteLength":3040,
			"byteOffset":496412,
			"target":34962
		},
		{
			"buffer":0,
			"byteLength":1320,
			"byteOffset":499452,
			"target":34963
		},
		{
			"buffer":0,
			"byteLength":8448,
			"byteOffset":500772,
			"target":34962
		},
		{
			"buffer":0,
			"byteLength":8448,
			"byteOffset":509220,
			"target":34962
		},
		{
			"buffer":0,
			"byteLength":5632,
			"byteOffset":517668,
			"target":34962
		},
		{
			"buffer":0,
			"byteLength":2816,
			"byteOffset":523300,
			"target":34962
		},
		{
			"buffer":0,
			"byteLength":11264,
			"byteOffset":526116,
			"target":34962
		},
		{
			"buffer":0,
			"byteLength":6888,
			"byteOffset":537380,
			"target":34963
		},
		{
			"buffer":0,
			"byteLength":792,
			"byteOffset":544268,
			"target":34962
		},
		{
			"buffer":0,
			"byteLength":792,
			"byteOffset":545060,
			"target":34962
		},
		{
			"buffer":0,
			"byteLength":528,
			"byteOffset":545852,
			"target":34962
		},
		{
			"buffer":0,
			"byteLength":264,
			"byteOffset":546380,
			"target":34962
		},
		{
			"buffer":0,
			"byteLength":1056,
			"byteOffset":546644,
			"target":34962
		},
		{
			"buffer":0,
			"byteLength":480,
			"byteOffset":547700,
			"target":34963
		},
		{
			"buffer":0,
			"byteLength":10920,
			"byteOffset":548180,
			"target":34962
		},
		{
			"buffer":0,
			"byteLength":10920,
			"byteOffset":559100,
			"target":34962
		},
		{
			"buffer":0,
			"byteLength":7280,
			"byteOffset":570020,
			"target":34962
		},
		{
			"buffer":0,
			"byteLength":3640,
			"byteOffset":577300,
			"target":34962
		},
		{
			"buffer":0,
			"byteLength":14560,
			"byteOffset":580940,
			"target":34962
		},
		{
			"buffer":0,
			"byteLength":10656,
			"byteOffset":595500,
			"target":34963
		},
		{
			"buffer":0,
			"byteLength":3360,
			"byteOffset":606156,
			"target":34962
		},
		{
			"buffer":0,
			"byteLength":3360,
			"byteOffset":609516,
			"target":34962
		},
		{
			"buffer":0,
			"byteLength":2240,
			"byteOffset":612876,
			"target":34962
		},
		{
			"buffer":0,
			"byteLength":1120,
			"byteOffset":615116,
			"target":34962
		},
		{
			"buffer":0,
			"byteLength":4480,
			"byteOffset":616236,
			"target":34962
		},
		{
			"buffer":0,
			"byteLength":2640,
			"byteOffset":620716,
			"target":34963
		},
		{
			"buffer":0,
			"byteLength":2064,
			"byteOffset":623356,
			"target":34962
		},
		{
			"buffer":0,
			"byteLength":2064,
			"byteOffset":625420,
			"target":34962
		},
		{
			"buffer":0,
			"byteLength":1376,
			"byteOffset":627484,
			"target":34962
		},
		{
			"buffer":0,
			"byteLength":688,
			"byteOffset":628860,
			"target":34962
		},
		{
			"buffer":0,
			"byteLength":2752,
			"byteOffset":629548,
			"target":34962
		},
		{
			"buffer":0,
			"byteLength":1740,
			"byteOffset":632300,
			"target":34963
		},
		{
			"buffer":0,
			"byteLength":7788,
			"byteOffset":634040,
			"target":34962
		},
		{
			"buffer":0,
			"byteLength":7788,
			"byteOffset":641828,
			"target":34962
		},
		{
			"buffer":0,
			"byteLength":5192,
			"byteOffset":649616,
			"target":34962
		},
		{
			"buffer":0,
			"byteLength":2596,
			"byteOffset":654808,
			"target":34962
		},
		{
			"buffer":0,
			"byteLength":10384,
			"byteOffset":657404,
			"target":34962
		},
		{
			"buffer":0,
			"byteLength":3540,
			"byteOffset":667788,
			"target":34963
		},
		{
			"buffer":0,
			"byteLength":1152,
			"byteOffset":671328,
			"target":34962
		},
		{
			"buffer":0,
			"byteLength":1152,
			"byteOffset":672480,
			"target":34962
		},
		{
			"buffer":0,
			"byteLength":768,
			"byteOffset":673632,
			"target":34962
		},
		{
			"buffer":0,
			"byteLength":384,
			"byteOffset":674400,
			"target":34962
		},
		{
			"buffer":0,
			"byteLength":1536,
			"byteOffset":674784,
			"target":34962
		},
		{
			"buffer":0,
			"byteLength":912,
			"byteOffset":676320,
			"target":34963
		},
		{
			"buffer":0,
			"byteLength":1092,
			"byteOffset":677232,
			"target":34962
		},
		{
			"buffer":0,
			"byteLength":1092,
			"byteOffset":678324,
			"target":34962
		},
		{
			"buffer":0,
			"byteLength":728,
			"byteOffset":679416,
			"target":34962
		},
		{
			"buffer":0,
			"byteLength":364,
			"byteOffset":680144,
			"target":34962
		},
		{
			"buffer":0,
			"byteLength":1456,
			"byteOffset":680508,
			"target":34962
		},
		{
			"buffer":0,
			"byteLength":636,
			"byteOffset":681964,
			"target":34963
		},
		{
			"buffer":0,
			"byteLength":23604,
			"byteOffset":682600,
			"target":34962
		},
		{
			"buffer":0,
			"byteLength":23604,
			"byteOffset":706204,
			"target":34962
		},
		{
			"buffer":0,
			"byteLength":15736,
			"byteOffset":729808,
			"target":34962
		},
		{
			"buffer":0,
			"byteLength":7868,
			"byteOffset":745544,
			"target":34962
		},
		{
			"buffer":0,
			"byteLength":31472,
			"byteOffset":753412,
			"target":34962
		},
		{
			"buffer":0,
			"byteLength":18708,
			"byteOffset":784884,
			"target":34963
		},
		{
			"buffer":0,
			"byteLength":4800,
			"byteOffset":803592,
			"target":34962
		},
		{
			"buffer":0,
			"byteLength":4800,
			"byteOffset":808392,
			"target":34962
		},
		{
			"buffer":0,
			"byteLength":3200,
			"byteOffset":813192,
			"target":34962
		},
		{
			"buffer":0,
			"byteLength":1600,
			"byteOffset":816392,
			"target":34962
		},
		{
			"buffer":0,
			"byteLength":6400,
			"byteOffset":817992,
			"target":34962
		},
		{
			"buffer":0,
			"byteLength":4752,
			"byteOffset":824392,
			"target":34963
		},
		{
			"buffer":0,
			"byteLength":288,
			"byteOffset":829144,
			"target":34962
		},
		{
			"buffer":0,
			"byteLength":288,
			"byteOffset":829432,
			"target":34962
		},
		{
			"buffer":0,
			"byteLength":192,
			"byteOffset":829720,
			"target":34962
		},
		{
			"buffer":0,
			"byteLength":96,
			"byteOffset":829912,
			"target":34962
		},
		{
			"buffer":0,
			"byteLength":384,
			"byteOffset":830008,
			"target":34962
		},
		{
			"buffer":0,
			"byteLength":168,
			"byteOffset":830392,
			"target":34963
		},
		{
			"buffer":0,
			"byteLength":288,
			"byteOffset":830560,
			"target":34962
		},
		{
			"buffer":0,
			"byteLength":288,
			"byteOffset":830848,
			"target":34962
		},
		{
			"buffer":0,
			"byteLength":288,
			"byteOffset":831136,
			"target":34962
		},
		{
			"buffer":0,
			"byteLength":288,
			"byteOffset":831424,
			"target":34962
		},
		{
			"buffer":0,
			"byteLength":348,
			"byteOffset":831712,
			"target":34962
		},
		{
			"buffer":0,
			"byteLength":348,
			"byteOffset":832060,
			"target":34962
		},
		{
			"buffer":0,
			"byteLength":232,
			"byteOffset":832408,
			"target":34962
		},
		{
			"buffer":0,
			"byteLength":116,
			"byteOffset":832640,
			"target":34962
		},
		{
			"buffer":0,
			"byteLength":464,
			"byteOffset":832756,
			"target":34962
		},
		{
			"buffer":0,
			"byteLength":204,
			"byteOffset":833220,
			"target":34963
		},
		{
			"buffer":0,
			"byteLength":348,
			"byteOffset":833424,
			"target":34962
		},
		{
			"buffer":0,
			"byteLength":348,
			"byteOffset":833772,
			"target":34962
		},
		{
			"buffer":0,
			"byteLength":348,
			"byteOffset":834120,
			"target":34962
		},
		{
			"buffer":0,
			"byteLength":348,
			"byteOffset":834468,
			"target":34962
		},
		{
			"buffer":0,
			"byteLength":372,
			"byteOffset":834816,
			"target":34962
		},
		{
			"buffer":0,
			"byteLength":372,
			"byteOffset":835188,
			"target":34962
		},
		{
			"buffer":0,
			"byteLength":248,
			"byteOffset":835560,
			"target":34962
		},
		{
			"buffer":0,
			"byteLength":124,
			"byteOffset":835808,
			"target":34962
		},
		{
			"buffer":0,
			"byteLength":496,
			"byteOffset":835932,
			"target":34962
		},
		{
			"buffer":0,
			"byteLength":228,
			"byteOffset":836428,
			"target":34963
		},
		{
			"buffer":0,
			"byteLength":372,
			"byteOffset":836656,
			"target":34962
		},
		{
			"buffer":0,
			"byteLength":372,
			"byteOffset":837028,
			"target":34962
		},
		{
			"buffer":0,
			"byteLength":372,
			"byteOffset":837400,
			"target":34962
		},
		{
			"buffer":0,
			"byteLength":372,
			"byteOffset":837772,
			"target":34962
		},
		{
			"buffer":0,
			"byteLength":372,
			"byteOffset":838144,
			"target":34962
		},
		{
			"buffer":0,
			"byteLength":372,
			"byteOffset":838516,
			"target":34962
		},
		{
			"buffer":0,
			"byteLength":248,
			"byteOffset":838888,
			"target":34962
		},
		{
			"buffer":0,
			"byteLength":114,
			"byteOffset":839136,
			"target":34963
		},
		{
			"buffer":0,
			"byteLength":3120,
			"byteOffset":839252,
			"target":34962
		},
		{
			"buffer":0,
			"byteLength":3120,
			"byteOffset":842372,
			"target":34962
		},
		{
			"buffer":0,
			"byteLength":2080,
			"byteOffset":845492,
			"target":34962
		},
		{
			"buffer":0,
			"byteLength":1290,
			"byteOffset":847572,
			"target":34963
		},
		{
			"buffer":0,
			"byteLength":1440,
			"byteOffset":848864,
			"target":34962
		},
		{
			"buffer":0,
			"byteLength":1440,
			"byteOffset":850304,
			"target":34962
		},
		{
			"buffer":0,
			"byteLength":960,
			"byteOffset":851744,
			"target":34962
		},
		{
			"buffer":0,
			"byteLength":894,
			"byteOffset":852704,
			"target":34963
		},
		{
			"buffer":0,
			"byteLength":9672,
			"byteOffset":853600,
			"target":34962
		},
		{
			"buffer":0,
			"byteLength":9672,
			"byteOffset":863272,
			"target":34962
		},
		{
			"buffer":0,
			"byteLength":6448,
			"byteOffset":872944,
			"target":34962
		},
		{
			"buffer":0,
			"byteLength":5082,
			"byteOffset":879392,
			"target":34963
		}
	],
	"samplers":[
		{
			"magFilter":9729,
			"minFilter":9987
		},
		{
			"magFilter":9729,
			"minFilter":9987,
			"wrapS":33071,
			"wrapT":33071
		}
	],
	"buffers":[
		{
			"byteLength":884476,
			"uri":"FSM6.bin"
		}
	]
}
