{
	"asset":{
		"generator":"Khronos glTF Blender I/O v3.6.27",
		"version":"2.0"
	},
	"scene":0,
	"scenes":[
		{
			"name":"Scene",
			"nodes":[
				0,
				1,
				2,
				3,
				4,
				5,
				6,
				7,
				8,
				9,
				10,
				11,
				12,
				13,
				14,
				15,
				16
			]
		}
	],
	"nodes":[
		{
			"mesh":0,
			"name":"Yazi1",
			"translation":[
				0.13430483639240265,
				-0.0203157439827919,
				0.0033762063831090927
			]
		},
		{
			"mesh":1,
			"name":"Yazi2",
			"translation":[
				0.008703005500137806,
				-0.6274706125259399,
				0.003377667162567377
			]
		},
		{
			"mesh":2,
			"name":"Dal",
			"translation":[
				-0.04565016180276871,
				0.1910727471113205,
				0.003453390207141638
			]
		},
		{
			"mesh":3,
			"name":"YaziR",
			"translation":[
				0.1756124645471573,
				-0.6282767653465271,
				0.0033772732131183147
			]
		},
		{
			"mesh":4,
			"name":"Cube.001",
			"translation":[
				1.286213755607605,
				0.4331710636615753,
				0.0034534407313913107
			]
		},
		{
			"mesh":5,
			"name":"Cube.003",
			"translation":[
				-1.2759395837783813,
				0.4329030215740204,
				0.003771885298192501
			]
		},
		{
			"mesh":6,
			"name":"Cube.004",
			"rotation":[
				0,
				0,
				0.002346204360947013,
				0.9999972581863403
			],
			"translation":[
				-1.9081063270568848,
				0.24666915833950043,
				0.047168005257844925
			]
		},
		{
			"mesh":7,
			"name":"Cube.005",
			"rotation":[
				0,
				0,
				0.007986394688487053,
				0.9999681115150452
			],
			"translation":[
				1.9175052642822266,
				0.24668920040130615,
				0.047305576503276825
			]
		},
		{
			"mesh":8,
			"name":"Cube.006",
			"translation":[
				2.0636820793151855,
				-0.39958831667900085,
				0.003453335026279092
			]
		},
		{
			"mesh":9,
			"name":"Cube.007",
			"rotation":[
				0,
				0,
				0.01667815074324608,
				0.999860942363739
			],
			"translation":[
				1.6671106815338135,
				0.6468569040298462,
				0.004443837329745293
			]
		},
		{
			"mesh":10,
			"name":"Cube.008",
			"translation":[
				2.115844488143921,
				0.597769021987915,
				0.003453461918979883
			]
		},
		{
			"mesh":11,
			"name":"Cube.009",
			"translation":[
				-0.9819958806037903,
				0.7703325748443604,
				0.0034534854348748922
			]
		},
		{
			"mesh":12,
			"name":"Cube.010",
			"translation":[
				-2.054199695587158,
				-0.3995748460292816,
				0.003453335026279092
			]
		},
		{
			"mesh":13,
			"name":"Cube.022",
			"translation":[
				-1.9571641683578491,
				0.7627719044685364,
				0.0034534826409071684
			]
		},
		{
			"mesh":14,
			"name":"Cube.023",
			"translation":[
				-1.6587531566619873,
				0.6490226984024048,
				0.003456813981756568
			]
		},
		{
			"mesh":15,
			"name":"Cube.024",
			"translation":[
				2.1124420166015625,
				0.1734708994626999,
				0.0034534111618995667
			]
		},
		{
			"mesh":16,
			"name":"Cube.025",
			"translation":[
				1.845145344734192,
				-0.32050821185112,
				0.0034533473663032055
			]
		}
	],
	"animations":[
		{
			"channels":[
				{
					"sampler":0,
					"target":{
						"node":6,
						"path":"translation"
					}
				},
				{
					"sampler":1,
					"target":{
						"node":6,
						"path":"rotation"
					}
				},
				{
					"sampler":2,
					"target":{
						"node":6,
						"path":"scale"
					}
				}
			],
			"name":"Cube.004Action.001",
			"samplers":[
				{
					"input":78,
					"interpolation":"STEP",
					"output":79
				},
				{
					"input":80,
					"interpolation":"LINEAR",
					"output":81
				},
				{
					"input":78,
					"interpolation":"STEP",
					"output":82
				}
			]
		},
		{
			"channels":[
				{
					"sampler":0,
					"target":{
						"node":7,
						"path":"translation"
					}
				},
				{
					"sampler":1,
					"target":{
						"node":7,
						"path":"rotation"
					}
				},
				{
					"sampler":2,
					"target":{
						"node":7,
						"path":"scale"
					}
				}
			],
			"name":"Cube.005Action.001",
			"samplers":[
				{
					"input":83,
					"interpolation":"STEP",
					"output":84
				},
				{
					"input":85,
					"interpolation":"LINEAR",
					"output":86
				},
				{
					"input":83,
					"interpolation":"STEP",
					"output":87
				}
			]
		},
		{
			"channels":[
				{
					"sampler":0,
					"target":{
						"node":9,
						"path":"translation"
					}
				},
				{
					"sampler":1,
					"target":{
						"node":9,
						"path":"rotation"
					}
				},
				{
					"sampler":2,
					"target":{
						"node":9,
						"path":"scale"
					}
				}
			],
			"name":"Cube.007Action.001",
			"samplers":[
				{
					"input":88,
					"interpolation":"STEP",
					"output":89
				},
				{
					"input":90,
					"interpolation":"LINEAR",
					"output":91
				},
				{
					"input":88,
					"interpolation":"STEP",
					"output":92
				}
			]
		}
	],
	"materials":[
		{
			"alphaMode":"BLEND",
			"doubleSided":true,
			"name":"turuncu",
			"pbrMetallicRoughness":{
				"baseColorFactor":[
					1,
					0.06759881228208542,
					0,
					0
				],
				"metallicFactor":0,
				"roughnessFactor":0.5
			}
		},
		{
			"doubleSided":true,
			"name":"yaprak",
			"pbrMetallicRoughness":{
				"baseColorTexture":{
					"index":0
				},
				"metallicFactor":0,
				"roughnessFactor":0.5
			}
		},
		{
			"doubleSided":true,
			"name":"Material",
			"pbrMetallicRoughness":{
				"baseColorFactor":[
					0.800000011920929,
					0.800000011920929,
					0.800000011920929,
					1
				],
				"metallicFactor":0,
				"roughnessFactor":0.5
			}
		},
		{
			"alphaMode":"BLEND",
			"doubleSided":true,
			"name":"turkuaz",
			"pbrMetallicRoughness":{
				"baseColorFactor":[
					0.006048521026968956,
					0.11953828483819962,
					0.35153254866600037,
					1
				],
				"metallicFactor":0,
				"roughnessFactor":0.5
			}
		},
		{
			"doubleSided":true,
			"name":"Material.002",
			"pbrMetallicRoughness":{
				"baseColorFactor":[
					0.8000000715255737,
					0.5944965481758118,
					0,
					1
				],
				"metallicFactor":0.33774834871292114,
				"roughnessFactor":0.5
			}
		}
	],
	"meshes":[
		{
			"name":"Text",
			"primitives":[
				{
					"attributes":{
						"POSITION":0,
						"NORMAL":1,
						"TEXCOORD_0":2
					},
					"indices":3,
					"material":0
				}
			]
		},
		{
			"name":"Text.001",
			"primitives":[
				{
					"attributes":{
						"POSITION":4,
						"NORMAL":5,
						"TEXCOORD_0":6
					},
					"indices":7,
					"material":0
				}
			]
		},
		{
			"name":"Cube.012",
			"primitives":[
				{
					"attributes":{
						"COLOR_0":8,
						"POSITION":9,
						"NORMAL":10,
						"TEXCOORD_0":11
					},
					"indices":12,
					"material":1
				},
				{
					"attributes":{
						"COLOR_0":13,
						"POSITION":14,
						"NORMAL":15,
						"TEXCOORD_0":16
					},
					"indices":17,
					"material":2
				}
			]
		},
		{
			"name":"Text.006",
			"primitives":[
				{
					"attributes":{
						"POSITION":18,
						"NORMAL":19,
						"TEXCOORD_0":20
					},
					"indices":21,
					"material":3
				}
			]
		},
		{
			"name":"Cube.001",
			"primitives":[
				{
					"attributes":{
						"COLOR_0":22,
						"POSITION":23,
						"NORMAL":24,
						"TEXCOORD_0":25
					},
					"indices":26,
					"material":1
				}
			]
		},
		{
			"name":"Cube.002",
			"primitives":[
				{
					"attributes":{
						"COLOR_0":27,
						"POSITION":28,
						"NORMAL":29,
						"TEXCOORD_0":30
					},
					"indices":31,
					"material":1
				}
			]
		},
		{
			"name":"Cube.003",
			"primitives":[
				{
					"attributes":{
						"COLOR_0":32,
						"POSITION":33,
						"NORMAL":34,
						"TEXCOORD_0":35
					},
					"indices":36,
					"material":4
				}
			]
		},
		{
			"name":"Cube.004",
			"primitives":[
				{
					"attributes":{
						"COLOR_0":37,
						"POSITION":38,
						"NORMAL":39,
						"TEXCOORD_0":40
					},
					"indices":41,
					"material":4
				}
			]
		},
		{
			"name":"Cube.005",
			"primitives":[
				{
					"attributes":{
						"COLOR_0":42,
						"POSITION":43,
						"NORMAL":44,
						"TEXCOORD_0":45
					},
					"indices":26,
					"material":1
				}
			]
		},
		{
			"name":"Cube.006",
			"primitives":[
				{
					"attributes":{
						"COLOR_0":46,
						"POSITION":47,
						"NORMAL":48,
						"TEXCOORD_0":49
					},
					"indices":26,
					"material":1
				}
			]
		},
		{
			"name":"Cube.007",
			"primitives":[
				{
					"attributes":{
						"COLOR_0":50,
						"POSITION":51,
						"NORMAL":52,
						"TEXCOORD_0":53
					},
					"indices":26,
					"material":1
				}
			]
		},
		{
			"name":"Cube.008",
			"primitives":[
				{
					"attributes":{
						"COLOR_0":54,
						"POSITION":55,
						"NORMAL":56,
						"TEXCOORD_0":57
					},
					"indices":31,
					"material":1
				}
			]
		},
		{
			"name":"Cube.009",
			"primitives":[
				{
					"attributes":{
						"COLOR_0":58,
						"POSITION":59,
						"NORMAL":60,
						"TEXCOORD_0":61
					},
					"indices":31,
					"material":1
				}
			]
		},
		{
			"name":"Cube.010",
			"primitives":[
				{
					"attributes":{
						"COLOR_0":62,
						"POSITION":63,
						"NORMAL":64,
						"TEXCOORD_0":65
					},
					"indices":31,
					"material":1
				}
			]
		},
		{
			"name":"Cube.011",
			"primitives":[
				{
					"attributes":{
						"COLOR_0":66,
						"POSITION":67,
						"NORMAL":68,
						"TEXCOORD_0":69
					},
					"indices":31,
					"material":1
				}
			]
		},
		{
			"name":"Cube.013",
			"primitives":[
				{
					"attributes":{
						"COLOR_0":70,
						"POSITION":71,
						"NORMAL":72,
						"TEXCOORD_0":73
					},
					"indices":26,
					"material":1
				}
			]
		},
		{
			"name":"Cube.014",
			"primitives":[
				{
					"attributes":{
						"COLOR_0":74,
						"POSITION":75,
						"NORMAL":76,
						"TEXCOORD_0":77
					},
					"indices":26,
					"material":1
				}
			]
		}
	],
	"textures":[
		{
			"sampler":0,
			"source":0
		}
	],
	"images":[
		{
			"mimeType":"image/png",
			"name":"yaprak",
			"uri":"FSMYaziTexture/yaprak.png"
		}
	],
	"accessors":[
		{
			"bufferView":0,
			"componentType":5126,
			"count":21859,
			"max":[
				1.2602578401565552,
				0.49323946237564087,
				0.011319848708808422
			],
			"min":[
				-1.525010347366333,
				-0.5525084733963013,
				-0.011317737400531769
			],
			"type":"VEC3"
		},
		{
			"bufferView":1,
			"componentType":5126,
			"count":21859,
			"type":"VEC3"
		},
		{
			"bufferView":2,
			"componentType":5126,
			"count":21859,
			"type":"VEC2"
		},
		{
			"bufferView":3,
			"componentType":5123,
			"count":61620,
			"type":"SCALAR"
		},
		{
			"bufferView":4,
			"componentType":5126,
			"count":9905,
			"max":[
				0.8793336153030396,
				0.11895924806594849,
				0.011764343827962875
			],
			"min":[
				-0.8025223016738892,
				-0.10409915447235107,
				-0.011765118688344955
			],
			"type":"VEC3"
		},
		{
			"bufferView":5,
			"componentType":5126,
			"count":9905,
			"type":"VEC3"
		},
		{
			"bufferView":6,
			"componentType":5126,
			"count":9905,
			"type":"VEC2"
		},
		{
			"bufferView":7,
			"componentType":5123,
			"count":29100,
			"type":"SCALAR"
		},
		{
			"bufferView":8,
			"componentType":5123,
			"count":1705,
			"normalized":true,
			"type":"VEC4"
		},
		{
			"bufferView":9,
			"componentType":5126,
			"count":1705,
			"max":[
				2.1605722904205322,
				0.7363857626914978,
				1.1129304766654968e-07
			],
			"min":[
				-2.1744673252105713,
				-0.6025181412696838,
				-5.51808625459671e-08
			],
			"type":"VEC3"
		},
		{
			"bufferView":10,
			"componentType":5126,
			"count":1705,
			"type":"VEC3"
		},
		{
			"bufferView":11,
			"componentType":5126,
			"count":1705,
			"type":"VEC2"
		},
		{
			"bufferView":12,
			"componentType":5123,
			"count":5049,
			"type":"SCALAR"
		},
		{
			"bufferView":13,
			"componentType":5123,
			"count":9170,
			"normalized":true,
			"type":"VEC4"
		},
		{
			"bufferView":14,
			"componentType":5126,
			"count":9170,
			"max":[
				2.2116947174072266,
				0.7175781726837158,
				0.0024329926818609238
			],
			"min":[
				-2.1108944416046143,
				-0.9634302258491516,
				-0.0024328231811523438
			],
			"type":"VEC3"
		},
		{
			"bufferView":15,
			"componentType":5126,
			"count":9170,
			"type":"VEC3"
		},
		{
			"bufferView":16,
			"componentType":5126,
			"count":9170,
			"type":"VEC2"
		},
		{
			"bufferView":17,
			"componentType":5123,
			"count":45792,
			"type":"SCALAR"
		},
		{
			"bufferView":18,
			"componentType":5126,
			"count":1324,
			"max":[
				0.09306786954402924,
				0.13358253240585327,
				0.012738486751914024
			],
			"min":[
				-0.08041850477457047,
				-0.09826987981796265,
				-0.012738710269331932
			],
			"type":"VEC3"
		},
		{
			"bufferView":19,
			"componentType":5126,
			"count":1324,
			"type":"VEC3"
		},
		{
			"bufferView":20,
			"componentType":5126,
			"count":1324,
			"type":"VEC2"
		},
		{
			"bufferView":21,
			"componentType":5123,
			"count":3912,
			"type":"SCALAR"
		},
		{
			"bufferView":22,
			"componentType":5123,
			"count":155,
			"normalized":true,
			"type":"VEC4"
		},
		{
			"bufferView":23,
			"componentType":5126,
			"count":155,
			"max":[
				0.1431969404220581,
				0.15836021304130554,
				1.909211277961731e-08
			],
			"min":[
				-0.14844262599945068,
				-0.13827210664749146,
				-1.7695128917694092e-08
			],
			"type":"VEC3"
		},
		{
			"bufferView":24,
			"componentType":5126,
			"count":155,
			"type":"VEC3"
		},
		{
			"bufferView":25,
			"componentType":5126,
			"count":155,
			"type":"VEC2"
		},
		{
			"bufferView":26,
			"componentType":5123,
			"count":459,
			"type":"SCALAR"
		},
		{
			"bufferView":27,
			"componentType":5123,
			"count":155,
			"normalized":true,
			"type":"VEC4"
		},
		{
			"bufferView":28,
			"componentType":5126,
			"count":155,
			"max":[
				0.14799225330352783,
				0.15846243500709534,
				0.0006670616567134857
			],
			"min":[
				-0.1433035135269165,
				-0.13726943731307983,
				-0.0006744291167706251
			],
			"type":"VEC3"
		},
		{
			"bufferView":29,
			"componentType":5126,
			"count":155,
			"type":"VEC3"
		},
		{
			"bufferView":30,
			"componentType":5126,
			"count":155,
			"type":"VEC2"
		},
		{
			"bufferView":31,
			"componentType":5123,
			"count":459,
			"type":"SCALAR"
		},
		{
			"bufferView":32,
			"componentType":5123,
			"count":2520,
			"normalized":true,
			"type":"VEC4"
		},
		{
			"bufferView":33,
			"componentType":5126,
			"count":2520,
			"max":[
				0.1867685317993164,
				0.30579131841659546,
				0.06280237436294556
			],
			"min":[
				-0.22368478775024414,
				-0.36352360248565674,
				-0.06210138276219368
			],
			"type":"VEC3"
		},
		{
			"bufferView":34,
			"componentType":5126,
			"count":2520,
			"type":"VEC3"
		},
		{
			"bufferView":35,
			"componentType":5126,
			"count":2520,
			"type":"VEC2"
		},
		{
			"bufferView":36,
			"componentType":5123,
			"count":9600,
			"type":"SCALAR"
		},
		{
			"bufferView":37,
			"componentType":5123,
			"count":2520,
			"normalized":true,
			"type":"VEC4"
		},
		{
			"bufferView":38,
			"componentType":5126,
			"count":2520,
			"max":[
				0.22372674942016602,
				0.3059089779853821,
				0.0624929741024971
			],
			"min":[
				-0.18670833110809326,
				-0.3636817932128906,
				-0.06090252101421356
			],
			"type":"VEC3"
		},
		{
			"bufferView":39,
			"componentType":5126,
			"count":2520,
			"type":"VEC3"
		},
		{
			"bufferView":40,
			"componentType":5126,
			"count":2520,
			"type":"VEC2"
		},
		{
			"bufferView":41,
			"componentType":5123,
			"count":9600,
			"type":"SCALAR"
		},
		{
			"bufferView":42,
			"componentType":5123,
			"count":155,
			"normalized":true,
			"type":"VEC4"
		},
		{
			"bufferView":43,
			"componentType":5126,
			"count":155,
			"max":[
				0.11368489265441895,
				0.1391606330871582,
				1.909211277961731e-08
			],
			"min":[
				-0.13038206100463867,
				-0.1381976306438446,
				-1.5366822481155396e-08
			],
			"type":"VEC3"
		},
		{
			"bufferView":44,
			"componentType":5126,
			"count":155,
			"type":"VEC3"
		},
		{
			"bufferView":45,
			"componentType":5126,
			"count":155,
			"type":"VEC2"
		},
		{
			"bufferView":46,
			"componentType":5123,
			"count":155,
			"normalized":true,
			"type":"VEC4"
		},
		{
			"bufferView":47,
			"componentType":5126,
			"count":155,
			"max":[
				0.23112940788269043,
				0.24744081497192383,
				0.002319248393177986
			],
			"min":[
				-0.23174095153808594,
				-0.21016952395439148,
				-0.0023193410597741604
			],
			"type":"VEC3"
		},
		{
			"bufferView":48,
			"componentType":5126,
			"count":155,
			"type":"VEC3"
		},
		{
			"bufferView":49,
			"componentType":5126,
			"count":155,
			"type":"VEC2"
		},
		{
			"bufferView":50,
			"componentType":5123,
			"count":155,
			"normalized":true,
			"type":"VEC4"
		},
		{
			"bufferView":51,
			"componentType":5126,
			"count":155,
			"max":[
				0.09542250633239746,
				0.11281746625900269,
				1.30385160446167e-08
			],
			"min":[
				-0.10691285133361816,
				-0.11801409721374512,
				-1.5832483768463135e-08
			],
			"type":"VEC3"
		},
		{
			"bufferView":52,
			"componentType":5126,
			"count":155,
			"type":"VEC3"
		},
		{
			"bufferView":53,
			"componentType":5126,
			"count":155,
			"type":"VEC2"
		},
		{
			"bufferView":54,
			"componentType":5123,
			"count":155,
			"normalized":true,
			"type":"VEC4"
		},
		{
			"bufferView":55,
			"componentType":5126,
			"count":155,
			"max":[
				0.08106964826583862,
				0.10346728563308716,
				9.778887033462524e-09
			],
			"min":[
				-0.09713560342788696,
				-0.1024709939956665,
				-1.5832483768463135e-08
			],
			"type":"VEC3"
		},
		{
			"bufferView":56,
			"componentType":5126,
			"count":155,
			"type":"VEC3"
		},
		{
			"bufferView":57,
			"componentType":5126,
			"count":155,
			"type":"VEC2"
		},
		{
			"bufferView":58,
			"componentType":5123,
			"count":155,
			"normalized":true,
			"type":"VEC4"
		},
		{
			"bufferView":59,
			"componentType":5126,
			"count":155,
			"max":[
				0.13037586212158203,
				0.13916698098182678,
				1.932494342327118e-08
			],
			"min":[
				-0.11366820335388184,
				-0.13820919394493103,
				-1.5133991837501526e-08
			],
			"type":"VEC3"
		},
		{
			"bufferView":60,
			"componentType":5126,
			"count":155,
			"type":"VEC3"
		},
		{
			"bufferView":61,
			"componentType":5126,
			"count":155,
			"type":"VEC2"
		},
		{
			"bufferView":62,
			"componentType":5123,
			"count":155,
			"normalized":true,
			"type":"VEC4"
		},
		{
			"bufferView":63,
			"componentType":5126,
			"count":155,
			"max":[
				0.14533472061157227,
				0.13486671447753906,
				1.6065314412117004e-08
			],
			"min":[
				-0.14825117588043213,
				-0.16074734926223755,
				-2.0721927285194397e-08
			],
			"type":"VEC3"
		},
		{
			"bufferView":64,
			"componentType":5126,
			"count":155,
			"type":"VEC3"
		},
		{
			"bufferView":65,
			"componentType":5126,
			"count":155,
			"type":"VEC2"
		},
		{
			"bufferView":66,
			"componentType":5123,
			"count":155,
			"normalized":true,
			"type":"VEC4"
		},
		{
			"bufferView":67,
			"componentType":5126,
			"count":155,
			"max":[
				0.22638988494873047,
				0.242431640625,
				3.119930624961853e-08
			],
			"min":[
				-0.2260286808013916,
				-0.20636287331581116,
				-2.444721758365631e-08
			],
			"type":"VEC3"
		},
		{
			"bufferView":68,
			"componentType":5126,
			"count":155,
			"type":"VEC3"
		},
		{
			"bufferView":69,
			"componentType":5126,
			"count":155,
			"type":"VEC2"
		},
		{
			"bufferView":70,
			"componentType":5123,
			"count":155,
			"normalized":true,
			"type":"VEC4"
		},
		{
			"bufferView":71,
			"componentType":5126,
			"count":155,
			"max":[
				0.11717057228088379,
				0.13715310394763947,
				1.3969838619232178e-08
			],
			"min":[
				-0.13100600242614746,
				-0.13478907942771912,
				-1.979060471057892e-08
			],
			"type":"VEC3"
		},
		{
			"bufferView":72,
			"componentType":5126,
			"count":155,
			"type":"VEC3"
		},
		{
			"bufferView":73,
			"componentType":5126,
			"count":155,
			"type":"VEC2"
		},
		{
			"bufferView":74,
			"componentType":5123,
			"count":155,
			"normalized":true,
			"type":"VEC4"
		},
		{
			"bufferView":75,
			"componentType":5126,
			"count":155,
			"max":[
				0.10097193717956543,
				0.10688053071498871,
				1.280568540096283e-08
			],
			"min":[
				-0.10182154178619385,
				-0.09130269289016724,
				-1.1874362826347351e-08
			],
			"type":"VEC3"
		},
		{
			"bufferView":76,
			"componentType":5126,
			"count":155,
			"type":"VEC3"
		},
		{
			"bufferView":77,
			"componentType":5126,
			"count":155,
			"type":"VEC2"
		},
		{
			"bufferView":78,
			"componentType":5126,
			"count":2,
			"max":[
				10
			],
			"min":[
				0.041666666666666664
			],
			"type":"SCALAR"
		},
		{
			"bufferView":79,
			"componentType":5126,
			"count":2,
			"type":"VEC3"
		},
		{
			"bufferView":80,
			"componentType":5126,
			"count":240,
			"max":[
				10
			],
			"min":[
				0.041666666666666664
			],
			"type":"SCALAR"
		},
		{
			"bufferView":81,
			"componentType":5126,
			"count":240,
			"type":"VEC4"
		},
		{
			"bufferView":82,
			"componentType":5126,
			"count":2,
			"type":"VEC3"
		},
		{
			"bufferView":83,
			"componentType":5126,
			"count":2,
			"max":[
				9.791666666666666
			],
			"min":[
				0.041666666666666664
			],
			"type":"SCALAR"
		},
		{
			"bufferView":84,
			"componentType":5126,
			"count":2,
			"type":"VEC3"
		},
		{
			"bufferView":85,
			"componentType":5126,
			"count":235,
			"max":[
				9.791666666666666
			],
			"min":[
				0.041666666666666664
			],
			"type":"SCALAR"
		},
		{
			"bufferView":86,
			"componentType":5126,
			"count":235,
			"type":"VEC4"
		},
		{
			"bufferView":87,
			"componentType":5126,
			"count":2,
			"type":"VEC3"
		},
		{
			"bufferView":88,
			"componentType":5126,
			"count":2,
			"max":[
				3.75
			],
			"min":[
				0
			],
			"type":"SCALAR"
		},
		{
			"bufferView":89,
			"componentType":5126,
			"count":2,
			"type":"VEC3"
		},
		{
			"bufferView":90,
			"componentType":5126,
			"count":91,
			"max":[
				3.75
			],
			"min":[
				0
			],
			"type":"SCALAR"
		},
		{
			"bufferView":91,
			"componentType":5126,
			"count":91,
			"type":"VEC4"
		},
		{
			"bufferView":92,
			"componentType":5126,
			"count":2,
			"type":"VEC3"
		}
	],
	"bufferViews":[
		{
			"buffer":0,
			"byteLength":262308,
			"byteOffset":0,
			"target":34962
		},
		{
			"buffer":0,
			"byteLength":262308,
			"byteOffset":262308,
			"target":34962
		},
		{
			"buffer":0,
			"byteLength":174872,
			"byteOffset":524616,
			"target":34962
		},
		{
			"buffer":0,
			"byteLength":123240,
			"byteOffset":699488,
			"target":34963
		},
		{
			"buffer":0,
			"byteLength":118860,
			"byteOffset":822728,
			"target":34962
		},
		{
			"buffer":0,
			"byteLength":118860,
			"byteOffset":941588,
			"target":34962
		},
		{
			"buffer":0,
			"byteLength":79240,
			"byteOffset":1060448,
			"target":34962
		},
		{
			"buffer":0,
			"byteLength":58200,
			"byteOffset":1139688,
			"target":34963
		},
		{
			"buffer":0,
			"byteLength":13640,
			"byteOffset":1197888,
			"target":34962
		},
		{
			"buffer":0,
			"byteLength":20460,
			"byteOffset":1211528,
			"target":34962
		},
		{
			"buffer":0,
			"byteLength":20460,
			"byteOffset":1231988,
			"target":34962
		},
		{
			"buffer":0,
			"byteLength":13640,
			"byteOffset":1252448,
			"target":34962
		},
		{
			"buffer":0,
			"byteLength":10098,
			"byteOffset":1266088,
			"target":34963
		},
		{
			"buffer":0,
			"byteLength":73360,
			"byteOffset":1276188,
			"target":34962
		},
		{
			"buffer":0,
			"byteLength":110040,
			"byteOffset":1349548,
			"target":34962
		},
		{
			"buffer":0,
			"byteLength":110040,
			"byteOffset":1459588,
			"target":34962
		},
		{
			"buffer":0,
			"byteLength":73360,
			"byteOffset":1569628,
			"target":34962
		},
		{
			"buffer":0,
			"byteLength":91584,
			"byteOffset":1642988,
			"target":34963
		},
		{
			"buffer":0,
			"byteLength":15888,
			"byteOffset":1734572,
			"target":34962
		},
		{
			"buffer":0,
			"byteLength":15888,
			"byteOffset":1750460,
			"target":34962
		},
		{
			"buffer":0,
			"byteLength":10592,
			"byteOffset":1766348,
			"target":34962
		},
		{
			"buffer":0,
			"byteLength":7824,
			"byteOffset":1776940,
			"target":34963
		},
		{
			"buffer":0,
			"byteLength":1240,
			"byteOffset":1784764,
			"target":34962
		},
		{
			"buffer":0,
			"byteLength":1860,
			"byteOffset":1786004,
			"target":34962
		},
		{
			"buffer":0,
			"byteLength":1860,
			"byteOffset":1787864,
			"target":34962
		},
		{
			"buffer":0,
			"byteLength":1240,
			"byteOffset":1789724,
			"target":34962
		},
		{
			"buffer":0,
			"byteLength":918,
			"byteOffset":1790964,
			"target":34963
		},
		{
			"buffer":0,
			"byteLength":1240,
			"byteOffset":1791884,
			"target":34962
		},
		{
			"buffer":0,
			"byteLength":1860,
			"byteOffset":1793124,
			"target":34962
		},
		{
			"buffer":0,
			"byteLength":1860,
			"byteOffset":1794984,
			"target":34962
		},
		{
			"buffer":0,
			"byteLength":1240,
			"byteOffset":1796844,
			"target":34962
		},
		{
			"buffer":0,
			"byteLength":918,
			"byteOffset":1798084,
			"target":34963
		},
		{
			"buffer":0,
			"byteLength":20160,
			"byteOffset":1799004,
			"target":34962
		},
		{
			"buffer":0,
			"byteLength":30240,
			"byteOffset":1819164,
			"target":34962
		},
		{
			"buffer":0,
			"byteLength":30240,
			"byteOffset":1849404,
			"target":34962
		},
		{
			"buffer":0,
			"byteLength":20160,
			"byteOffset":1879644,
			"target":34962
		},
		{
			"buffer":0,
			"byteLength":19200,
			"byteOffset":1899804,
			"target":34963
		},
		{
			"buffer":0,
			"byteLength":20160,
			"byteOffset":1919004,
			"target":34962
		},
		{
			"buffer":0,
			"byteLength":30240,
			"byteOffset":1939164,
			"target":34962
		},
		{
			"buffer":0,
			"byteLength":30240,
			"byteOffset":1969404,
			"target":34962
		},
		{
			"buffer":0,
			"byteLength":20160,
			"byteOffset":1999644,
			"target":34962
		},
		{
			"buffer":0,
			"byteLength":19200,
			"byteOffset":2019804,
			"target":34963
		},
		{
			"buffer":0,
			"byteLength":1240,
			"byteOffset":2039004,
			"target":34962
		},
		{
			"buffer":0,
			"byteLength":1860,
			"byteOffset":2040244,
			"target":34962
		},
		{
			"buffer":0,
			"byteLength":1860,
			"byteOffset":2042104,
			"target":34962
		},
		{
			"buffer":0,
			"byteLength":1240,
			"byteOffset":2043964,
			"target":34962
		},
		{
			"buffer":0,
			"byteLength":1240,
			"byteOffset":2045204,
			"target":34962
		},
		{
			"buffer":0,
			"byteLength":1860,
			"byteOffset":2046444,
			"target":34962
		},
		{
			"buffer":0,
			"byteLength":1860,
			"byteOffset":2048304,
			"target":34962
		},
		{
			"buffer":0,
			"byteLength":1240,
			"byteOffset":2050164,
			"target":34962
		},
		{
			"buffer":0,
			"byteLength":1240,
			"byteOffset":2051404,
			"target":34962
		},
		{
			"buffer":0,
			"byteLength":1860,
			"byteOffset":2052644,
			"target":34962
		},
		{
			"buffer":0,
			"byteLength":1860,
			"byteOffset":2054504,
			"target":34962
		},
		{
			"buffer":0,
			"byteLength":1240,
			"byteOffset":2056364,
			"target":34962
		},
		{
			"buffer":0,
			"byteLength":1240,
			"byteOffset":2057604,
			"target":34962
		},
		{
			"buffer":0,
			"byteLength":1860,
			"byteOffset":2058844,
			"target":34962
		},
		{
			"buffer":0,
			"byteLength":1860,
			"byteOffset":2060704,
			"target":34962
		},
		{
			"buffer":0,
			"byteLength":1240,
			"byteOffset":2062564,
			"target":34962
		},
		{
			"buffer":0,
			"byteLength":1240,
			"byteOffset":2063804,
			"target":34962
		},
		{
			"buffer":0,
			"byteLength":1860,
			"byteOffset":2065044,
			"target":34962
		},
		{
			"buffer":0,
			"byteLength":1860,
			"byteOffset":2066904,
			"target":34962
		},
		{
			"buffer":0,
			"byteLength":1240,
			"byteOffset":2068764,
			"target":34962
		},
		{
			"buffer":0,
			"byteLength":1240,
			"byteOffset":2070004,
			"target":34962
		},
		{
			"buffer":0,
			"byteLength":1860,
			"byteOffset":2071244,
			"target":34962
		},
		{
			"buffer":0,
			"byteLength":1860,
			"byteOffset":2073104,
			"target":34962
		},
		{
			"buffer":0,
			"byteLength":1240,
			"byteOffset":2074964,
			"target":34962
		},
		{
			"buffer":0,
			"byteLength":1240,
			"byteOffset":2076204,
			"target":34962
		},
		{
			"buffer":0,
			"byteLength":1860,
			"byteOffset":2077444,
			"target":34962
		},
		{
			"buffer":0,
			"byteLength":1860,
			"byteOffset":2079304,
			"target":34962
		},
		{
			"buffer":0,
			"byteLength":1240,
			"byteOffset":2081164,
			"target":34962
		},
		{
			"buffer":0,
			"byteLength":1240,
			"byteOffset":2082404,
			"target":34962
		},
		{
			"buffer":0,
			"byteLength":1860,
			"byteOffset":2083644,
			"target":34962
		},
		{
			"buffer":0,
			"byteLength":1860,
			"byteOffset":2085504,
			"target":34962
		},
		{
			"buffer":0,
			"byteLength":1240,
			"byteOffset":2087364,
			"target":34962
		},
		{
			"buffer":0,
			"byteLength":1240,
			"byteOffset":2088604,
			"target":34962
		},
		{
			"buffer":0,
			"byteLength":1860,
			"byteOffset":2089844,
			"target":34962
		},
		{
			"buffer":0,
			"byteLength":1860,
			"byteOffset":2091704,
			"target":34962
		},
		{
			"buffer":0,
			"byteLength":1240,
			"byteOffset":2093564,
			"target":34962
		},
		{
			"buffer":0,
			"byteLength":8,
			"byteOffset":2094804
		},
		{
			"buffer":0,
			"byteLength":24,
			"byteOffset":2094812
		},
		{
			"buffer":0,
			"byteLength":960,
			"byteOffset":2094836
		},
		{
			"buffer":0,
			"byteLength":3840,
			"byteOffset":2095796
		},
		{
			"buffer":0,
			"byteLength":24,
			"byteOffset":2099636
		},
		{
			"buffer":0,
			"byteLength":8,
			"byteOffset":2099660
		},
		{
			"buffer":0,
			"byteLength":24,
			"byteOffset":2099668
		},
		{
			"buffer":0,
			"byteLength":940,
			"byteOffset":2099692
		},
		{
			"buffer":0,
			"byteLength":3760,
			"byteOffset":2100632
		},
		{
			"buffer":0,
			"byteLength":24,
			"byteOffset":2104392
		},
		{
			"buffer":0,
			"byteLength":8,
			"byteOffset":2104416
		},
		{
			"buffer":0,
			"byteLength":24,
			"byteOffset":2104424
		},
		{
			"buffer":0,
			"byteLength":364,
			"byteOffset":2104448
		},
		{
			"buffer":0,
			"byteLength":1456,
			"byteOffset":2104812
		},
		{
			"buffer":0,
			"byteLength":24,
			"byteOffset":2106268
		}
	],
	"samplers":[
		{
			"magFilter":9729,
			"minFilter":9987
		}
	],
	"buffers":[
		{
			"byteLength":2106292,
			"uri":"FSM-Yazi150825.bin"
		}
	]
}
